<?xml version="1.0" encoding="utf-8"?>
<!-- Generator: Adobe Illustrator 25.4.1, SVG Export Plug-In . SVG Version: 6.00 Build 0)  -->
<svg version="1.1" id="Capa_1" xmlns="http://www.w3.org/2000/svg" xmlns:xlink="http://www.w3.org/1999/xlink" x="0px" y="0px"
	 viewBox="0 0 434.8 80.2" style="enable-background:new 0 0 434.8 80.2;" xml:space="preserve">
<style type="text/css">
	.st0{clip-path:url(#SVGID_00000027578543245858052840000001291823453057974461_);}
	.st1{clip-path:url(#SVGID_00000142156302513108526520000011257443030578123419_);fill:#FFFFFF;}
	
		.st2{clip-path:url(#SVGID_00000142156302513108526520000011257443030578123419_);fill:none;stroke:#1F1E1C;stroke-width:0.5;stroke-linejoin:round;}
	.st3{clip-path:url(#SVGID_00000016051001597543392170000012439983214737595053_);fill:none;stroke:#1F1E1C;}
	.st4{clip-path:url(#SVGID_00000016051001597543392170000012439983214737595053_);fill:#FFFFFF;}
	.st5{clip-path:url(#SVGID_00000016051001597543392170000012439983214737595053_);fill:none;stroke:#474643;stroke-width:2;}
	.st6{clip-path:url(#SVGID_00000026849327509068709410000018298416058551446424_);fill:#FFFFFF;}
	
		.st7{clip-path:url(#SVGID_00000026849327509068709410000018298416058551446424_);fill:none;stroke:#1F1E1C;stroke-width:0.5;stroke-linecap:round;stroke-linejoin:round;}
	
		.st8{clip-path:url(#SVGID_00000026849327509068709410000018298416058551446424_);fill:none;stroke:#1F1E1C;stroke-width:0.5;stroke-linecap:round;stroke-dasharray:1.483,0.983;}
	
		.st9{clip-path:url(#SVGID_00000026849327509068709410000018298416058551446424_);fill:none;stroke:#1F1E1C;stroke-width:0.5;stroke-linecap:round;stroke-dasharray:1.473,0.973;}
	
		.st10{clip-path:url(#SVGID_00000026849327509068709410000018298416058551446424_);fill:none;stroke:#1F1E1C;stroke-width:0.5;stroke-linecap:round;}
	.st11{opacity:0.3;clip-path:url(#SVGID_00000026849327509068709410000018298416058551446424_);}
	
		.st12{clip-path:url(#SVGID_00000026849327509068709410000018298416058551446424_);fill:none;stroke:#1F1E1C;stroke-width:0.5;stroke-linecap:round;stroke-dasharray:1.489,0.989;}
	.st13{clip-path:url(#SVGID_00000091717811137451613190000017335509554350248332_);fill:none;stroke:#1F1E1C;}
	.st14{clip-path:url(#SVGID_00000091717811137451613190000017335509554350248332_);fill:#FFFFFF;}
	.st15{clip-path:url(#SVGID_00000091717811137451613190000017335509554350248332_);fill:none;stroke:#474643;stroke-width:2;}
</style>
<g>
	<defs>
		<rect id="SVGID_1_" width="434.8" height="80.2"/>
	</defs>
	<clipPath id="SVGID_00000008831638830117589780000013515521272423994004_">
		<use xlink:href="#SVGID_1_"  style="overflow:visible;"/>
	</clipPath>
	<g style="clip-path:url(#SVGID_00000008831638830117589780000013515521272423994004_);">
		<defs>
			<path id="SVGID_00000047057648462384276950000013319015761981859219_" d="M185.2,0.5c-3.1,0-5.7,2.5-5.7,5.7v67.9
				c0,3.1,2.5,5.7,5.7,5.7h243.4c3.1,0,5.7-2.5,5.7-5.7V6.2c0-3.1-2.5-5.7-5.7-5.7H185.2z"/>
		</defs>
		<clipPath id="SVGID_00000147206879974707191090000011090718333409898922_">
			<use xlink:href="#SVGID_00000047057648462384276950000013319015761981859219_"  style="overflow:visible;"/>
		</clipPath>
		
			<rect x="220.8" y="11.9" style="clip-path:url(#SVGID_00000147206879974707191090000011090718333409898922_);fill:#FFFFFF;" width="33.5" height="56.2"/>
		
			<rect x="220.8" y="11.9" style="clip-path:url(#SVGID_00000147206879974707191090000011090718333409898922_);fill:none;stroke:#1F1E1C;stroke-width:0.5;stroke-linejoin:round;" width="33.5" height="56.2"/>
		
			<rect x="288.8" y="11.9" style="clip-path:url(#SVGID_00000147206879974707191090000011090718333409898922_);fill:#FFFFFF;" width="33.5" height="56.2"/>
		
			<rect x="288.8" y="11.9" style="clip-path:url(#SVGID_00000147206879974707191090000011090718333409898922_);fill:none;stroke:#1F1E1C;stroke-width:0.5;stroke-linejoin:round;" width="33.5" height="56.2"/>
		
			<rect x="355.7" y="20.4" style="clip-path:url(#SVGID_00000147206879974707191090000011090718333409898922_);fill:#FFFFFF;" width="47.7" height="47.7"/>
		
			<rect x="355.7" y="20.4" style="clip-path:url(#SVGID_00000147206879974707191090000011090718333409898922_);fill:none;stroke:#1F1E1C;stroke-width:0.5;stroke-linejoin:round;" width="47.7" height="47.7"/>
	</g>
	<g style="clip-path:url(#SVGID_00000008831638830117589780000013515521272423994004_);">
		<defs>
			<rect id="SVGID_00000057108043572650357700000013342444292074644868_" y="0" width="434.8" height="80.2"/>
		</defs>
		<clipPath id="SVGID_00000124883867446023584940000014956175182801544596_">
			<use xlink:href="#SVGID_00000057108043572650357700000013342444292074644868_"  style="overflow:visible;"/>
		</clipPath>
		<path style="clip-path:url(#SVGID_00000124883867446023584940000014956175182801544596_);fill:none;stroke:#1F1E1C;" d="
			M185.2,0.5c-3.1,0-5.7,2.5-5.7,5.7v67.9c0,3.1,2.5,5.7,5.7,5.7h243.4c3.1,0,5.7-2.5,5.7-5.7V6.2c0-3.1-2.5-5.7-5.7-5.7H185.2z"/>
		<path style="clip-path:url(#SVGID_00000124883867446023584940000014956175182801544596_);fill:#FFFFFF;" d="M180.7,47.1
			c3.9,0,7-3.1,7-7s-3.1-7-7-7c-3.9,0-7,3.1-7,7S176.8,47.1,180.7,47.1"/>
		
			<ellipse transform="matrix(0.9732 -0.2298 0.2298 0.9732 -4.3821 42.5852)" style="clip-path:url(#SVGID_00000124883867446023584940000014956175182801544596_);fill:none;stroke:#474643;stroke-width:2;" cx="180.7" cy="40.1" rx="7" ry="7"/>
	</g>
	<g style="clip-path:url(#SVGID_00000008831638830117589780000013515521272423994004_);">
		<defs>
			<path id="SVGID_00000018929472464181791700000007831351277452281271_" d="M6.2,0.5C3,0.5,0.5,3,0.5,6.2v67.9
				c0,3.1,2.5,5.7,5.7,5.7h67.9c3.1,0,5.7-2.5,5.7-5.7V6.2c0-3.1-2.5-5.7-5.7-5.7H6.2z"/>
		</defs>
		<clipPath id="SVGID_00000179642368010399121180000011925218805544540580_">
			<use xlink:href="#SVGID_00000018929472464181791700000007831351277452281271_"  style="overflow:visible;"/>
		</clipPath>
		<polygon style="clip-path:url(#SVGID_00000179642368010399121180000011925218805544540580_);fill:#FFFFFF;" points="60.2,8.4 
			5.6,44.6 62.8,73.9 		"/>
		
			<polygon style="clip-path:url(#SVGID_00000179642368010399121180000011925218805544540580_);fill:none;stroke:#1F1E1C;stroke-width:0.5;stroke-linecap:round;stroke-linejoin:round;" points="
			60.2,8.4 5.6,44.6 62.8,73.9 		"/>
		<polyline style="clip-path:url(#SVGID_00000179642368010399121180000011925218805544540580_);fill:#FFFFFF;" points="5.8,44.6 
			44.8,38.7 62.6,73.6 		"/>
		
			<line style="clip-path:url(#SVGID_00000179642368010399121180000011925218805544540580_);fill:none;stroke:#1F1E1C;stroke-width:0.5;stroke-linecap:round;stroke-dasharray:1.483,0.983;" x1="7.5" y1="44.4" x2="43.5" y2="38.9"/>
		
			<line style="clip-path:url(#SVGID_00000179642368010399121180000011925218805544540580_);fill:none;stroke:#1F1E1C;stroke-width:0.5;stroke-linecap:round;stroke-dasharray:1.473,0.973;" x1="45.5" y1="40.3" x2="62" y2="72.5"/>
		
			<path style="clip-path:url(#SVGID_00000179642368010399121180000011925218805544540580_);fill:none;stroke:#1F1E1C;stroke-width:0.5;stroke-linecap:round;" d="
			M62.2,72.9l0.3,0.7 M44,38.8l0.7-0.1l0.3,0.7 M5.8,44.6l0.7-0.1"/>
		<g style="opacity:0.3;clip-path:url(#SVGID_00000179642368010399121180000011925218805544540580_);">
			<g>
				<defs>
					<rect id="SVGID_00000028292955739266262780000000193029220484743056_" x="35.9" y="-2.6" width="35.7" height="46.8"/>
				</defs>
				<clipPath id="SVGID_00000137125529741838547680000016555101784512737688_">
					<use xlink:href="#SVGID_00000028292955739266262780000000193029220484743056_"  style="overflow:visible;"/>
				</clipPath>
			</g>
		</g>
		
			<line style="clip-path:url(#SVGID_00000179642368010399121180000011925218805544540580_);fill:none;stroke:#1F1E1C;stroke-width:0.5;stroke-linecap:round;stroke-dasharray:1.489,0.989;" x1="60.1" y1="8.6" x2="44.8" y2="38.6"/>
	</g>
	<g style="clip-path:url(#SVGID_00000008831638830117589780000013515521272423994004_);">
		<defs>
			<rect id="SVGID_00000049192794067337278010000016025887237950454154_" y="0" width="434.8" height="80.2"/>
		</defs>
		<clipPath id="SVGID_00000041255213619490869360000000213223447801351317_">
			<use xlink:href="#SVGID_00000049192794067337278010000016025887237950454154_"  style="overflow:visible;"/>
		</clipPath>
		<path style="clip-path:url(#SVGID_00000041255213619490869360000000213223447801351317_);fill:none;stroke:#1F1E1C;" d="M6.2,0.5
			C3,0.5,0.5,3,0.5,6.2v67.9c0,3.1,2.5,5.7,5.7,5.7h67.9c3.1,0,5.7-2.5,5.7-5.7V6.2c0-3.1-2.5-5.7-5.7-5.7H6.2z"/>
		<path style="clip-path:url(#SVGID_00000041255213619490869360000000213223447801351317_);fill:#FFFFFF;" d="M79.4,48.2
			c3.9,0,7-3.1,7-7s-3.1-7-7-7c-3.9,0-7,3.1-7,7S75.5,48.2,79.4,48.2"/>
		
			<circle style="clip-path:url(#SVGID_00000041255213619490869360000000213223447801351317_);fill:none;stroke:#474643;stroke-width:2;" cx="79.4" cy="41.1" r="7"/>
	</g>
</g>
<g>
</g>
<g>
</g>
<g>
</g>
<g>
</g>
<g>
</g>
<g>
</g>
<g>
</g>
<g>
</g>
<g>
</g>
<g>
</g>
<g>
</g>
<g>
</g>
<g>
</g>
<g>
</g>
<g>
</g>
</svg>
