<?xml version="1.0" encoding="utf-8"?>
<!-- Generator: Adobe Illustrator 25.4.1, SVG Export Plug-In . SVG Version: 6.00 Build 0)  -->
<svg version="1.1" id="Capa_1" xmlns="http://www.w3.org/2000/svg" xmlns:xlink="http://www.w3.org/1999/xlink" x="0px" y="0px"
	 viewBox="0 0 434.8 80.2" style="enable-background:new 0 0 434.8 80.2;" xml:space="preserve">
<style type="text/css">
	.st0{clip-path:url(#SVGID_00000156554232022121219340000005361640285900146598_);}
	.st1{clip-path:url(#SVGID_00000078741188023030511150000014926793633582855574_);fill:#FFFFFF;}
	
		.st2{clip-path:url(#SVGID_00000078741188023030511150000014926793633582855574_);fill:none;stroke:#1F1E1C;stroke-width:0.5;stroke-linejoin:round;}
	.st3{clip-path:url(#SVGID_00000003795034518383783750000013811568446999469736_);fill:none;stroke:#1F1E1C;}
	.st4{clip-path:url(#SVGID_00000003795034518383783750000013811568446999469736_);fill:#FFFFFF;}
	.st5{clip-path:url(#SVGID_00000003795034518383783750000013811568446999469736_);fill:none;stroke:#474643;stroke-width:2;}
	.st6{opacity:0.5;clip-path:url(#SVGID_00000165932851347446544860000013561152902400999079_);}
	.st7{clip-path:url(#SVGID_00000165932851347446544860000013561152902400999079_);fill:none;stroke:#1F1E1C;stroke-width:0.397;}
	
		.st8{clip-path:url(#SVGID_00000165932851347446544860000013561152902400999079_);fill:none;stroke:#1F1E1C;stroke-width:0.5;stroke-linecap:round;stroke-linejoin:round;stroke-dasharray:1.498,0.998;}
	
		.st9{clip-path:url(#SVGID_00000165932851347446544860000013561152902400999079_);fill:none;stroke:#1F1E1C;stroke-width:0.5;stroke-linecap:round;stroke-linejoin:round;stroke-dasharray:1.505,1.005;}
	
		.st10{clip-path:url(#SVGID_00000165932851347446544860000013561152902400999079_);fill:none;stroke:#1F1E1C;stroke-width:0.5;stroke-linecap:round;stroke-linejoin:round;}
	
		.st11{clip-path:url(#SVGID_00000165932851347446544860000013561152902400999079_);fill:none;stroke:#1F1E1C;stroke-width:0.5;stroke-linecap:round;stroke-linejoin:round;stroke-dasharray:1.529,1.029;}
	.st12{opacity:0.4;clip-path:url(#SVGID_00000165932851347446544860000013561152902400999079_);}
	.st13{opacity:0.8;clip-path:url(#SVGID_00000165932851347446544860000013561152902400999079_);}
	.st14{clip-path:url(#SVGID_00000013884814911837944620000016389991395459322030_);fill:none;stroke:#1F1E1C;}
	.st15{clip-path:url(#SVGID_00000013884814911837944620000016389991395459322030_);fill:#FFFFFF;}
	.st16{clip-path:url(#SVGID_00000013884814911837944620000016389991395459322030_);fill:none;stroke:#474643;stroke-width:2;}
</style>
<g>
	<defs>
		<rect id="SVGID_1_" width="434.8" height="80.2"/>
	</defs>
	<clipPath id="SVGID_00000022532655213972312530000000904432781440176296_">
		<use xlink:href="#SVGID_1_"  style="overflow:visible;"/>
	</clipPath>
	<g style="clip-path:url(#SVGID_00000022532655213972312530000000904432781440176296_);">
		<defs>
			<path id="SVGID_00000079479477563491677060000018128800414652763057_" d="M185.2,0.5c-3.1,0-5.7,2.5-5.7,5.7v67.9
				c0,3.1,2.5,5.7,5.7,5.7h243.4c3.1,0,5.7-2.5,5.7-5.7V6.2c0-3.1-2.5-5.7-5.7-5.7H185.2z"/>
		</defs>
		<clipPath id="SVGID_00000117675278837355422940000006461244750582739854_">
			<use xlink:href="#SVGID_00000079479477563491677060000018128800414652763057_"  style="overflow:visible;"/>
		</clipPath>
		
			<rect x="361.4" y="18.1" style="clip-path:url(#SVGID_00000117675278837355422940000006461244750582739854_);fill:#FFFFFF;" width="47.7" height="47.7"/>
		
			<rect x="361.4" y="18.1" style="clip-path:url(#SVGID_00000117675278837355422940000006461244750582739854_);fill:none;stroke:#1F1E1C;stroke-width:0.5;stroke-linejoin:round;" width="47.7" height="47.7"/>
		
			<rect x="287.7" y="18.1" style="clip-path:url(#SVGID_00000117675278837355422940000006461244750582739854_);fill:#FFFFFF;" width="47.7" height="47.7"/>
		
			<rect x="287.7" y="18.1" style="clip-path:url(#SVGID_00000117675278837355422940000006461244750582739854_);fill:none;stroke:#1F1E1C;stroke-width:0.5;stroke-linejoin:round;" width="47.7" height="47.7"/>
		
			<rect x="215.1" y="18.1" style="clip-path:url(#SVGID_00000117675278837355422940000006461244750582739854_);fill:#FFFFFF;" width="47.7" height="47.7"/>
		
			<rect x="215.1" y="18.1" style="clip-path:url(#SVGID_00000117675278837355422940000006461244750582739854_);fill:none;stroke:#1F1E1C;stroke-width:0.5;stroke-linejoin:round;" width="47.7" height="47.7"/>
	</g>
	<g style="clip-path:url(#SVGID_00000022532655213972312530000000904432781440176296_);">
		<defs>
			<rect id="SVGID_00000042709133965678238080000003293828986765677995_" y="0" width="434.8" height="80.2"/>
		</defs>
		<clipPath id="SVGID_00000085946224960626365280000013502547029195092924_">
			<use xlink:href="#SVGID_00000042709133965678238080000003293828986765677995_"  style="overflow:visible;"/>
		</clipPath>
		<path style="clip-path:url(#SVGID_00000085946224960626365280000013502547029195092924_);fill:none;stroke:#1F1E1C;" d="
			M185.2,0.5c-3.1,0-5.7,2.5-5.7,5.7v67.9c0,3.1,2.5,5.7,5.7,5.7h243.4c3.1,0,5.7-2.5,5.7-5.7V6.2c0-3.1-2.5-5.7-5.7-5.7H185.2z"/>
		<path style="clip-path:url(#SVGID_00000085946224960626365280000013502547029195092924_);fill:#FFFFFF;" d="M180.7,47.1
			c3.9,0,7-3.1,7-7s-3.1-7-7-7c-3.9,0-7,3.1-7,7S176.8,47.1,180.7,47.1"/>
		
			<ellipse transform="matrix(0.9732 -0.2298 0.2298 0.9732 -4.3821 42.5852)" style="clip-path:url(#SVGID_00000085946224960626365280000013502547029195092924_);fill:none;stroke:#474643;stroke-width:2;" cx="180.7" cy="40.1" rx="7" ry="7"/>
	</g>
	<g style="clip-path:url(#SVGID_00000022532655213972312530000000904432781440176296_);">
		<defs>
			<path id="SVGID_00000106848706847549173480000004226842175315402411_" d="M6.2,0.5C3,0.5,0.5,3,0.5,6.2v67.9
				c0,3.1,2.5,5.7,5.7,5.7h67.9c3.1,0,5.7-2.5,5.7-5.7V6.2c0-3.1-2.5-5.7-5.7-5.7H6.2z"/>
		</defs>
		<clipPath id="SVGID_00000155833996123953163190000006844618707005418384_">
			<use xlink:href="#SVGID_00000106848706847549173480000004226842175315402411_"  style="overflow:visible;"/>
		</clipPath>
		<g style="opacity:0.5;clip-path:url(#SVGID_00000155833996123953163190000006844618707005418384_);">
			<g>
				<defs>
					<rect id="SVGID_00000137097630641443641690000008046617689814182795_" x="0.8" y="46.2" width="78.5" height="22.1"/>
				</defs>
				<clipPath id="SVGID_00000128443385120472567720000001813233878480783771_">
					<use xlink:href="#SVGID_00000137097630641443641690000008046617689814182795_"  style="overflow:visible;"/>
				</clipPath>
			</g>
		</g>
		
			<polyline style="clip-path:url(#SVGID_00000155833996123953163190000006844618707005418384_);fill:none;stroke:#1F1E1C;stroke-width:0.397;" points="
			9.8,27 30,12.9 70.3,12.9 		"/>
		
			<line style="clip-path:url(#SVGID_00000155833996123953163190000006844618707005418384_);fill:none;stroke:#1F1E1C;stroke-width:0.5;stroke-linecap:round;stroke-linejoin:round;stroke-dasharray:1.498,0.998;" x1="30.2" y1="15" x2="30.2" y2="52"/>
		
			<line style="clip-path:url(#SVGID_00000155833996123953163190000006844618707005418384_);fill:none;stroke:#1F1E1C;stroke-width:0.5;stroke-linecap:round;stroke-linejoin:round;stroke-dasharray:1.505,1.005;" x1="31.9" y1="53.2" x2="69.1" y2="53.2"/>
		
			<path style="clip-path:url(#SVGID_00000155833996123953163190000006844618707005418384_);fill:none;stroke:#1F1E1C;stroke-width:0.5;stroke-linecap:round;stroke-linejoin:round;" d="
			M69.6,53.2h0.8 M30.2,52.5v0.7h0.8 M30.2,13.3V14"/>
		
			<line style="clip-path:url(#SVGID_00000155833996123953163190000006844618707005418384_);fill:none;stroke:#1F1E1C;stroke-width:0.5;stroke-linecap:round;stroke-linejoin:round;stroke-dasharray:1.529,1.029;" x1="10" y1="67.5" x2="30" y2="53.2"/>
		<g style="opacity:0.4;clip-path:url(#SVGID_00000155833996123953163190000006844618707005418384_);">
			<g>
				<defs>
					<rect id="SVGID_00000161614058824377226620000018404583790737815207_" x="0.6" y="19.8" width="58.7" height="48.7"/>
				</defs>
				<clipPath id="SVGID_00000181052307542654304150000008713462127715834523_">
					<use xlink:href="#SVGID_00000161614058824377226620000018404583790737815207_"  style="overflow:visible;"/>
				</clipPath>
			</g>
		</g>
		
			<rect x="9.8" y="27" style="clip-path:url(#SVGID_00000155833996123953163190000006844618707005418384_);fill:none;stroke:#1F1E1C;stroke-width:0.397;" width="40.3" height="40.3"/>
		<g style="opacity:0.8;clip-path:url(#SVGID_00000155833996123953163190000006844618707005418384_);">
			<g>
				<defs>
					<rect id="SVGID_00000138531572067541372350000008116293362393588919_" x="41" y="5.5" width="38.6" height="63.2"/>
				</defs>
				<clipPath id="SVGID_00000044886005910589092830000007869038960762675097_">
					<use xlink:href="#SVGID_00000138531572067541372350000008116293362393588919_"  style="overflow:visible;"/>
				</clipPath>
			</g>
		</g>
		
			<polygon style="clip-path:url(#SVGID_00000155833996123953163190000006844618707005418384_);fill:none;stroke:#1F1E1C;stroke-width:0.397;" points="
			70.3,53.2 50.2,67.3 50.2,27 70.3,12.9 		"/>
	</g>
	<g style="clip-path:url(#SVGID_00000022532655213972312530000000904432781440176296_);">
		<defs>
			<rect id="SVGID_00000049936758783306486260000012558190886956928644_" y="0" width="434.8" height="80.2"/>
		</defs>
		<clipPath id="SVGID_00000101787200118633905170000009513233963916824249_">
			<use xlink:href="#SVGID_00000049936758783306486260000012558190886956928644_"  style="overflow:visible;"/>
		</clipPath>
		<path style="clip-path:url(#SVGID_00000101787200118633905170000009513233963916824249_);fill:none;stroke:#1F1E1C;" d="M6.2,0.5
			C3,0.5,0.5,3,0.5,6.2v67.9c0,3.1,2.5,5.7,5.7,5.7h67.9c3.1,0,5.7-2.5,5.7-5.7V6.2c0-3.1-2.5-5.7-5.7-5.7H6.2z"/>
		<path style="clip-path:url(#SVGID_00000101787200118633905170000009513233963916824249_);fill:#FFFFFF;" d="M79.4,48.2
			c3.9,0,7-3.1,7-7s-3.1-7-7-7c-3.9,0-7,3.1-7,7S75.5,48.2,79.4,48.2"/>
		
			<circle style="clip-path:url(#SVGID_00000101787200118633905170000009513233963916824249_);fill:none;stroke:#474643;stroke-width:2;" cx="79.4" cy="41.1" r="7"/>
	</g>
</g>
<g>
</g>
<g>
</g>
<g>
</g>
<g>
</g>
<g>
</g>
<g>
</g>
<g>
</g>
<g>
</g>
<g>
</g>
<g>
</g>
<g>
</g>
<g>
</g>
<g>
</g>
<g>
</g>
<g>
</g>
</svg>
