<svg id="Capa_1" data-name="Capa 1" xmlns="http://www.w3.org/2000/svg" xmlns:xlink="http://www.w3.org/1999/xlink" viewBox="0 0 909.4 601.14"><defs><style>.cls-1,.cls-13,.cls-14,.cls-15,.cls-17,.cls-18,.cls-20,.cls-28,.cls-3,.cls-32,.cls-4,.cls-42,.cls-43,.cls-44,.cls-45,.cls-47,.cls-51,.cls-53,.cls-8{fill:none;}.cls-2{clip-path:url(#clip-path);}.cls-3,.cls-4{stroke:#008dce;}.cls-13,.cls-14,.cls-15,.cls-17,.cls-18,.cls-3,.cls-32,.cls-4,.cls-42,.cls-43,.cls-44,.cls-45{stroke-linecap:round;}.cls-18,.cls-3,.cls-32,.cls-4,.cls-42,.cls-43,.cls-44,.cls-45,.cls-47{stroke-linejoin:round;}.cls-3,.cls-32,.cls-4{stroke-width:2px;}.cls-3{stroke-dasharray:0 4.03;}.cls-5{opacity:0.4;}.cls-6{clip-path:url(#clip-path-3);}.cls-7{fill:#ffcb00;}.cls-13,.cls-14,.cls-15,.cls-17,.cls-18,.cls-42,.cls-43,.cls-44,.cls-45,.cls-47,.cls-51,.cls-53,.cls-8{stroke:#1d1d1b;}.cls-9{opacity:0.6;}.cls-10{clip-path:url(#clip-path-5);}.cls-11{opacity:0.8;}.cls-12{clip-path:url(#clip-path-7);}.cls-13,.cls-14,.cls-15,.cls-17{stroke-width:0.75px;}.cls-13{stroke-dasharray:2.26 1.51;}.cls-14{stroke-dasharray:2.27 1.52;}.cls-16{opacity:0.3;}.cls-17{stroke-dasharray:2.23 1.48;}.cls-19{fill:#fff;}.cls-20{stroke:#b1b1b1;}.cls-20,.cls-51,.cls-53{stroke-miterlimit:10;}.cls-20,.cls-42,.cls-43,.cls-44,.cls-45,.cls-53{stroke-width:0.5px;}.cls-21{opacity:0.5;}.cls-22{clip-path:url(#clip-path-11);}.cls-23{clip-path:url(#clip-path-13);}.cls-24{clip-path:url(#clip-path-23);}.cls-25{font-size:24.03px;fill:#3c3c3b;font-family:Malva-Light, Malva;font-weight:300;}.cls-26{letter-spacing:0em;}.cls-27{letter-spacing:0em;}.cls-28{stroke:#517280;stroke-width:1.2px;}.cls-29{letter-spacing:-0.01em;}.cls-30{letter-spacing:0em;}.cls-31{letter-spacing:-0.01em;}.cls-32{stroke:#868686;}.cls-33{font-size:32.04px;fill:#ee7d00;font-family:Malva-Medium, Malva;font-weight:500;}.cls-34{letter-spacing:-0.02em;}.cls-35{letter-spacing:0em;}.cls-36{letter-spacing:0em;}.cls-37{clip-path:url(#clip-path-40);}.cls-38{fill:#bf087f;}.cls-39{clip-path:url(#clip-path-54);}.cls-40{letter-spacing:-0.01em;}.cls-41{letter-spacing:0em;}.cls-42{stroke-dasharray:1.47 0.97;}.cls-43{stroke-dasharray:1.52 1.02;}.cls-45{stroke-dasharray:1.5 1;}.cls-46{clip-path:url(#clip-path-58);}.cls-48{clip-path:url(#clip-path-60);}.cls-49{letter-spacing:-0.01em;}.cls-50{clip-path:url(#clip-path-64);}.cls-51{stroke-width:0.69px;}.cls-52{fill:#1d1d1b;}.cls-54{letter-spacing:0em;}</style><clipPath id="clip-path"><rect class="cls-1" y="2.79" width="909.4" height="598.35"/></clipPath><clipPath id="clip-path-3"><rect class="cls-1" x="284.75" y="272.57" width="80.88" height="210.67"/></clipPath><clipPath id="clip-path-5"><rect class="cls-1" x="240.94" y="272.57" width="81.05" height="210.68"/></clipPath><clipPath id="clip-path-7"><rect class="cls-1" x="241.67" y="433.11" width="122.94" height="49.11"/></clipPath><clipPath id="clip-path-11"><rect class="cls-1" x="231.76" y="79.09" width="142.4" height="95.46"/></clipPath><clipPath id="clip-path-13"><rect class="cls-1" x="382.54" y="305.88" width="88.09" height="144.78"/></clipPath><clipPath id="clip-path-23"><rect class="cls-1" x="7.57" y="306.07" width="88.09" height="143.29"/></clipPath><clipPath id="clip-path-40"><rect class="cls-1" x="749.95" y="226.26" width="151.23" height="101.95"/></clipPath><clipPath id="clip-path-54"><rect class="cls-1" x="749.93" y="429.74" width="151.23" height="101.95"/></clipPath><clipPath id="clip-path-58"><rect class="cls-1" x="532" y="337.46" width="156.95" height="176.66"/></clipPath><clipPath id="clip-path-60"><rect class="cls-1" x="604.5" y="342.9" width="134.19" height="175.62"/></clipPath><clipPath id="clip-path-64"><rect class="cls-1" x="571.79" y="136.51" width="119.09" height="99.07"/></clipPath></defs><title>mat</title><g class="cls-2"><g class="cls-2"><line class="cls-3" x1="514.64" y1="26.86" x2="514.64" y2="595.1"/><path class="cls-4" d="M514.64,599.13h0m0-580.33h0"/><g class="cls-5"><g class="cls-6"><polyline class="cls-7" points="302.82 480.24 346.61 480.24 346.61 319.74 303.37 287.38"/></g></g></g><polyline class="cls-8" points="302.82 480.24 346.61 480.24 346.61 319.74 303.37 287.38"/><g class="cls-2"><g class="cls-9"><g class="cls-10"><polyline class="cls-7" points="303.37 287.38 259.96 319.74 259.96 480.24 302.82 480.24"/></g></g></g><polyline class="cls-8" points="303.37 287.38 259.96 319.74 259.96 480.24 302.82 480.24"/><g class="cls-2"><g class="cls-11"><g class="cls-12"><polyline class="cls-7" points="345.84 479.47 303.37 448.06 260.44 479.47"/></g></g></g><line class="cls-13" x1="341.59" y1="476.32" x2="306.41" y2="450.3"/><line class="cls-14" x1="299.08" y1="451.2" x2="263.5" y2="477.22"/><path class="cls-15" d="M262.27,478.12l-1.83,1.35m44.75-30.07-1.82-1.34-1.84,1.34m44.31,30.07L344,478.12"/><line class="cls-17" x1="303.37" y1="448.43" x2="303.37" y2="288.33"/><line class="cls-18" x1="260.44" y1="319.94" x2="345.84" y2="319.94"/><path class="cls-19" d="M354.32,171.68h25.42v25.43H354.32Zm-25.43,0h25.43v25.43H328.89Zm-25.42,0h25.42v25.43H303.47Zm-25.43,0h25.42v25.43H278Zm-25.43,0H278v25.43H252.61Zm-25.42,0h25.42v25.43H227.19Zm127.13-25.43h25.42v25.43H354.32Zm-25.43,0h25.43v25.43H328.89Zm-25.42,0h25.42v25.43H303.47Zm-25.43,0h25.42v25.43H278Zm-25.43,0H278v25.43H252.61Zm-25.42,0h25.42v25.43H227.19Zm127.13-25.42h25.42v25.42H354.32Zm-25.43,0h25.43v25.42H328.89Zm-25.42,0h25.42v25.42H303.47Zm-25.43,0h25.42v25.42H278Zm-25.43,0H278v25.42H252.61Zm-25.42,0h25.42v25.42H227.19ZM354.32,95.4h25.42v25.43H354.32Zm-25.43,0h25.43v25.43H328.89Zm-25.42,0h25.42v25.43H303.47ZM278,95.4h25.42v25.43H278Zm-25.43,0H278v25.43H252.61Zm-25.42,0h25.42v25.43H227.19ZM354.32,70h25.42V95.4H354.32Zm-25.43,0h25.43V95.4H328.89Zm-25.42,0h25.42V95.4H303.47ZM278,70h25.42V95.4H278Zm-25.43,0H278V95.4H252.61Zm-25.42,0h25.42V95.4H227.19Z"/><line class="cls-20" x1="226.69" y1="69.98" x2="252.61" y2="69.98"/><line class="cls-20" x1="227.19" y1="94.9" x2="227.19" y2="70.48"/><line class="cls-20" x1="252.61" y1="69.98" x2="278.04" y2="69.98"/><line class="cls-20" x1="252.61" y1="94.9" x2="252.61" y2="70.48"/><line class="cls-20" x1="278.04" y1="69.98" x2="303.47" y2="69.98"/><line class="cls-20" x1="278.04" y1="94.9" x2="278.04" y2="70.48"/><line class="cls-20" x1="303.47" y1="69.98" x2="328.89" y2="69.98"/><line class="cls-20" x1="303.47" y1="94.9" x2="303.47" y2="70.48"/><line class="cls-20" x1="328.89" y1="69.98" x2="354.32" y2="69.98"/><line class="cls-20" x1="328.89" y1="94.9" x2="328.89" y2="70.48"/><line class="cls-20" x1="354.32" y1="69.98" x2="380.24" y2="69.98"/><line class="cls-20" x1="354.32" y1="94.9" x2="354.32" y2="70.48"/><line class="cls-20" x1="379.74" y1="94.9" x2="379.74" y2="70.48"/><line class="cls-20" x1="226.69" y1="95.4" x2="252.61" y2="95.4"/><line class="cls-20" x1="227.19" y1="120.33" x2="227.19" y2="95.9"/><line class="cls-20" x1="252.61" y1="95.4" x2="278.04" y2="95.4"/><line class="cls-20" x1="252.61" y1="120.33" x2="252.61" y2="95.9"/><line class="cls-20" x1="278.04" y1="95.4" x2="303.47" y2="95.4"/><line class="cls-20" x1="278.04" y1="120.33" x2="278.04" y2="95.9"/><line class="cls-20" x1="303.47" y1="95.4" x2="328.89" y2="95.4"/><line class="cls-20" x1="303.47" y1="120.33" x2="303.47" y2="95.9"/><line class="cls-20" x1="328.89" y1="95.4" x2="354.32" y2="95.4"/><line class="cls-20" x1="328.89" y1="120.33" x2="328.89" y2="95.9"/><line class="cls-20" x1="354.32" y1="95.4" x2="380.24" y2="95.4"/><line class="cls-20" x1="354.32" y1="120.33" x2="354.32" y2="95.9"/><line class="cls-20" x1="379.74" y1="120.33" x2="379.74" y2="95.9"/><line class="cls-20" x1="226.69" y1="120.83" x2="252.61" y2="120.83"/><line class="cls-20" x1="227.19" y1="145.75" x2="227.19" y2="121.33"/><line class="cls-20" x1="252.61" y1="120.83" x2="278.04" y2="120.83"/><line class="cls-20" x1="252.61" y1="145.75" x2="252.61" y2="121.33"/><line class="cls-20" x1="278.04" y1="120.83" x2="303.47" y2="120.83"/><line class="cls-20" x1="278.04" y1="145.75" x2="278.04" y2="121.33"/><line class="cls-20" x1="303.47" y1="120.83" x2="328.89" y2="120.83"/><line class="cls-20" x1="303.47" y1="145.75" x2="303.47" y2="121.33"/><line class="cls-20" x1="328.89" y1="120.83" x2="354.32" y2="120.83"/><line class="cls-20" x1="328.89" y1="145.75" x2="328.89" y2="121.33"/><line class="cls-20" x1="354.32" y1="120.83" x2="380.24" y2="120.83"/><line class="cls-20" x1="354.32" y1="145.75" x2="354.32" y2="121.33"/><line class="cls-20" x1="379.74" y1="145.75" x2="379.74" y2="121.33"/><line class="cls-20" x1="226.69" y1="146.26" x2="252.61" y2="146.26"/><line class="cls-20" x1="227.19" y1="171.18" x2="227.19" y2="146.76"/><line class="cls-20" x1="252.61" y1="146.26" x2="278.04" y2="146.26"/><line class="cls-20" x1="252.61" y1="171.18" x2="252.61" y2="146.76"/><line class="cls-20" x1="278.04" y1="146.26" x2="303.47" y2="146.26"/><line class="cls-20" x1="278.04" y1="171.18" x2="278.04" y2="146.76"/><line class="cls-20" x1="303.47" y1="146.26" x2="328.89" y2="146.26"/><line class="cls-20" x1="303.47" y1="171.18" x2="303.47" y2="146.76"/><line class="cls-20" x1="328.89" y1="146.26" x2="354.32" y2="146.26"/><line class="cls-20" x1="328.89" y1="171.18" x2="328.89" y2="146.76"/><line class="cls-20" x1="354.32" y1="146.26" x2="380.24" y2="146.26"/><line class="cls-20" x1="354.32" y1="171.18" x2="354.32" y2="146.76"/><line class="cls-20" x1="379.74" y1="171.18" x2="379.74" y2="146.76"/><line class="cls-20" x1="226.69" y1="171.68" x2="252.61" y2="171.68"/><line class="cls-20" x1="227.19" y1="196.61" x2="227.19" y2="172.18"/><line class="cls-20" x1="252.61" y1="171.68" x2="278.04" y2="171.68"/><line class="cls-20" x1="252.61" y1="196.61" x2="252.61" y2="172.18"/><line class="cls-20" x1="278.04" y1="171.68" x2="303.47" y2="171.68"/><line class="cls-20" x1="278.04" y1="196.61" x2="278.04" y2="172.18"/><line class="cls-20" x1="303.47" y1="171.68" x2="328.89" y2="171.68"/><line class="cls-20" x1="303.47" y1="196.61" x2="303.47" y2="172.18"/><line class="cls-20" x1="328.89" y1="171.68" x2="354.32" y2="171.68"/><line class="cls-20" x1="328.89" y1="196.61" x2="328.89" y2="172.18"/><line class="cls-20" x1="354.32" y1="171.68" x2="380.24" y2="171.68"/><line class="cls-20" x1="354.32" y1="196.61" x2="354.32" y2="172.18"/><line class="cls-20" x1="379.74" y1="196.61" x2="379.74" y2="172.18"/><line class="cls-20" x1="226.69" y1="197.11" x2="252.61" y2="197.11"/><line class="cls-20" x1="252.61" y1="197.11" x2="278.04" y2="197.11"/><line class="cls-20" x1="278.04" y1="197.11" x2="303.47" y2="197.11"/><line class="cls-20" x1="303.47" y1="197.11" x2="328.89" y2="197.11"/><line class="cls-20" x1="328.89" y1="197.11" x2="354.32" y2="197.11"/><line class="cls-20" x1="354.32" y1="197.11" x2="380.24" y2="197.11"/><g class="cls-2"><g class="cls-21"><g class="cls-22"><polygon class="cls-7" points="303.33 94.9 251.66 171.54 354.27 171.45 303.33 94.9"/></g></g></g><polygon class="cls-8" points="303.33 94.9 251.66 171.54 354.27 171.45 303.33 94.9"/><path class="cls-19" d="M452.43,447.62h25.42V473H452.43Zm-25.43,0h25.43V473H427Zm-25.43,0H427V473H401.57Zm-25.42,0h25.42V473H376.15Zm76.28-25.43h25.42v25.43H452.43Zm-25.43,0h25.43v25.43H427Zm-25.43,0H427v25.43H401.57Zm-25.42,0h25.42v25.43H376.15Zm76.28-25.42h25.42v25.42H452.43Zm-25.43,0h25.43v25.42H427Zm-25.43,0H427v25.42H401.57Zm-25.42,0h25.42v25.42H376.15Zm76.28-25.43h25.42v25.43H452.43Zm-25.43,0h25.43v25.43H427Zm-25.43,0H427v25.43H401.57Zm-25.42,0h25.42v25.43H376.15Zm76.28-25.42h25.42v25.42H452.43Zm-25.43,0h25.43v25.42H427Zm-25.43,0H427v25.42H401.57Zm-25.42,0h25.42v25.42H376.15Zm76.28-25.43h25.42v25.42H452.43Zm-25.43,0h25.43v25.42H427Zm-25.43,0H427v25.42H401.57Zm-25.42,0h25.42v25.42H376.15Zm76.28-25.43h25.42v25.43H452.43Zm-25.43,0h25.43v25.43H427Zm-25.43,0H427v25.43H401.57Zm-25.42,0h25.42v25.43H376.15Z"/><line class="cls-20" x1="375.65" y1="295.06" x2="401.57" y2="295.06"/><line class="cls-20" x1="376.15" y1="319.99" x2="376.15" y2="295.56"/><line class="cls-20" x1="401.57" y1="295.06" x2="427" y2="295.06"/><line class="cls-20" x1="401.57" y1="319.99" x2="401.57" y2="295.56"/><line class="cls-20" x1="427" y1="295.06" x2="452.43" y2="295.06"/><line class="cls-20" x1="427" y1="319.99" x2="427" y2="295.56"/><line class="cls-20" x1="452.43" y1="295.06" x2="478.35" y2="295.06"/><line class="cls-20" x1="452.43" y1="319.99" x2="452.43" y2="295.56"/><line class="cls-20" x1="477.85" y1="319.99" x2="477.85" y2="295.56"/><line class="cls-20" x1="375.65" y1="320.49" x2="401.57" y2="320.49"/><line class="cls-20" x1="376.15" y1="345.41" x2="376.15" y2="320.99"/><line class="cls-20" x1="401.57" y1="320.49" x2="427" y2="320.49"/><line class="cls-20" x1="401.57" y1="345.41" x2="401.57" y2="320.99"/><line class="cls-20" x1="427" y1="320.49" x2="452.43" y2="320.49"/><line class="cls-20" x1="427" y1="345.41" x2="427" y2="320.99"/><line class="cls-20" x1="452.43" y1="320.49" x2="478.35" y2="320.49"/><line class="cls-20" x1="452.43" y1="345.41" x2="452.43" y2="320.99"/><line class="cls-20" x1="477.85" y1="345.41" x2="477.85" y2="320.99"/><line class="cls-20" x1="375.65" y1="345.91" x2="401.57" y2="345.91"/><line class="cls-20" x1="376.15" y1="370.84" x2="376.15" y2="346.42"/><line class="cls-20" x1="401.57" y1="345.91" x2="427" y2="345.91"/><line class="cls-20" x1="401.57" y1="370.84" x2="401.57" y2="346.42"/><line class="cls-20" x1="427" y1="345.91" x2="452.43" y2="345.91"/><line class="cls-20" x1="427" y1="370.84" x2="427" y2="346.42"/><line class="cls-20" x1="452.43" y1="345.91" x2="478.35" y2="345.91"/><line class="cls-20" x1="452.43" y1="370.84" x2="452.43" y2="346.42"/><line class="cls-20" x1="477.85" y1="370.84" x2="477.85" y2="346.42"/><line class="cls-20" x1="375.65" y1="371.34" x2="401.57" y2="371.34"/><line class="cls-20" x1="376.15" y1="396.27" x2="376.15" y2="371.84"/><line class="cls-20" x1="401.57" y1="371.34" x2="427" y2="371.34"/><line class="cls-20" x1="401.57" y1="396.27" x2="401.57" y2="371.84"/><line class="cls-20" x1="427" y1="371.34" x2="452.43" y2="371.34"/><line class="cls-20" x1="427" y1="396.27" x2="427" y2="371.84"/><line class="cls-20" x1="452.43" y1="371.34" x2="478.35" y2="371.34"/><line class="cls-20" x1="452.43" y1="396.27" x2="452.43" y2="371.84"/><line class="cls-20" x1="477.85" y1="396.27" x2="477.85" y2="371.84"/><line class="cls-20" x1="375.65" y1="396.77" x2="401.57" y2="396.77"/><line class="cls-20" x1="376.15" y1="421.69" x2="376.15" y2="397.27"/><line class="cls-20" x1="401.57" y1="396.77" x2="427" y2="396.77"/><line class="cls-20" x1="401.57" y1="421.69" x2="401.57" y2="397.27"/><line class="cls-20" x1="427" y1="396.77" x2="452.43" y2="396.77"/><line class="cls-20" x1="427" y1="421.69" x2="427" y2="397.27"/><line class="cls-20" x1="452.43" y1="396.77" x2="478.35" y2="396.77"/><line class="cls-20" x1="452.43" y1="421.69" x2="452.43" y2="397.27"/><line class="cls-20" x1="477.85" y1="421.69" x2="477.85" y2="397.27"/><line class="cls-20" x1="375.65" y1="422.19" x2="401.57" y2="422.19"/><line class="cls-20" x1="376.15" y1="447.12" x2="376.15" y2="422.69"/><line class="cls-20" x1="401.57" y1="422.19" x2="427" y2="422.19"/><line class="cls-20" x1="401.57" y1="447.12" x2="401.57" y2="422.69"/><line class="cls-20" x1="427" y1="422.19" x2="452.43" y2="422.19"/><line class="cls-20" x1="427" y1="447.12" x2="427" y2="422.69"/><line class="cls-20" x1="452.43" y1="422.19" x2="478.35" y2="422.19"/><line class="cls-20" x1="452.43" y1="447.12" x2="452.43" y2="422.69"/><line class="cls-20" x1="477.85" y1="447.12" x2="477.85" y2="422.69"/><line class="cls-20" x1="375.65" y1="447.62" x2="401.57" y2="447.62"/><line class="cls-20" x1="376.15" y1="472.55" x2="376.15" y2="448.12"/><line class="cls-20" x1="401.57" y1="447.62" x2="427" y2="447.62"/><line class="cls-20" x1="401.57" y1="472.55" x2="401.57" y2="448.12"/><line class="cls-20" x1="427" y1="447.62" x2="452.43" y2="447.62"/><line class="cls-20" x1="427" y1="472.55" x2="427" y2="448.12"/><line class="cls-20" x1="452.43" y1="447.62" x2="478.35" y2="447.62"/><line class="cls-20" x1="452.43" y1="472.55" x2="452.43" y2="448.12"/><line class="cls-20" x1="477.85" y1="472.55" x2="477.85" y2="448.12"/><line class="cls-20" x1="375.65" y1="473.05" x2="401.57" y2="473.05"/><line class="cls-20" x1="401.57" y1="473.05" x2="427" y2="473.05"/><line class="cls-20" x1="427" y1="473.05" x2="452.43" y2="473.05"/><line class="cls-20" x1="452.43" y1="473.05" x2="478.35" y2="473.05"/><g class="cls-2"><g class="cls-21"><g class="cls-23"><rect class="cls-7" x="401.56" y="320.9" width="50.05" height="126.76"/></g></g></g><rect class="cls-8" x="401.56" y="320.9" width="50.05" height="126.76"/><path class="cls-19" d="M26.3,422.19v0Zm25.43,0v0Zm25.43,0v0ZM26.3,396.77v0Zm25.43,0v0Zm25.43,0v0ZM26.3,371.34v0Zm25.43,0v0Zm25.43,0v0ZM26.3,345.91v0Zm25.43,0v0Zm25.43,0v0ZM26.3,320.49v0Zm25.43,0v0Zm25.43,0v0Zm0-25.43v0H51.73v0H26.3v0H.88v178H26.3v0H51.73v0H77.16v0h25.42v-178Z"/><g class="cls-2"><line class="cls-20" x1="0.38" y1="295.06" x2="26.3" y2="295.06"/><line class="cls-20" x1="0.88" y1="319.99" x2="0.88" y2="295.56"/></g><line class="cls-20" x1="26.3" y1="295.06" x2="51.73" y2="295.06"/><line class="cls-20" x1="26.3" y1="319.99" x2="26.3" y2="295.56"/><line class="cls-20" x1="51.73" y1="295.06" x2="77.15" y2="295.06"/><line class="cls-20" x1="51.73" y1="319.99" x2="51.73" y2="295.56"/><line class="cls-20" x1="77.15" y1="295.06" x2="103.08" y2="295.06"/><line class="cls-20" x1="77.15" y1="319.99" x2="77.15" y2="295.56"/><line class="cls-20" x1="102.58" y1="319.99" x2="102.58" y2="295.56"/><g class="cls-2"><line class="cls-20" x1="0.38" y1="320.49" x2="26.3" y2="320.49"/><line class="cls-20" x1="0.88" y1="345.41" x2="0.88" y2="320.99"/></g><line class="cls-20" x1="26.3" y1="320.49" x2="51.73" y2="320.49"/><line class="cls-20" x1="26.3" y1="345.41" x2="26.3" y2="320.99"/><line class="cls-20" x1="51.73" y1="320.49" x2="77.15" y2="320.49"/><line class="cls-20" x1="51.73" y1="345.41" x2="51.73" y2="320.99"/><line class="cls-20" x1="77.15" y1="320.49" x2="103.08" y2="320.49"/><line class="cls-20" x1="77.15" y1="345.41" x2="77.15" y2="320.99"/><line class="cls-20" x1="102.58" y1="345.41" x2="102.58" y2="320.99"/><g class="cls-2"><line class="cls-20" x1="0.38" y1="345.91" x2="26.3" y2="345.91"/><line class="cls-20" x1="0.88" y1="370.84" x2="0.88" y2="346.42"/></g><line class="cls-20" x1="26.3" y1="345.91" x2="51.73" y2="345.91"/><line class="cls-20" x1="26.3" y1="370.84" x2="26.3" y2="346.42"/><line class="cls-20" x1="51.73" y1="345.91" x2="77.15" y2="345.91"/><line class="cls-20" x1="51.73" y1="370.84" x2="51.73" y2="346.42"/><line class="cls-20" x1="77.15" y1="345.91" x2="103.08" y2="345.91"/><line class="cls-20" x1="77.15" y1="370.84" x2="77.15" y2="346.42"/><line class="cls-20" x1="102.58" y1="370.84" x2="102.58" y2="346.42"/><g class="cls-2"><line class="cls-20" x1="0.38" y1="371.34" x2="26.3" y2="371.34"/><line class="cls-20" x1="0.88" y1="396.27" x2="0.88" y2="371.84"/></g><line class="cls-20" x1="26.3" y1="371.34" x2="51.73" y2="371.34"/><line class="cls-20" x1="26.3" y1="396.27" x2="26.3" y2="371.84"/><line class="cls-20" x1="51.73" y1="371.34" x2="77.15" y2="371.34"/><line class="cls-20" x1="51.73" y1="396.27" x2="51.73" y2="371.84"/><line class="cls-20" x1="77.15" y1="371.34" x2="103.08" y2="371.34"/><line class="cls-20" x1="77.15" y1="396.27" x2="77.15" y2="371.84"/><line class="cls-20" x1="102.58" y1="396.27" x2="102.58" y2="371.84"/><g class="cls-2"><line class="cls-20" x1="0.38" y1="396.77" x2="26.3" y2="396.77"/><line class="cls-20" x1="0.88" y1="421.69" x2="0.88" y2="397.27"/></g><line class="cls-20" x1="26.3" y1="396.77" x2="51.73" y2="396.77"/><line class="cls-20" x1="26.3" y1="421.69" x2="26.3" y2="397.27"/><line class="cls-20" x1="51.73" y1="396.77" x2="77.15" y2="396.77"/><line class="cls-20" x1="51.73" y1="421.69" x2="51.73" y2="397.27"/><line class="cls-20" x1="77.15" y1="396.77" x2="103.08" y2="396.77"/><line class="cls-20" x1="77.15" y1="421.69" x2="77.15" y2="397.27"/><line class="cls-20" x1="102.58" y1="421.69" x2="102.58" y2="397.27"/><g class="cls-2"><line class="cls-20" x1="0.38" y1="422.19" x2="26.3" y2="422.19"/><line class="cls-20" x1="0.88" y1="447.12" x2="0.88" y2="422.69"/></g><line class="cls-20" x1="26.3" y1="422.19" x2="51.73" y2="422.19"/><line class="cls-20" x1="26.3" y1="447.12" x2="26.3" y2="422.69"/><line class="cls-20" x1="51.73" y1="422.19" x2="77.15" y2="422.19"/><line class="cls-20" x1="51.73" y1="447.12" x2="51.73" y2="422.69"/><line class="cls-20" x1="77.15" y1="422.19" x2="103.08" y2="422.19"/><line class="cls-20" x1="77.15" y1="447.12" x2="77.15" y2="422.69"/><line class="cls-20" x1="102.58" y1="447.12" x2="102.58" y2="422.69"/><g class="cls-2"><line class="cls-20" x1="0.38" y1="447.62" x2="26.3" y2="447.62"/><line class="cls-20" x1="0.88" y1="472.55" x2="0.88" y2="448.12"/></g><line class="cls-20" x1="26.3" y1="447.62" x2="51.73" y2="447.62"/><line class="cls-20" x1="26.3" y1="472.55" x2="26.3" y2="448.12"/><line class="cls-20" x1="51.73" y1="447.62" x2="77.15" y2="447.62"/><line class="cls-20" x1="51.73" y1="472.55" x2="51.73" y2="448.12"/><line class="cls-20" x1="77.15" y1="447.62" x2="103.08" y2="447.62"/><line class="cls-20" x1="77.15" y1="472.55" x2="77.15" y2="448.12"/><line class="cls-20" x1="102.58" y1="472.55" x2="102.58" y2="448.12"/><g class="cls-2"><line class="cls-20" x1="0.38" y1="473.05" x2="26.3" y2="473.05"/></g><line class="cls-20" x1="26.3" y1="473.05" x2="51.73" y2="473.05"/><line class="cls-20" x1="51.73" y1="473.05" x2="77.15" y2="473.05"/><line class="cls-20" x1="77.15" y1="473.05" x2="103.08" y2="473.05"/><g class="cls-2"><g class="cls-21"><g class="cls-24"><rect class="cls-7" x="26.59" y="321.09" width="50.05" height="125.27"/></g></g></g><rect class="cls-8" x="26.59" y="321.09" width="50.05" height="125.27"/><g class="cls-2"><rect class="cls-19" x="240.92" y="209.73" width="124.73" height="31.91" rx="9.08"/></g><text class="cls-25" transform="translate(257.4 233.78)"><tspan class="cls-26">D</tspan><tspan x="17.51" y="0">e a</tspan><tspan class="cls-27" x="48.94" y="0">rr</tspan><tspan x="66.67" y="0">iba</tspan></text><g class="cls-2"><rect class="cls-28" x="240.92" y="209.73" width="124.73" height="31.91" rx="9.08"/><rect class="cls-19" x="110.12" y="367.92" width="106.57" height="31.91" rx="9.08"/></g><text class="cls-25" transform="translate(123.77 391.97)"><tspan class="cls-26">D</tspan><tspan x="17.51" y="0">e lado</tspan></text><g class="cls-2"><rect class="cls-28" x="110.12" y="367.92" width="106.57" height="31.91" rx="9.08"/><rect class="cls-19" x="241.23" y="525.29" width="124.73" height="31.91" rx="9.08"/></g><text class="cls-25" transform="translate(257 549.34)"><tspan class="cls-26">D</tspan><tspan x="17.51" y="0">e f</tspan><tspan class="cls-29" x="45.36" y="0">r</tspan><tspan x="53.91" y="0">e</tspan><tspan class="cls-30" x="66.72" y="0">n</tspan><tspan class="cls-31" x="80.7" y="0">t</tspan><tspan x="90.72" y="0">e</tspan></text><g class="cls-2"><rect class="cls-28" x="241.23" y="525.29" width="124.73" height="31.91" rx="9.08"/></g><line class="cls-32" x1="303.59" y1="489.79" x2="303.59" y2="518.05"/><polyline class="cls-32" points="313.05 499.96 303.59 489.79 294.13 499.96"/><line class="cls-32" x1="303.29" y1="279.14" x2="303.29" y2="250.88"/><polyline class="cls-32" points="312.74 268.97 303.28 279.14 293.83 268.97"/><line class="cls-32" x1="252.69" y1="383.87" x2="224.43" y2="383.87"/><polyline class="cls-32" points="242.51 374.42 252.69 383.87 242.51 393.33"/><g class="cls-2"><text class="cls-33" transform="translate(110.68 26.81)"><tspan class="cls-34">V</tspan><tspan x="20.85" y="0">istas de un p</tspan><tspan class="cls-35" x="206.98" y="0">r</tspan><tspan class="cls-36" x="219.5" y="0">isma</tspan></text></g><path class="cls-19" d="M881.29,325.41H908.9V353H881.29Zm-27.61,0h27.61V353H853.68Zm-27.62,0h27.62V353H826.06Zm-27.61,0h27.61V353H798.45Zm-27.61,0h27.61V353H770.84Zm-27.61,0h27.61V353H743.23ZM881.29,297.8H908.9v27.61H881.29Zm-27.61,0h27.61v27.61H853.68Zm-27.62,0h27.62v27.61H826.06Zm-27.61,0h27.61v27.61H798.45Zm-27.61,0h27.61v27.61H770.84Zm-27.61,0h27.61v27.61H743.23Zm138.06-27.62H908.9v27.61H881.29Zm-27.61,0h27.61v27.61H853.68Zm-27.62,0h27.62v27.61H826.06Zm-27.61,0h27.61v27.61H798.45Zm-27.61,0h27.61v27.61H770.84Zm-27.61,0h27.61v27.61H743.23Zm138.06-27.61H908.9v27.61H881.29Zm-27.61,0h27.61v27.61H853.68Zm-27.62,0h27.62v27.61H826.06Zm-27.61,0h27.61v27.61H798.45Zm-27.61,0h27.61v27.61H770.84Zm-27.61,0h27.61v27.61H743.23ZM881.29,215H908.9v27.61H881.29Zm-27.61,0h27.61v27.61H853.68Zm-27.62,0h27.62v27.61H826.06Zm-27.61,0h27.61v27.61H798.45Zm-27.61,0h27.61v27.61H770.84Zm-27.61,0h27.61v27.61H743.23Z"/><line class="cls-20" x1="742.73" y1="214.96" x2="770.84" y2="214.96"/><line class="cls-20" x1="743.23" y1="242.07" x2="743.23" y2="215.46"/><line class="cls-20" x1="770.84" y1="214.96" x2="798.45" y2="214.96"/><line class="cls-20" x1="770.84" y1="242.07" x2="770.84" y2="215.46"/><line class="cls-20" x1="798.45" y1="214.96" x2="826.06" y2="214.96"/><line class="cls-20" x1="798.45" y1="242.07" x2="798.45" y2="215.46"/><line class="cls-20" x1="826.07" y1="214.96" x2="853.68" y2="214.96"/><line class="cls-20" x1="826.07" y1="242.07" x2="826.07" y2="215.46"/><line class="cls-20" x1="853.68" y1="214.96" x2="881.29" y2="214.96"/><line class="cls-20" x1="853.68" y1="242.07" x2="853.68" y2="215.46"/><g class="cls-2"><line class="cls-20" x1="881.29" y1="214.96" x2="909.4" y2="214.96"/></g><line class="cls-20" x1="881.29" y1="242.07" x2="881.29" y2="215.46"/><g class="cls-2"><line class="cls-20" x1="908.9" y1="242.07" x2="908.9" y2="215.46"/></g><line class="cls-20" x1="742.73" y1="242.57" x2="770.84" y2="242.57"/><line class="cls-20" x1="743.23" y1="269.68" x2="743.23" y2="243.08"/><line class="cls-20" x1="770.84" y1="242.57" x2="798.45" y2="242.57"/><line class="cls-20" x1="770.84" y1="269.68" x2="770.84" y2="243.08"/><line class="cls-20" x1="798.45" y1="242.57" x2="826.06" y2="242.57"/><line class="cls-20" x1="798.45" y1="269.68" x2="798.45" y2="243.08"/><line class="cls-20" x1="826.07" y1="242.57" x2="853.68" y2="242.57"/><line class="cls-20" x1="826.07" y1="269.68" x2="826.07" y2="243.08"/><line class="cls-20" x1="853.68" y1="242.57" x2="881.29" y2="242.57"/><line class="cls-20" x1="853.68" y1="269.68" x2="853.68" y2="243.08"/><g class="cls-2"><line class="cls-20" x1="881.29" y1="242.57" x2="909.4" y2="242.57"/></g><line class="cls-20" x1="881.29" y1="269.68" x2="881.29" y2="243.08"/><g class="cls-2"><line class="cls-20" x1="908.9" y1="269.68" x2="908.9" y2="243.08"/></g><line class="cls-20" x1="742.73" y1="270.18" x2="770.84" y2="270.18"/><line class="cls-20" x1="743.23" y1="297.3" x2="743.23" y2="270.69"/><line class="cls-20" x1="770.84" y1="270.18" x2="798.45" y2="270.18"/><line class="cls-20" x1="770.84" y1="297.3" x2="770.84" y2="270.69"/><line class="cls-20" x1="798.45" y1="270.18" x2="826.06" y2="270.18"/><line class="cls-20" x1="798.45" y1="297.3" x2="798.45" y2="270.69"/><line class="cls-20" x1="826.07" y1="270.18" x2="853.68" y2="270.18"/><line class="cls-20" x1="826.07" y1="297.3" x2="826.07" y2="270.69"/><line class="cls-20" x1="853.68" y1="270.18" x2="881.29" y2="270.18"/><line class="cls-20" x1="853.68" y1="297.3" x2="853.68" y2="270.69"/><g class="cls-2"><line class="cls-20" x1="881.29" y1="270.18" x2="909.4" y2="270.18"/></g><line class="cls-20" x1="881.29" y1="297.3" x2="881.29" y2="270.69"/><g class="cls-2"><line class="cls-20" x1="908.9" y1="297.3" x2="908.9" y2="270.69"/></g><line class="cls-20" x1="742.73" y1="297.8" x2="770.84" y2="297.8"/><line class="cls-20" x1="743.23" y1="324.91" x2="743.23" y2="298.3"/><line class="cls-20" x1="770.84" y1="297.8" x2="798.45" y2="297.8"/><line class="cls-20" x1="770.84" y1="324.91" x2="770.84" y2="298.3"/><line class="cls-20" x1="798.45" y1="297.8" x2="826.06" y2="297.8"/><line class="cls-20" x1="798.45" y1="324.91" x2="798.45" y2="298.3"/><line class="cls-20" x1="826.07" y1="297.8" x2="853.68" y2="297.8"/><line class="cls-20" x1="826.07" y1="324.91" x2="826.07" y2="298.3"/><line class="cls-20" x1="853.68" y1="297.8" x2="881.29" y2="297.8"/><line class="cls-20" x1="853.68" y1="324.91" x2="853.68" y2="298.3"/><g class="cls-2"><line class="cls-20" x1="881.29" y1="297.8" x2="909.4" y2="297.8"/></g><line class="cls-20" x1="881.29" y1="324.91" x2="881.29" y2="298.3"/><g class="cls-2"><line class="cls-20" x1="908.9" y1="324.91" x2="908.9" y2="298.3"/></g><line class="cls-20" x1="742.73" y1="325.41" x2="770.84" y2="325.41"/><line class="cls-20" x1="743.23" y1="352.52" x2="743.23" y2="325.91"/><line class="cls-20" x1="770.84" y1="325.41" x2="798.45" y2="325.41"/><line class="cls-20" x1="770.84" y1="352.52" x2="770.84" y2="325.91"/><line class="cls-20" x1="798.45" y1="325.41" x2="826.06" y2="325.41"/><line class="cls-20" x1="798.45" y1="352.52" x2="798.45" y2="325.91"/><line class="cls-20" x1="826.07" y1="325.41" x2="853.68" y2="325.41"/><line class="cls-20" x1="826.07" y1="352.52" x2="826.07" y2="325.91"/><line class="cls-20" x1="853.68" y1="325.41" x2="881.29" y2="325.41"/><line class="cls-20" x1="853.68" y1="352.52" x2="853.68" y2="325.91"/><g class="cls-2"><line class="cls-20" x1="881.29" y1="325.41" x2="909.4" y2="325.41"/></g><line class="cls-20" x1="881.29" y1="352.52" x2="881.29" y2="325.91"/><g class="cls-2"><line class="cls-20" x1="908.9" y1="352.52" x2="908.9" y2="325.91"/></g><line class="cls-20" x1="742.73" y1="353.02" x2="770.84" y2="353.02"/><line class="cls-20" x1="770.84" y1="353.02" x2="798.45" y2="353.02"/><line class="cls-20" x1="798.45" y1="353.02" x2="826.06" y2="353.02"/><line class="cls-20" x1="826.07" y1="353.02" x2="853.68" y2="353.02"/><line class="cls-20" x1="853.68" y1="353.02" x2="881.29" y2="353.02"/><g class="cls-2"><line class="cls-20" x1="881.29" y1="353.02" x2="909.4" y2="353.02"/><g class="cls-16"><g class="cls-37"><polygon class="cls-38" points="825.96 242.07 769.85 324.91 881.28 325.2 825.96 242.07"/></g></g></g><polygon class="cls-8" points="825.96 242.07 769.85 324.91 881.28 325.2 825.96 242.07"/><g class="cls-2"><rect class="cls-19" x="770.04" y="172.27" width="106.57" height="31.91" rx="9.08"/></g><text class="cls-25" transform="translate(783.69 196.32)"><tspan class="cls-26">D</tspan><tspan x="17.51" y="0">e lado</tspan></text><g class="cls-2"><rect class="cls-28" x="770.04" y="172.27" width="106.57" height="31.91" rx="9.08"/></g><path class="cls-19" d="M881.29,528.89H908.9V556.5H881.29Zm-27.61,0h27.61V556.5H853.68Zm-27.62,0h27.62V556.5H826.06Zm-27.61,0h27.61V556.5H798.45Zm-27.61,0h27.61V556.5H770.84Zm-27.61,0h27.61V556.5H743.23Zm138.06-27.61H908.9v27.61H881.29Zm-27.61,0h27.61v27.61H853.68Zm-27.62,0h27.62v27.61H826.06Zm-27.61,0h27.61v27.61H798.45Zm-27.61,0h27.61v27.61H770.84Zm-27.61,0h27.61v27.61H743.23Zm138.06-27.61H908.9v27.61H881.29Zm-27.61,0h27.61v27.61H853.68Zm-27.62,0h27.62v27.61H826.06Zm-27.61,0h27.61v27.61H798.45Zm-27.61,0h27.61v27.61H770.84Zm-27.61,0h27.61v27.61H743.23Zm138.06-27.61H908.9v27.61H881.29Zm-27.61,0h27.61v27.61H853.68Zm-27.62,0h27.62v27.61H826.06Zm-27.61,0h27.61v27.61H798.45Zm-27.61,0h27.61v27.61H770.84Zm-27.61,0h27.61v27.61H743.23Zm138.06-27.62H908.9v27.62H881.29Zm-27.61,0h27.61v27.62H853.68Zm-27.62,0h27.62v27.62H826.06Zm-27.61,0h27.61v27.62H798.45Zm-27.61,0h27.61v27.62H770.84Zm-27.61,0h27.61v27.62H743.23Z"/><line class="cls-20" x1="742.73" y1="418.45" x2="770.84" y2="418.45"/><line class="cls-20" x1="743.23" y1="445.56" x2="743.23" y2="418.95"/><line class="cls-20" x1="770.84" y1="418.45" x2="798.45" y2="418.45"/><line class="cls-20" x1="770.84" y1="445.56" x2="770.84" y2="418.95"/><line class="cls-20" x1="798.45" y1="418.45" x2="826.06" y2="418.45"/><line class="cls-20" x1="798.45" y1="445.56" x2="798.45" y2="418.95"/><line class="cls-20" x1="826.07" y1="418.45" x2="853.68" y2="418.45"/><line class="cls-20" x1="826.07" y1="445.56" x2="826.07" y2="418.95"/><line class="cls-20" x1="853.68" y1="418.45" x2="881.29" y2="418.45"/><line class="cls-20" x1="853.68" y1="445.56" x2="853.68" y2="418.95"/><g class="cls-2"><line class="cls-20" x1="881.29" y1="418.45" x2="909.4" y2="418.45"/></g><line class="cls-20" x1="881.29" y1="445.56" x2="881.29" y2="418.95"/><g class="cls-2"><line class="cls-20" x1="908.9" y1="445.56" x2="908.9" y2="418.95"/></g><line class="cls-20" x1="742.73" y1="446.06" x2="770.84" y2="446.06"/><line class="cls-20" x1="743.23" y1="473.17" x2="743.23" y2="446.56"/><line class="cls-20" x1="770.84" y1="446.06" x2="798.45" y2="446.06"/><line class="cls-20" x1="770.84" y1="473.17" x2="770.84" y2="446.56"/><line class="cls-20" x1="798.45" y1="446.06" x2="826.06" y2="446.06"/><line class="cls-20" x1="798.45" y1="473.17" x2="798.45" y2="446.56"/><line class="cls-20" x1="826.07" y1="446.06" x2="853.68" y2="446.06"/><line class="cls-20" x1="826.07" y1="473.17" x2="826.07" y2="446.56"/><line class="cls-20" x1="853.68" y1="446.06" x2="881.29" y2="446.06"/><line class="cls-20" x1="853.68" y1="473.17" x2="853.68" y2="446.56"/><g class="cls-2"><line class="cls-20" x1="881.29" y1="446.06" x2="909.4" y2="446.06"/></g><line class="cls-20" x1="881.29" y1="473.17" x2="881.29" y2="446.56"/><g class="cls-2"><line class="cls-20" x1="908.9" y1="473.17" x2="908.9" y2="446.56"/></g><line class="cls-20" x1="742.73" y1="473.67" x2="770.84" y2="473.67"/><line class="cls-20" x1="743.23" y1="500.78" x2="743.23" y2="474.17"/><line class="cls-20" x1="770.84" y1="473.67" x2="798.45" y2="473.67"/><line class="cls-20" x1="770.84" y1="500.78" x2="770.84" y2="474.17"/><line class="cls-20" x1="798.45" y1="473.67" x2="826.06" y2="473.67"/><line class="cls-20" x1="798.45" y1="500.78" x2="798.45" y2="474.17"/><line class="cls-20" x1="826.07" y1="473.67" x2="853.68" y2="473.67"/><line class="cls-20" x1="826.07" y1="500.78" x2="826.07" y2="474.17"/><line class="cls-20" x1="853.68" y1="473.67" x2="881.29" y2="473.67"/><line class="cls-20" x1="853.68" y1="500.78" x2="853.68" y2="474.17"/><g class="cls-2"><line class="cls-20" x1="881.29" y1="473.67" x2="909.4" y2="473.67"/></g><line class="cls-20" x1="881.29" y1="500.78" x2="881.29" y2="474.17"/><g class="cls-2"><line class="cls-20" x1="908.9" y1="500.78" x2="908.9" y2="474.17"/></g><line class="cls-20" x1="742.73" y1="501.28" x2="770.84" y2="501.28"/><line class="cls-20" x1="743.23" y1="528.39" x2="743.23" y2="501.78"/><line class="cls-20" x1="770.84" y1="501.28" x2="798.45" y2="501.28"/><line class="cls-20" x1="770.84" y1="528.39" x2="770.84" y2="501.78"/><line class="cls-20" x1="798.45" y1="501.28" x2="826.06" y2="501.28"/><line class="cls-20" x1="798.45" y1="528.39" x2="798.45" y2="501.78"/><line class="cls-20" x1="826.07" y1="501.28" x2="853.68" y2="501.28"/><line class="cls-20" x1="826.07" y1="528.39" x2="826.07" y2="501.78"/><line class="cls-20" x1="853.68" y1="501.28" x2="881.29" y2="501.28"/><line class="cls-20" x1="853.68" y1="528.39" x2="853.68" y2="501.78"/><g class="cls-2"><line class="cls-20" x1="881.29" y1="501.28" x2="909.4" y2="501.28"/></g><line class="cls-20" x1="881.29" y1="528.39" x2="881.29" y2="501.78"/><g class="cls-2"><line class="cls-20" x1="908.9" y1="528.39" x2="908.9" y2="501.78"/></g><line class="cls-20" x1="742.73" y1="528.89" x2="770.84" y2="528.89"/><line class="cls-20" x1="743.23" y1="556" x2="743.23" y2="529.39"/><line class="cls-20" x1="770.84" y1="528.89" x2="798.45" y2="528.89"/><line class="cls-20" x1="770.84" y1="556" x2="770.84" y2="529.39"/><line class="cls-20" x1="798.45" y1="528.89" x2="826.06" y2="528.89"/><line class="cls-20" x1="798.45" y1="556" x2="798.45" y2="529.39"/><line class="cls-20" x1="826.07" y1="528.89" x2="853.68" y2="528.89"/><line class="cls-20" x1="826.07" y1="556" x2="826.07" y2="529.39"/><line class="cls-20" x1="853.68" y1="528.89" x2="881.29" y2="528.89"/><line class="cls-20" x1="853.68" y1="556" x2="853.68" y2="529.39"/><g class="cls-2"><line class="cls-20" x1="881.29" y1="528.89" x2="909.4" y2="528.89"/></g><line class="cls-20" x1="881.29" y1="556" x2="881.29" y2="529.39"/><g class="cls-2"><line class="cls-20" x1="908.9" y1="556" x2="908.9" y2="529.39"/></g><line class="cls-20" x1="742.73" y1="556.5" x2="770.84" y2="556.5"/><line class="cls-20" x1="770.84" y1="556.5" x2="798.45" y2="556.5"/><line class="cls-20" x1="798.45" y1="556.5" x2="826.06" y2="556.5"/><line class="cls-20" x1="826.07" y1="556.5" x2="853.68" y2="556.5"/><line class="cls-20" x1="853.68" y1="556.5" x2="881.29" y2="556.5"/><g class="cls-2"><line class="cls-20" x1="881.29" y1="556.5" x2="909.4" y2="556.5"/><g class="cls-16"><g class="cls-39"><polygon class="cls-38" points="826.97 445.56 769.85 528.39 881.28 528.68 826.97 445.56"/></g></g></g><polygon class="cls-8" points="826.97 445.56 769.85 528.39 881.28 528.68 826.97 445.56"/><g class="cls-2"><rect class="cls-19" x="763.23" y="376.33" width="124.73" height="31.91" rx="9.08"/></g><text class="cls-25" transform="translate(779.01 400.38)"><tspan class="cls-26">D</tspan><tspan x="17.51" y="0">e f</tspan><tspan class="cls-40" x="45.36" y="0">r</tspan><tspan x="53.94" y="0">e</tspan><tspan class="cls-41" x="66.74" y="0">n</tspan><tspan class="cls-31" x="80.7" y="0">t</tspan><tspan x="90.72" y="0">e</tspan></text><g class="cls-2"><rect class="cls-28" x="763.23" y="376.33" width="124.73" height="31.91" rx="9.08"/></g><line class="cls-42" x1="556.4" y1="492.93" x2="610.1" y2="460.51"/><line class="cls-43" x1="612.95" y1="455.76" x2="633.12" y2="362.32"/><path class="cls-44" d="M633.34,361.33l.32-1.49M610.93,460l1.27-.76.32-1.49M553.46,494.7l1.27-.76"/><line class="cls-45" x1="710.41" y1="466.65" x2="612.8" y2="459.83"/><g class="cls-2"><g class="cls-16"><g class="cls-46"><polygon class="cls-38" points="634.11 358.84 551.63 496.02 658.55 509.8 634.11 358.84"/></g></g></g><polygon class="cls-47" points="634.11 358.84 551.63 496.02 658.55 509.8 634.11 358.84"/><g class="cls-2"><g class="cls-21"><g class="cls-48"><polygon class="cls-38" points="634.11 358.84 658.55 509.8 711.19 466.71 634.11 358.84"/></g></g></g><polygon class="cls-8" points="634.11 358.84 658.55 509.8 711.19 466.71 634.11 358.84"/><polygon class="cls-8" points="634.11 358.65 551.41 496.31 658.59 510.13 711.37 466.92 634.11 358.65"/><line class="cls-8" x1="634.17" y1="359.14" x2="658.31" y2="509.26"/><g class="cls-2"><rect class="cls-19" x="568.88" y="280.18" width="124.73" height="31.91" rx="9.08"/></g><text class="cls-25" transform="translate(585.36 304.23)"><tspan class="cls-26">D</tspan><tspan x="17.51" y="0">e a</tspan><tspan class="cls-27" x="48.94" y="0">r</tspan><tspan class="cls-26" x="57.81" y="0">r</tspan><tspan x="66.7" y="0">iba</tspan></text><g class="cls-2"><rect class="cls-28" x="568.88" y="280.18" width="124.73" height="31.91" rx="9.08"/></g><line class="cls-32" x1="631.25" y1="350.1" x2="631.25" y2="321.84"/><polyline class="cls-32" points="640.7 339.93 631.24 350.1 621.79 339.93"/><text class="cls-25" transform="translate(591.7 87.5)"><tspan class="cls-49">C</tspan><tspan x="14.54" y="0">úspide</tspan></text><path class="cls-19" d="M672.66,233.77h27.61v27.61H672.66Zm-27.61,0h27.61v27.61H645.05Zm-27.61,0h27.61v27.61H617.44Zm-27.61,0h27.61v27.61H589.83Zm-27.61,0h27.61v27.61H562.22Zm110.44-27.61h27.61v27.61H672.66Zm-27.61,0h27.61v27.61H645.05Zm-27.61,0h27.61v27.61H617.44Zm-27.61,0h27.61v27.61H589.83Zm-27.61,0h27.61v27.61H562.22Zm110.44-27.61h27.61v27.61H672.66Zm-27.61,0h27.61v27.61H645.05Zm-27.61,0h27.61v27.61H617.44Zm-27.61,0h27.61v27.61H589.83Zm-27.61,0h27.61v27.61H562.22Zm110.44-27.61h27.61v27.61H672.66Zm-27.61,0h27.61v27.61H645.05Zm-27.61,0h27.61v27.61H617.44Zm-27.61,0h27.61v27.61H589.83Zm-27.61,0h27.61v27.61H562.22Zm110.44-27.61h27.61v27.61H672.66Zm-27.61,0h27.61v27.61H645.05Zm-27.61,0h27.61v27.61H617.44Zm-27.61,0h27.61v27.61H589.83Zm-27.61,0h27.61v27.61H562.22Z"/><line class="cls-20" x1="561.72" y1="123.33" x2="589.83" y2="123.33"/><line class="cls-20" x1="562.22" y1="150.44" x2="562.22" y2="123.83"/><line class="cls-20" x1="589.83" y1="123.33" x2="617.44" y2="123.33"/><line class="cls-20" x1="589.83" y1="150.44" x2="589.83" y2="123.83"/><line class="cls-20" x1="617.44" y1="123.33" x2="645.05" y2="123.33"/><line class="cls-20" x1="617.44" y1="150.44" x2="617.44" y2="123.83"/><line class="cls-20" x1="645.05" y1="123.33" x2="672.66" y2="123.33"/><line class="cls-20" x1="645.05" y1="150.44" x2="645.05" y2="123.83"/><line class="cls-20" x1="672.66" y1="123.33" x2="700.77" y2="123.33"/><line class="cls-20" x1="672.66" y1="150.44" x2="672.66" y2="123.83"/><line class="cls-20" x1="700.27" y1="150.44" x2="700.27" y2="123.83"/><line class="cls-20" x1="561.72" y1="150.94" x2="589.83" y2="150.94"/><line class="cls-20" x1="562.22" y1="178.05" x2="562.22" y2="151.44"/><line class="cls-20" x1="589.83" y1="150.94" x2="617.44" y2="150.94"/><line class="cls-20" x1="589.83" y1="178.05" x2="589.83" y2="151.44"/><line class="cls-20" x1="617.44" y1="150.94" x2="645.05" y2="150.94"/><line class="cls-20" x1="617.44" y1="178.05" x2="617.44" y2="151.44"/><line class="cls-20" x1="645.05" y1="150.94" x2="672.66" y2="150.94"/><line class="cls-20" x1="645.05" y1="178.05" x2="645.05" y2="151.44"/><line class="cls-20" x1="672.66" y1="150.94" x2="700.77" y2="150.94"/><line class="cls-20" x1="672.66" y1="178.05" x2="672.66" y2="151.44"/><line class="cls-20" x1="700.27" y1="178.05" x2="700.27" y2="151.44"/><line class="cls-20" x1="561.72" y1="178.55" x2="589.83" y2="178.55"/><line class="cls-20" x1="562.22" y1="205.66" x2="562.22" y2="179.05"/><line class="cls-20" x1="589.83" y1="178.55" x2="617.44" y2="178.55"/><line class="cls-20" x1="589.83" y1="205.66" x2="589.83" y2="179.05"/><line class="cls-20" x1="617.44" y1="178.55" x2="645.05" y2="178.55"/><line class="cls-20" x1="617.44" y1="205.66" x2="617.44" y2="179.05"/><line class="cls-20" x1="645.05" y1="178.55" x2="672.66" y2="178.55"/><line class="cls-20" x1="645.05" y1="205.66" x2="645.05" y2="179.05"/><line class="cls-20" x1="672.66" y1="178.55" x2="700.77" y2="178.55"/><line class="cls-20" x1="672.66" y1="205.66" x2="672.66" y2="179.05"/><line class="cls-20" x1="700.27" y1="205.66" x2="700.27" y2="179.05"/><line class="cls-20" x1="561.72" y1="206.16" x2="589.83" y2="206.16"/><line class="cls-20" x1="562.22" y1="233.27" x2="562.22" y2="206.66"/><line class="cls-20" x1="589.83" y1="206.16" x2="617.44" y2="206.16"/><line class="cls-20" x1="589.83" y1="233.27" x2="589.83" y2="206.66"/><line class="cls-20" x1="617.44" y1="206.16" x2="645.05" y2="206.16"/><line class="cls-20" x1="617.44" y1="233.27" x2="617.44" y2="206.66"/><line class="cls-20" x1="645.05" y1="206.16" x2="672.66" y2="206.16"/><line class="cls-20" x1="645.05" y1="233.27" x2="645.05" y2="206.66"/><line class="cls-20" x1="672.66" y1="206.16" x2="700.77" y2="206.16"/><line class="cls-20" x1="672.66" y1="233.27" x2="672.66" y2="206.66"/><line class="cls-20" x1="700.27" y1="233.27" x2="700.27" y2="206.66"/><line class="cls-20" x1="561.72" y1="233.77" x2="589.83" y2="233.77"/><line class="cls-20" x1="562.22" y1="260.88" x2="562.22" y2="234.27"/><line class="cls-20" x1="589.83" y1="233.77" x2="617.44" y2="233.77"/><line class="cls-20" x1="589.83" y1="260.88" x2="589.83" y2="234.27"/><line class="cls-20" x1="617.44" y1="233.77" x2="645.05" y2="233.77"/><line class="cls-20" x1="617.44" y1="260.88" x2="617.44" y2="234.27"/><line class="cls-20" x1="645.05" y1="233.77" x2="672.66" y2="233.77"/><line class="cls-20" x1="645.05" y1="260.88" x2="645.05" y2="234.27"/><line class="cls-20" x1="672.66" y1="233.77" x2="700.77" y2="233.77"/><line class="cls-20" x1="672.66" y1="260.88" x2="672.66" y2="234.27"/><line class="cls-20" x1="700.27" y1="260.88" x2="700.27" y2="234.27"/><line class="cls-20" x1="561.72" y1="261.38" x2="589.83" y2="261.38"/><line class="cls-20" x1="589.83" y1="261.38" x2="617.44" y2="261.38"/><line class="cls-20" x1="617.44" y1="261.38" x2="645.05" y2="261.38"/><line class="cls-20" x1="645.05" y1="261.38" x2="672.66" y2="261.38"/><line class="cls-20" x1="672.66" y1="261.38" x2="700.77" y2="261.38"/><g class="cls-2"><g class="cls-16"><g class="cls-50"><rect class="cls-38" x="590.81" y="151.53" width="81.05" height="81.05"/></g></g></g><rect class="cls-8" x="590.81" y="151.53" width="81.05" height="81.05"/><line class="cls-51" x1="591.3" y1="151.23" x2="672.16" y2="232.48"/><line class="cls-51" x1="672.16" y1="151.62" x2="591.3" y2="232.88"/><g class="cls-2"><path class="cls-52" d="M631.86,196.58a4.48,4.48,0,1,0-4.48-4.48,4.48,4.48,0,0,0,4.48,4.48"/></g><line class="cls-53" x1="631.56" y1="104.66" x2="631.56" y2="189.23"/><g class="cls-2"><text class="cls-33" transform="translate(578.86 26.81)"><tspan class="cls-34">V</tspan><tspan x="20.85" y="0">istas de una pi</tspan><tspan class="cls-54" x="232.8" y="0">r</tspan><tspan class="cls-36" x="245.07" y="0">ámide</tspan></text></g></g></svg>