<svg id="Capa_1" data-name="Capa 1" xmlns="http://www.w3.org/2000/svg" xmlns:xlink="http://www.w3.org/1999/xlink" viewBox="0 0 912.57 587.75"><defs><style>.cls-1,.cls-10,.cls-11,.cls-12,.cls-14,.cls-18,.cls-19,.cls-20,.cls-21,.cls-29,.cls-30,.cls-31,.cls-32,.cls-5,.cls-6,.cls-7,.cls-9{fill:none;}.cls-2{clip-path:url(#clip-path);}.cls-3{clip-path:url(#clip-path-2);}.cls-4{fill:#fff;}.cls-10,.cls-11,.cls-12,.cls-14,.cls-18,.cls-19,.cls-20,.cls-21,.cls-29,.cls-30,.cls-31,.cls-32,.cls-5,.cls-6,.cls-9{stroke:#29211a;}.cls-19,.cls-20,.cls-21,.cls-29,.cls-30,.cls-31,.cls-5,.cls-9{stroke-linejoin:round;}.cls-10,.cls-11,.cls-12,.cls-14,.cls-19,.cls-20,.cls-21,.cls-29,.cls-30,.cls-31,.cls-32,.cls-5,.cls-9{stroke-width:0.5px;}.cls-7{stroke:#55524e;stroke-width:2px;}.cls-8{clip-path:url(#clip-path-4);}.cls-10,.cls-11,.cls-12,.cls-14,.cls-19,.cls-20,.cls-21,.cls-29,.cls-30,.cls-31,.cls-9{stroke-linecap:round;}.cls-10{stroke-dasharray:1.48 0.98;}.cls-11{stroke-dasharray:1.47 0.97;}.cls-13{opacity:0.3;}.cls-14{stroke-dasharray:1.49 0.99;}.cls-15{clip-path:url(#clip-path-6);}.cls-16{clip-path:url(#clip-path-8);}.cls-17{opacity:0.5;}.cls-18{stroke-width:0.4px;}.cls-19{stroke-dasharray:1.5 1;}.cls-20{stroke-dasharray:1.5 1;}.cls-21{stroke-dasharray:1.53 1.03;}.cls-22{opacity:0.4;}.cls-23{opacity:0.8;}.cls-24{clip-path:url(#clip-path-10);}.cls-25{clip-path:url(#clip-path-11);}.cls-26{clip-path:url(#clip-path-12);}.cls-27{fill:#29211a;}.cls-28{clip-path:url(#clip-path-14);}.cls-29{stroke-dasharray:1.5 1;}.cls-30{stroke-dasharray:1.46 0.96;}.cls-31{stroke-dasharray:1.5 1;}</style><clipPath id="clip-path"><rect class="cls-1" width="912.57" height="587.75"/></clipPath><clipPath id="clip-path-2"><rect class="cls-1" x="376.87" y="1.05" width="534.65" height="166.26" rx="11.9"/></clipPath><clipPath id="clip-path-4"><rect class="cls-1" x="1.05" y="1.05" width="166.26" height="166.26" rx="11.9"/></clipPath><clipPath id="clip-path-6"><rect class="cls-1" x="376.87" y="210.75" width="534.65" height="166.26" rx="11.9"/></clipPath><clipPath id="clip-path-8"><rect class="cls-1" x="1.05" y="210.75" width="166.26" height="166.26" rx="11.9"/></clipPath><clipPath id="clip-path-10"><rect class="cls-1" x="376.87" y="420.45" width="534.65" height="166.26" rx="11.9"/></clipPath><clipPath id="clip-path-11"><rect class="cls-1" x="400.51" y="424.97" width="170.88" height="136.77"/></clipPath><clipPath id="clip-path-12"><rect class="cls-1" x="570.81" y="437.56" width="170.88" height="136.77"/></clipPath><clipPath id="clip-path-14"><rect class="cls-1" x="1.05" y="420.45" width="166.26" height="166.26" rx="11.9"/></clipPath></defs><title>mat</title><g class="cls-2"><g class="cls-3"><rect class="cls-4" x="463.35" y="24.92" width="70.34" height="117.93"/><rect class="cls-5" x="463.35" y="24.92" width="70.34" height="117.93"/><rect class="cls-4" x="606.13" y="24.92" width="70.34" height="117.93"/><rect class="cls-5" x="606.13" y="24.92" width="70.34" height="117.93"/><rect class="cls-4" x="746.52" y="42.76" width="100.08" height="100.08"/><rect class="cls-5" x="746.52" y="42.76" width="100.08" height="100.08"/></g><g class="cls-2"><rect class="cls-6" x="376.87" y="1.05" width="534.65" height="166.26" rx="11.9"/><path class="cls-4" d="M379.19,98.91a14.74,14.74,0,1,0-14.74-14.73,14.73,14.73,0,0,0,14.74,14.73"/><circle class="cls-7" cx="379.19" cy="84.18" r="14.74" transform="translate(-9.2 89.37) rotate(-13.28)"/></g><g class="cls-8"><polygon class="cls-4" points="126.39 17.63 11.83 93.59 131.72 155.19 126.39 17.63"/><polygon class="cls-9" points="126.39 17.63 11.83 93.59 131.72 155.19 126.39 17.63"/><polyline class="cls-4" points="12.09 93.64 93.95 81.3 131.28 154.44"/><line class="cls-10" x1="15.67" y1="93.1" x2="91.4" y2="81.68"/><line class="cls-11" x1="95.58" y1="84.49" x2="130.11" y2="152.15"/><path class="cls-12" d="M130.58,153.06l.7,1.38M92.41,81.53,94,81.3l.7,1.37m-82.56,11,1.54-.23"/><line class="cls-14" x1="126.19" y1="18.02" x2="94.09" y2="81.03"/></g><g class="cls-2"><rect class="cls-6" x="1.05" y="1.05" width="166.26" height="166.26" rx="11.9"/><path class="cls-4" d="M166.67,101.09a14.74,14.74,0,1,0-14.74-14.73,14.73,14.73,0,0,0,14.74,14.73"/><circle class="cls-7" cx="166.67" cy="86.36" r="14.74"/></g><g class="cls-15"><rect class="cls-4" x="758.42" y="247.7" width="100.08" height="100.08"/><rect class="cls-5" x="758.42" y="247.7" width="100.08" height="100.08"/><rect class="cls-4" x="603.75" y="247.7" width="100.08" height="100.08"/><rect class="cls-5" x="603.75" y="247.7" width="100.08" height="100.08"/><rect class="cls-4" x="451.45" y="247.7" width="100.08" height="100.08"/><rect class="cls-5" x="451.45" y="247.7" width="100.08" height="100.08"/></g><g class="cls-2"><rect class="cls-6" x="376.87" y="210.75" width="534.65" height="166.26" rx="11.9"/><path class="cls-4" d="M379.19,308.61a14.74,14.74,0,1,0-14.74-14.73,14.73,14.73,0,0,0,14.74,14.73"/><circle class="cls-7" cx="379.19" cy="293.88" r="14.74" transform="translate(-57.38 94.98) rotate(-13.28)"/></g><g class="cls-16"><polyline class="cls-18" points="20.64 266.33 62.96 236.71 147.6 236.71"/><line class="cls-19" x1="63.3" y1="241.22" x2="63.3" y2="318.73"/><line class="cls-20" x1="66.99" y1="321.35" x2="144.97" y2="321.35"/><path class="cls-9" d="M146,321.35h1.58m-84.3-1.58v1.58h1.58m-1.58-83.8v1.57"/><line class="cls-21" x1="21.06" y1="351.33" x2="62.96" y2="321.34"/><rect class="cls-18" x="20.64" y="266.33" width="84.64" height="84.64"/><polygon class="cls-18" points="147.6 321.35 105.28 350.97 105.28 266.33 147.6 236.71 147.6 321.35"/></g><g class="cls-2"><rect class="cls-6" x="1.05" y="210.75" width="166.26" height="166.26" rx="11.9"/><path class="cls-4" d="M166.67,310.79a14.74,14.74,0,1,0-14.74-14.73,14.74,14.74,0,0,0,14.74,14.73"/><circle class="cls-7" cx="166.67" cy="296.06" r="14.74"/></g><g class="cls-24"><g class="cls-13"><g class="cls-25"><polygon class="cls-4" points="485.89 440.18 419.92 559.08 551.98 559.11 485.89 440.18"/></g></g><polygon class="cls-9" points="485.89 440.18 419.92 559.08 551.98 559.11 485.89 440.18"/><g class="cls-13"><g class="cls-26"><polygon class="cls-4" points="656.19 559.11 590.22 440.22 722.27 440.18 656.19 559.11"/></g></g><polygon class="cls-9" points="656.19 559.11 590.22 440.22 722.27 440.18 656.19 559.11"/><polygon class="cls-4" points="817.09 438.96 749.5 558.66 884.28 559.11 817.09 438.96"/><polygon class="cls-9" points="817.09 438.96 749.5 558.66 884.28 559.11 817.09 438.96"/><polyline class="cls-4" points="749.75 558.58 817.09 510.42 883.55 558.64"/><line class="cls-10" x1="752.69" y1="556.47" x2="814.98" y2="511.92"/><line class="cls-11" x1="819.99" y1="512.53" x2="881.47" y2="557.13"/><path class="cls-12" d="M882.3,557.73l1.25.91m-67.73-47.32,1.27-.9,1.25.91m-68.6,47.25,1.27-.91"/><line class="cls-14" x1="817.09" y1="439.4" x2="817.09" y2="510.12"/><path class="cls-27" d="M816.89,516.67a5.95,5.95,0,1,0-5.95-5.95,6,6,0,0,0,5.95,5.95"/></g><g class="cls-2"><rect class="cls-6" x="376.87" y="420.45" width="534.65" height="166.26" rx="11.9"/><path class="cls-4" d="M379.19,518.31a14.74,14.74,0,1,0-14.74-14.73,14.73,14.73,0,0,0,14.74,14.73"/><circle class="cls-7" cx="379.19" cy="503.58" r="14.74" transform="translate(-105.55 100.59) rotate(-13.28)"/></g><g class="cls-28"><line class="cls-29" x1="98.01" y1="441.11" x2="98.01" y2="544.73"/><line class="cls-30" x1="94.47" y1="547.35" x2="39.74" y2="547.35"/><path class="cls-9" d="M38.74,547.35H37.21M98,545.78v1.57H96.48M98,437.45V439"/><line class="cls-31" x1="130.82" y1="570.64" x2="98.5" y2="547.58"/><polyline class="cls-18" points="131.21 459.62 98.35 436.77 37.09 436.77"/><polygon class="cls-18" points="37.18 547.34 65.42 570.3 65.42 459.81 37.18 436.86 37.18 547.34"/><rect class="cls-32" x="65.62" y="459.81" width="65.53" height="110.55"/></g><g class="cls-2"><rect class="cls-6" x="1.05" y="420.45" width="166.26" height="166.26" rx="11.9"/><path class="cls-4" d="M166.67,520.49a14.74,14.74,0,1,0-14.74-14.73,14.73,14.73,0,0,0,14.74,14.73"/><circle class="cls-7" cx="166.67" cy="505.76" r="14.74"/></g></g></svg>