<svg id="Capa_1" data-name="Capa 1" xmlns="http://www.w3.org/2000/svg" viewBox="0 0 113.18 186.15"><defs><style>.cls-1{fill:#d1e092;}.cls-2,.cls-3,.cls-4,.cls-5,.cls-6{fill:none;stroke:#29211a;stroke-linecap:round;}.cls-2,.cls-3{stroke-linejoin:round;}.cls-2,.cls-4,.cls-5,.cls-6{stroke-width:0.5px;}.cls-3{stroke-width:0.43px;}.cls-4{stroke-dasharray:1.52 1.02;}.cls-5{stroke-dasharray:1.47 0.97;}</style></defs><title>mat</title><polygon class="cls-1" points="0.32 20.34 0.32 161.05 55.97 141.46 55.97 0.74 0.32 20.34"/><polygon class="cls-1" points="0.5 160.37 21.93 185.58 91.26 185.58 112.68 160.37 56.59 141.25 0.5 160.37"/><polygon class="cls-1" points="112.86 161.05 112.86 20.34 55.97 0.74 55.97 141.46 112.86 161.05"/><polygon class="cls-1" points="0.25 20.69 21.77 46.54 91.41 46.54 112.93 20.69 0.25 20.69"/><polyline class="cls-2" points="112.93 20.69 91.41 46.54 21.77 46.54 0.25 20.69"/><line class="cls-3" x1="0.29" y1="160.63" x2="0.29" y2="19.37"/><polygon class="cls-1" points="0.25 20.01 112.93 20.01 56.59 0.25 0.25 20.01"/><polyline class="cls-2" points="0.25 20.01 56.59 0.25 112.93 20.01"/><line class="cls-4" x1="56.59" y1="141.57" x2="56.59" y2="0.22"/><polygon class="cls-1" points="0.25 160.69 112.93 160.69 56.59 140.92 0.25 160.69"/><line class="cls-5" x1="3.28" y1="159.63" x2="54.42" y2="141.68"/><line class="cls-5" x1="59.62" y1="141.98" x2="110.76" y2="159.93"/><path class="cls-6" d="M111.63,160.23l1.3.46M55.29,141.38l1.3-.46,1.31.46M.25,160.69l1.31-.46"/><line class="cls-3" x1="112.89" y1="159.7" x2="112.89" y2="20.95"/><polygon class="cls-1" points="0.25 160.06 21.77 185.9 91.41 185.9 112.93 160.06 0.25 160.06"/><polyline class="cls-2" points="112.93 160.06 91.41 185.9 21.77 185.9 0.25 160.06"/><line class="cls-2" x1="21.39" y1="184.08" x2="21.39" y2="47.22"/><line class="cls-2" x1="91.79" y1="185.14" x2="91.79" y2="46.47"/></svg>