<svg id="Capa_1" data-name="Capa 1" xmlns="http://www.w3.org/2000/svg" xmlns:xlink="http://www.w3.org/1999/xlink" viewBox="0 0 354.58 274.47"><defs><style>.cls-1,.cls-12,.cls-13,.cls-4,.cls-7,.cls-8,.cls-9{fill:none;}.cls-2{fill:#fff;}.cls-3{clip-path:url(#clip-path);}.cls-12,.cls-13,.cls-4{stroke:#7f7d7a;}.cls-4,.cls-8,.cls-9{stroke-linecap:round;}.cls-4,.cls-8{stroke-linejoin:round;}.cls-4{stroke-width:4px;}.cls-5{fill:#d7b8d7;}.cls-6{fill:#c091be;}.cls-7,.cls-8,.cls-9{stroke:#29211a;}.cls-12,.cls-7,.cls-8,.cls-9{stroke-width:0.5px;}.cls-9{stroke-dasharray:1.49 0.99;}.cls-10{opacity:0.3;}.cls-11{clip-path:url(#clip-path-2);}.cls-13{stroke-miterlimit:10;stroke-width:1.5px;}</style><clipPath id="clip-path"><rect class="cls-1" width="354.58" height="274.47" rx="9.65"/></clipPath><clipPath id="clip-path-2"><rect class="cls-1" x="250.93" y="60.63" width="103.28" height="86.25"/></clipPath></defs><title>mat</title><rect class="cls-2" width="354.58" height="274.47" rx="9.65"/><g class="cls-3"><line class="cls-4" x1="244.36" y1="100.53" x2="213.31" y2="100.53"/><polyline class="cls-4" points="232.05 89.08 244.36 100.53 232.05 111.97"/><polygon class="cls-5" points="195.83 101.02 23.42 54.24 23.35 131.74 195.83 101.02"/><polygon class="cls-6" points="195.83 101.02 23.42 131.35 55.18 163.67 195.83 101.02"/><polyline class="cls-7" points="23.75 54 55.67 95.76 194.77 100.89"/><line class="cls-7" x1="55.15" y1="163.49" x2="55.15" y2="95.19"/><polygon class="cls-8" points="196.49 101 22.96 53.78 22.96 131.46 54.66 163.94 196.49 101"/><line class="cls-9" x1="195.54" y1="100.74" x2="23.25" y2="131.61"/><g class="cls-10"><g class="cls-11"><rect class="cls-2" x="266.68" y="72.97" width="71.78" height="71.78"/></g></g><rect class="cls-8" x="266.68" y="72.97" width="71.78" height="71.78"/><line class="cls-12" x1="42.36" y1="243.57" x2="319.06" y2="243.57"/></g><rect class="cls-13" width="354.58" height="274.47" rx="9.65"/></svg>