<svg id="Capa_1" data-name="Capa 1" xmlns="http://www.w3.org/2000/svg" xmlns:xlink="http://www.w3.org/1999/xlink" viewBox="0 0 359.41 274.47"><defs><style>.cls-1,.cls-12,.cls-13,.cls-14,.cls-15,.cls-16,.cls-23,.cls-25,.cls-26{fill:none;}.cls-2{fill:#fff;}.cls-3{clip-path:url(#clip-path);}.cls-4{font-size:22.13px;fill:#29211a;font-family:Malva-Light, Malva;font-weight:300;}.cls-5{letter-spacing:0em;}.cls-6{letter-spacing:0.02em;}.cls-7{letter-spacing:0.02em;}.cls-8{letter-spacing:0.01em;}.cls-9{letter-spacing:0.02em;}.cls-10{letter-spacing:0.02em;}.cls-11{letter-spacing:0.01em;}.cls-12,.cls-25,.cls-26{stroke:#7f7d7a;}.cls-12,.cls-13,.cls-14,.cls-15,.cls-16{stroke-linecap:round;stroke-linejoin:round;}.cls-12{stroke-width:4px;}.cls-13,.cls-14,.cls-15,.cls-16,.cls-23{stroke:#29211a;}.cls-13,.cls-14,.cls-15,.cls-16,.cls-23,.cls-25{stroke-width:0.5px;}.cls-13{stroke-dasharray:1.51 1.01;}.cls-14{stroke-dasharray:1.5 1;}.cls-16{stroke-dasharray:1.53 1.03;}.cls-17{opacity:0.15;}.cls-18{clip-path:url(#clip-path-2);}.cls-19{fill:#e4323d;}.cls-20{opacity:0.3;}.cls-21{clip-path:url(#clip-path-3);}.cls-22{clip-path:url(#clip-path-4);}.cls-24{clip-path:url(#clip-path-5);}.cls-26{stroke-miterlimit:10;stroke-width:1.5px;}</style><clipPath id="clip-path"><rect class="cls-1" width="359.41" height="274.47" rx="9.65"/></clipPath><clipPath id="clip-path-2"><rect class="cls-1" x="10.91" y="22.57" width="119.47" height="148.81"/></clipPath><clipPath id="clip-path-3"><rect class="cls-1" x="70.82" y="23.24" width="90.77" height="148.81"/></clipPath><clipPath id="clip-path-4"><rect class="cls-1" x="9.94" y="21.7" width="151.93" height="150.58"/></clipPath><clipPath id="clip-path-5"><rect class="cls-1" x="215.32" y="26.53" width="134.14" height="145.76"/></clipPath></defs><title>mat</title><rect class="cls-2" width="359.41" height="274.47" rx="9.65"/><g class="cls-3"><text class="cls-4" transform="translate(110.76 231.24)"><tspan class="cls-5">V</tspan><tspan class="cls-6" x="13.9" y="0">i</tspan><tspan class="cls-7" x="19.59" y="0">s</tspan><tspan class="cls-6" x="30.14" y="0">ta de f</tspan><tspan class="cls-8" x="98.54" y="0">r</tspan><tspan class="cls-9" x="106.86" y="0">e</tspan><tspan class="cls-10" x="119.1" y="0">n</tspan><tspan class="cls-11" x="132.38" y="0">t</tspan><tspan x="142.03" y="0">e</tspan></text><line class="cls-12" x1="203.57" y1="102.1" x2="172.52" y2="102.1"/><polyline class="cls-12" points="191.26 90.65 203.57 102.1 191.26 113.55"/><line class="cls-13" x1="30.12" y1="163.85" x2="63.17" y2="145.72"/><line class="cls-14" x1="65.61" y1="141.76" x2="85.5" y2="37.95"/><path class="cls-15" d="M85.66,37.11l.24-1.25m-22,109.44,1.12-.61.24-1.26M27.49,165.29l1.12-.62"/><line class="cls-16" x1="145.56" y1="147.15" x2="64.7" y2="144.96"/><g class="cls-17"><g class="cls-18"><polygon class="cls-19" points="86.25 34.48 26.23 165.58 115.06 169.67 86.25 34.48"/></g></g><g class="cls-20"><g class="cls-21"><polygon class="cls-19" points="86.14 35.16 114.95 170.35 146.27 147.18 86.14 35.16"/></g></g><g class="cls-20"><g class="cls-22"><polygon class="cls-19" points="86.12 34.58 25.92 166.05 115.01 170.15 146 146.78 86.12 34.58"/></g></g><polygon class="cls-23" points="86.12 34.58 25.92 166.05 115.01 170.15 146 146.78 86.12 34.58"/><line class="cls-23" x1="86.12" y1="35.38" x2="114.8" y2="169.98"/><g class="cls-20"><g class="cls-24"><polygon class="cls-2" points="282.35 38.87 231.07 170.12 333.71 170.16 282.35 38.87"/></g></g><polygon class="cls-15" points="282.35 38.87 231.07 170.12 333.71 170.16 282.35 38.87"/><line class="cls-25" x1="41.35" y1="243.18" x2="318.05" y2="243.18"/></g><rect class="cls-26" width="359.41" height="274.47" rx="9.65"/></svg>