<?xml version="1.0" encoding="utf-8"?>
<!-- Generator: Adobe Illustrator 25.4.1, SVG Export Plug-In . SVG Version: 6.00 Build 0)  -->
<svg version="1.1" id="Capa_1" xmlns="http://www.w3.org/2000/svg" xmlns:xlink="http://www.w3.org/1999/xlink" x="0px" y="0px"
	 viewBox="0 0 865.9 569.8" style="enable-background:new 0 0 865.9 569.8;" xml:space="preserve">
<style type="text/css">
	.st0{clip-path:url(#SVGID_00000095309672710094620960000007285456379682949819_);}
	.st1{fill:#C2D450;}
	.st2{clip-path:url(#SVGID_00000168088961062937727590000005012047836957667495_);}
	.st3{clip-path:url(#SVGID_00000099622781515675282780000000258104039598734496_);}
	.st4{fill:#FFFFFF;}
	.st5{clip-path:url(#SVGID_00000139987794679445389930000009698100478841182630_);}
	.st6{enable-background:new    ;}
	.st7{fill:#3C3C3B;}
	.st8{fill:none;stroke:#575756;stroke-width:0.5;stroke-linecap:round;stroke-linejoin:round;}
	.st9{fill:#008ECF;}
	.st10{clip-path:url(#SVGID_00000085214974778815073670000014437738706624111797_);}
	.st11{fill:none;stroke:#EF7D00;stroke-width:3;stroke-miterlimit:10;}
	.st12{clip-path:url(#SVGID_00000039823337405169639750000004482604144301889928_);}
	.st13{clip-path:url(#SVGID_00000000902774869812970990000017241609496513388987_);}
	.st14{fill:#EF7D00;}
	.st15{clip-path:url(#SVGID_00000145758859656350121520000015284730942033527197_);}
	.st16{fill:#3D99D4;}
	.st17{clip-path:url(#SVGID_00000011033337690298403300000010912736555201204353_);}
</style>
<g>
	<defs>
		<rect id="SVGID_1_" x="-112" width="994.9" height="800.1"/>
	</defs>
	<clipPath id="SVGID_00000165202920877365718120000006309652017293177265_">
		<use xlink:href="#SVGID_1_"  style="overflow:visible;"/>
	</clipPath>
	<g style="clip-path:url(#SVGID_00000165202920877365718120000006309652017293177265_);">
		<path class="st1" d="M289.5,418.9v-96.6h-34.1v97.1c0.3,12.9-9.9,23.5-22.8,23.8c-12.9,0.3-23.5-9.9-23.8-22.8c0-0.3,0-0.6,0-1
			V116.9h-34.2v302.5c0.4,31.7,26.5,57.1,58.2,56.7c31.1-0.4,56.3-25.5,56.7-56.7V418.9z"/>
		<path class="st1" d="M174.6,117.5c0-12.9-10.4-23.3-23.3-23.3c0,0,0,0,0,0H-112V60h263.4c31.7,0,57.4,25.7,57.4,57.4l0,0"/>
		<path class="st1" d="M734.6,509.9v-82.4h-34.1v82.9c0,12.9-10.4,23.3-23.3,23.3c-12.9,0-23.3-10.4-23.3-23.3v-24.7h-34.1v24.8
			c0.4,31.7,26.5,57.1,58.2,56.7c31.1-0.4,56.3-25.5,56.7-56.7V509.9z"/>
	</g>
</g>
<rect x="619.5" y="324.8" class="st1" width="34.2" height="161"/>
<g>
	<defs>
		<rect id="SVGID_00000155115299626595671780000012645500934841260209_" x="-112" width="994.9" height="800.1"/>
	</defs>
	<clipPath id="SVGID_00000119095173509092826680000017021157930500175536_">
		<use xlink:href="#SVGID_00000155115299626595671780000012645500934841260209_"  style="overflow:visible;"/>
	</clipPath>
	<g style="clip-path:url(#SVGID_00000119095173509092826680000017021157930500175536_);">
		<path class="st1" d="M653.9,325.4c0-31.7-25.7-57.4-57.4-57.4l0,0H437.8v34.1h158.5c12.9,0,23.3,10.4,23.3,23.3"/>
		<path class="st1" d="M255.4,325.4c0-31.7,25.7-57.4,57.4-57.4l0,0h125v34.1H313c-12.9,0-23.3,10.4-23.3,23.3c0,0,0,0,0,0"/>
		<path class="st1" d="M700.5,427.5c0-31.7,25.7-57.4,57.4-57.5c0,0,0,0,0,0h125v34.1H758c-12.9,0-23.3,10.4-23.3,23.3"/>
	</g>
</g>
<g>
	<defs>
		<rect id="SVGID_00000158718828908557843830000004481503857886848703_" x="-112" width="994.9" height="800.1"/>
	</defs>
	<clipPath id="SVGID_00000058591219205499390900000006437195094044363679_">
		<use xlink:href="#SVGID_00000158718828908557843830000004481503857886848703_"  style="overflow:visible;"/>
	</clipPath>
	<g style="clip-path:url(#SVGID_00000058591219205499390900000006437195094044363679_);">
		<path class="st4" d="M671.5,322.1H415.9c-6.9,0-12.4,4-12.4,8.9v105.7c0,4.9,5.5,8.9,12.4,8.9h255.6c6.8,0,12.4-4,12.4-8.9V331
			C683.9,326.1,678.4,322.1,671.5,322.1"/>
	</g>
</g>
<g>
	<defs>
		<path id="SVGID_00000086665988776952609610000008733090193418137486_" d="M415.9,322.1c-6.9,0-12.4,4-12.4,8.9v105.7
			c0,4.9,5.5,8.9,12.4,8.9h255.6c6.8,0,12.4-4,12.4-8.9V331c0-4.9-5.6-8.9-12.4-8.9L415.9,322.1z"/>
	</defs>
	<clipPath id="SVGID_00000007390053934486982760000004871267721823275654_">
		<use xlink:href="#SVGID_00000086665988776952609610000008733090193418137486_"  style="overflow:visible;"/>
	</clipPath>
	<g style="clip-path:url(#SVGID_00000007390053934486982760000004871267721823275654_);">
		<g class="st6">
			<path class="st7" d="M428.3,409.8h6.7v1.3h-5.1v4.1h4.7v1.3h-4.7v5.6h-1.6V409.8z"/>
		</g>
		<g class="st6">
			<path class="st7" d="M437.6,418.1c0,2.2,1.4,3.1,3.1,3.1c1.2,0,1.9-0.2,2.5-0.5l0.3,1.2c-0.6,0.3-1.6,0.6-3,0.6
				c-2.8,0-4.4-1.8-4.4-4.5s1.6-4.8,4.2-4.8c2.9,0,3.7,2.6,3.7,4.2c0,0.3,0,0.6-0.1,0.8H437.6z M442.3,416.9c0-1-0.4-2.6-2.3-2.6
				c-1.6,0-2.4,1.5-2.5,2.6H442.3z"/>
			<path class="st7" d="M452.3,421.9c-0.4,0.2-1.4,0.5-2.6,0.5c-2.7,0-4.4-1.8-4.4-4.6c0-2.8,1.9-4.7,4.8-4.7c1,0,1.8,0.2,2.3,0.5
				l-0.4,1.3c-0.4-0.2-1-0.4-1.9-0.4c-2,0-3.2,1.5-3.2,3.4c0,2.1,1.3,3.3,3.1,3.3c0.9,0,1.5-0.2,2-0.4L452.3,421.9z"/>
			<path class="st7" d="M454.2,409.2h1.6v5.6h0c0.3-0.5,0.7-0.9,1.2-1.1c0.5-0.3,1.1-0.5,1.7-0.5c1.2,0,3.1,0.7,3.1,3.8v5.3h-1.6
				v-5.1c0-1.4-0.5-2.7-2.1-2.7c-1.1,0-1.9,0.7-2.2,1.6c-0.1,0.2-0.1,0.5-0.1,0.8v5.4h-1.6V409.2z"/>
			<path class="st7" d="M469.4,422.3l-0.1-1.1h-0.1c-0.5,0.7-1.5,1.3-2.7,1.3c-1.8,0-2.7-1.3-2.7-2.6c0-2.2,1.9-3.3,5.4-3.3v-0.2
				c0-0.7-0.2-2.1-2-2.1c-0.8,0-1.7,0.3-2.3,0.7l-0.4-1.1c0.7-0.5,1.8-0.8,2.9-0.8c2.7,0,3.4,1.9,3.4,3.7v3.3c0,0.8,0,1.5,0.1,2.1
				H469.4z M469.2,417.7c-1.8,0-3.8,0.3-3.8,2c0,1.1,0.7,1.6,1.5,1.6c1.2,0,1.9-0.7,2.2-1.5c0.1-0.2,0.1-0.4,0.1-0.5V417.7z"/>
			<path class="st7" d="M473,414.8c0-0.7,0.5-1.2,1.1-1.2c0.6,0,1.1,0.5,1.1,1.2c0,0.6-0.4,1.1-1.1,1.1
				C473.4,416,473,415.5,473,414.8z M473,421.3c0-0.7,0.5-1.2,1.1-1.2c0.6,0,1.1,0.5,1.1,1.2c0,0.6-0.4,1.1-1.1,1.1
				C473.4,422.5,473,422,473,421.3z"/>
		</g>
		<line class="st8" x1="523" y1="421.9" x2="480.2" y2="421.9"/>
		<g class="st6">
			<path class="st7" d="M527.3,423l5.2-13.4h1.3l-5.2,13.4H527.3z"/>
		</g>
		<line class="st8" x1="580.8" y1="421.9" x2="538" y2="421.9"/>
		<g class="st6">
			<path class="st7" d="M585.1,423l5.2-13.4h1.3l-5.2,13.4H585.1z"/>
		</g>
		<line class="st8" x1="660.4" y1="421.9" x2="595.8" y2="421.9"/>
		<g class="st6">
			<path class="st9" d="M417.8,348.9l-4.1-12.4h1.7l1.9,6.1c0.5,1.7,1,3.2,1.3,4.7h0c0.4-1.4,0.9-3,1.4-4.6l2.1-6.1h1.7l-4.5,12.4
				H417.8z"/>
		</g>
		<g class="st6">
			<path class="st9" d="M426.9,337.5c0,0.6-0.4,1-1,1c-0.6,0-1-0.4-1-1c0-0.6,0.4-1,1-1C426.5,336.5,426.9,336.9,426.9,337.5z
				 M425.1,348.9V340h1.6v8.9H425.1z"/>
			<path class="st9" d="M429.2,347.3c0.5,0.3,1.3,0.6,2.1,0.6c1.2,0,1.7-0.6,1.7-1.3c0-0.8-0.5-1.2-1.7-1.6
				c-1.6-0.6-2.4-1.5-2.4-2.5c0-1.4,1.2-2.6,3.1-2.6c0.9,0,1.7,0.3,2.2,0.6l-0.4,1.2c-0.4-0.2-1-0.5-1.8-0.5c-1,0-1.5,0.6-1.5,1.2
				c0,0.7,0.5,1.1,1.7,1.5c1.6,0.6,2.3,1.4,2.3,2.7c0,1.6-1.2,2.7-3.3,2.7c-1,0-1.9-0.2-2.5-0.6L429.2,347.3z"/>
			<path class="st9" d="M438.7,337.4v2.6h2.3v1.2h-2.3v4.8c0,1.1,0.3,1.7,1.2,1.7c0.4,0,0.7-0.1,0.9-0.1l0.1,1.2
				c-0.3,0.1-0.8,0.2-1.4,0.2c-0.8,0-1.4-0.2-1.8-0.7c-0.5-0.5-0.6-1.3-0.6-2.3v-4.9h-1.4V340h1.4v-2.1L438.7,337.4z"/>
			<path class="st9" d="M447.8,348.9l-0.1-1.1h-0.1c-0.5,0.7-1.5,1.3-2.7,1.3c-1.8,0-2.7-1.3-2.7-2.6c0-2.2,1.9-3.3,5.4-3.3v-0.2
				c0-0.7-0.2-2.1-2-2.1c-0.8,0-1.7,0.3-2.3,0.7l-0.4-1.1c0.7-0.5,1.8-0.8,2.9-0.8c2.7,0,3.4,1.9,3.4,3.7v3.3c0,0.8,0,1.5,0.1,2.1
				H447.8z M447.5,344.4c-1.8,0-3.8,0.3-3.8,2c0,1.1,0.7,1.6,1.5,1.6c1.2,0,1.9-0.7,2.2-1.5c0.1-0.2,0.1-0.4,0.1-0.5V344.4z"/>
			<path class="st9" d="M451.5,347.3c0.5,0.3,1.3,0.6,2.1,0.6c1.2,0,1.7-0.6,1.7-1.3c0-0.8-0.5-1.2-1.7-1.6
				c-1.6-0.6-2.4-1.5-2.4-2.5c0-1.4,1.2-2.6,3.1-2.6c0.9,0,1.7,0.3,2.2,0.6l-0.4,1.2c-0.4-0.2-1-0.5-1.8-0.5c-1,0-1.5,0.6-1.5,1.2
				c0,0.7,0.5,1.1,1.7,1.5c1.6,0.6,2.3,1.4,2.3,2.7c0,1.6-1.2,2.7-3.3,2.7c-1,0-1.9-0.2-2.5-0.6L451.5,347.3z"/>
			<path class="st9" d="M470.7,335.8v10.8c0,0.8,0,1.7,0.1,2.3h-1.5l-0.1-1.6h0c-0.5,1-1.6,1.8-3,1.8c-2.2,0-3.8-1.8-3.8-4.5
				c0-3,1.8-4.8,4-4.8c1.4,0,2.3,0.6,2.7,1.4h0v-5.3H470.7z M469,343.6c0-0.2,0-0.5-0.1-0.7c-0.2-1-1.1-1.9-2.3-1.9
				c-1.7,0-2.7,1.5-2.7,3.5c0,1.8,0.9,3.3,2.6,3.3c1.1,0,2.1-0.7,2.4-1.9c0.1-0.2,0.1-0.4,0.1-0.7V343.6z"/>
			<path class="st9" d="M474.3,344.8c0,2.2,1.4,3.1,3.1,3.1c1.2,0,1.9-0.2,2.5-0.5l0.3,1.2c-0.6,0.3-1.6,0.6-3,0.6
				c-2.8,0-4.4-1.8-4.4-4.5s1.6-4.8,4.2-4.8c2.9,0,3.7,2.6,3.7,4.2c0,0.3,0,0.6-0.1,0.8H474.3z M479,343.6c0-1-0.4-2.6-2.3-2.6
				c-1.6,0-2.4,1.5-2.5,2.6H479z"/>
			<path class="st9" d="M492.9,348.6c-0.4,0.2-1.4,0.5-2.6,0.5c-2.7,0-4.4-1.8-4.4-4.6c0-2.8,1.9-4.7,4.8-4.7c1,0,1.8,0.2,2.3,0.5
				l-0.4,1.3c-0.4-0.2-1-0.4-1.9-0.4c-2,0-3.2,1.5-3.2,3.4c0,2.1,1.3,3.3,3.1,3.3c0.9,0,1.5-0.2,2-0.4L492.9,348.6z"/>
			<path class="st9" d="M502.3,346.5c0,0.9,0,1.7,0.1,2.4h-1.4l-0.1-1.5h0c-0.4,0.7-1.4,1.7-3,1.7c-1.4,0-3.1-0.8-3.1-3.9V340h1.6
				v4.9c0,1.7,0.5,2.8,2,2.8c1.1,0,1.8-0.8,2.1-1.5c0.1-0.2,0.1-0.5,0.1-0.8V340h1.6V346.5z"/>
			<path class="st9" d="M505.9,344.8c0,2.2,1.4,3.1,3.1,3.1c1.2,0,1.9-0.2,2.5-0.5l0.3,1.2c-0.6,0.3-1.6,0.6-3,0.6
				c-2.8,0-4.4-1.8-4.4-4.5s1.6-4.8,4.2-4.8c2.9,0,3.7,2.6,3.7,4.2c0,0.3,0,0.6-0.1,0.8H505.9z M510.6,343.6c0-1-0.4-2.6-2.3-2.6
				c-1.6,0-2.4,1.5-2.5,2.6H510.6z"/>
		</g>
		<g class="st6">
			<path class="st9" d="M514.2,342.8c0-1.1,0-2-0.1-2.8h1.4l0.1,1.8h0.1c0.4-1.2,1.4-2,2.5-2c0.2,0,0.3,0,0.5,0.1v1.5
				c-0.2,0-0.3-0.1-0.6-0.1c-1.1,0-2,0.9-2.2,2.1c0,0.2-0.1,0.5-0.1,0.8v4.8h-1.6V342.8z"/>
		</g>
		<g class="st6">
			<path class="st9" d="M520.3,342.9c0-1.1,0-2.1-0.1-2.9h1.5l0.1,1.5h0c0.7-1.1,1.7-1.7,3.2-1.7c2.2,0,3.8,1.8,3.8,4.5
				c0,3.2-2,4.8-4.1,4.8c-1.2,0-2.2-0.5-2.8-1.4h0v4.9h-1.6V342.9z M521.9,345.3c0,0.2,0,0.5,0.1,0.7c0.3,1.1,1.3,1.9,2.4,1.9
				c1.7,0,2.7-1.4,2.7-3.5c0-1.8-0.9-3.3-2.7-3.3c-1.1,0-2.1,0.8-2.5,2c-0.1,0.2-0.1,0.4-0.1,0.7V345.3z"/>
			<path class="st9" d="M538.9,344.4c0,3.3-2.3,4.7-4.4,4.7c-2.4,0-4.3-1.8-4.3-4.6c0-3,2-4.7,4.4-4.7
				C537.2,339.8,538.9,341.7,538.9,344.4z M531.8,344.5c0,2,1.1,3.4,2.7,3.4c1.6,0,2.7-1.5,2.7-3.5c0-1.5-0.8-3.4-2.7-3.4
				C532.7,341,531.8,342.8,531.8,344.5z"/>
			<path class="st9" d="M540.8,347.3c0.5,0.3,1.3,0.6,2.1,0.6c1.2,0,1.7-0.6,1.7-1.3c0-0.8-0.5-1.2-1.7-1.6
				c-1.6-0.6-2.4-1.5-2.4-2.5c0-1.4,1.2-2.6,3.1-2.6c0.9,0,1.7,0.3,2.2,0.6l-0.4,1.2c-0.4-0.2-1-0.5-1.8-0.5c-1,0-1.5,0.6-1.5,1.2
				c0,0.7,0.5,1.1,1.7,1.5c1.6,0.6,2.3,1.4,2.3,2.7c0,1.6-1.2,2.7-3.3,2.7c-1,0-1.9-0.2-2.5-0.6L540.8,347.3z"/>
		</g>
		<g class="st6">
			<path class="st9" d="M415,370.5c0-1.1,0-2-0.1-2.8h1.4l0.1,1.8h0.1c0.4-1.2,1.4-2,2.5-2c0.2,0,0.3,0,0.5,0.1v1.5
				c-0.2,0-0.3-0.1-0.6-0.1c-1.1,0-2,0.9-2.2,2.1c0,0.2-0.1,0.5-0.1,0.8v4.8H415V370.5z"/>
		</g>
		<g class="st6">
			<path class="st9" d="M421.8,372.5c0,2.2,1.4,3.1,3.1,3.1c1.2,0,1.9-0.2,2.5-0.5l0.3,1.2c-0.6,0.3-1.6,0.6-3,0.6
				c-2.8,0-4.4-1.8-4.4-4.5s1.6-4.8,4.2-4.8c2.9,0,3.7,2.6,3.7,4.2c0,0.3,0,0.6-0.1,0.8H421.8z M426.6,371.3c0-1-0.4-2.6-2.3-2.6
				c-1.6,0-2.4,1.5-2.5,2.6H426.6z"/>
			<path class="st9" d="M437.9,363.5v10.8c0,0.8,0,1.7,0.1,2.3h-1.5l-0.1-1.6h0c-0.5,1-1.6,1.8-3,1.8c-2.2,0-3.8-1.8-3.8-4.5
				c0-3,1.8-4.8,4-4.8c1.4,0,2.3,0.6,2.7,1.4h0v-5.3H437.9z M436.2,371.3c0-0.2,0-0.5-0.1-0.7c-0.2-1-1.1-1.9-2.3-1.9
				c-1.7,0-2.7,1.5-2.7,3.5c0,1.8,0.9,3.3,2.6,3.3c1.1,0,2.1-0.7,2.4-1.9c0.1-0.2,0.1-0.4,0.1-0.7V371.3z"/>
			<path class="st9" d="M448.7,372.1c0,3.3-2.3,4.7-4.5,4.7c-2.4,0-4.3-1.8-4.3-4.6c0-3,2-4.7,4.4-4.7
				C446.9,367.5,448.7,369.4,448.7,372.1z M441.6,372.2c0,2,1.1,3.4,2.7,3.4c1.6,0,2.7-1.5,2.7-3.5c0-1.5-0.8-3.4-2.7-3.4
				S441.6,370.5,441.6,372.2z"/>
			<path class="st9" d="M450.7,370.1c0-0.9,0-1.7-0.1-2.4h1.4l0.1,1.5h0c0.4-0.8,1.5-1.7,3-1.7c1.2,0,3.2,0.7,3.2,3.8v5.3h-1.6v-5.2
				c0-1.4-0.5-2.6-2.1-2.6c-1.1,0-1.9,0.8-2.2,1.7c-0.1,0.2-0.1,0.5-0.1,0.8v5.4h-1.6V370.1z"/>
			<path class="st9" d="M468.7,363.5v10.8c0,0.8,0,1.7,0.1,2.3h-1.5l-0.1-1.6h0c-0.5,1-1.6,1.8-3,1.8c-2.2,0-3.8-1.8-3.8-4.5
				c0-3,1.8-4.8,4-4.8c1.4,0,2.3,0.6,2.7,1.4h0v-5.3H468.7z M467.1,371.3c0-0.2,0-0.5-0.1-0.7c-0.2-1-1.1-1.9-2.3-1.9
				c-1.7,0-2.7,1.5-2.7,3.5c0,1.8,0.9,3.3,2.6,3.3c1.1,0,2.1-0.7,2.4-1.9c0.1-0.2,0.1-0.4,0.1-0.7V371.3z"/>
			<path class="st9" d="M479.5,372.1c0,3.3-2.3,4.7-4.5,4.7c-2.4,0-4.3-1.8-4.3-4.6c0-3,2-4.7,4.4-4.7
				C477.7,367.5,479.5,369.4,479.5,372.1z M472.4,372.2c0,2,1.1,3.4,2.7,3.4c1.6,0,2.7-1.5,2.7-3.5c0-1.5-0.8-3.4-2.7-3.4
				S472.4,370.5,472.4,372.2z"/>
			<path class="st9" d="M481.3,375c0.5,0.3,1.3,0.6,2.1,0.6c1.2,0,1.7-0.6,1.7-1.3c0-0.8-0.5-1.2-1.7-1.6c-1.6-0.6-2.4-1.5-2.4-2.5
				c0-1.4,1.2-2.6,3.1-2.6c0.9,0,1.7,0.3,2.2,0.6l-0.4,1.2c-0.4-0.2-1-0.5-1.8-0.5c-1,0-1.5,0.6-1.5,1.2c0,0.7,0.5,1.1,1.7,1.5
				c1.6,0.6,2.3,1.4,2.3,2.7c0,1.6-1.2,2.7-3.3,2.7c-1,0-1.9-0.2-2.5-0.6L481.3,375z"/>
		</g>
	</g>
</g>
<g>
	<defs>
		<rect id="SVGID_00000051345711399706569160000011613300738824780219_" x="-112" width="994.9" height="800.1"/>
	</defs>
	<clipPath id="SVGID_00000067915147182253394620000000418159607316229522_">
		<use xlink:href="#SVGID_00000051345711399706569160000011613300738824780219_"  style="overflow:visible;"/>
	</clipPath>
	<g style="clip-path:url(#SVGID_00000067915147182253394620000000418159607316229522_);">
		<path class="st11" d="M671.5,322.1H415.9c-6.9,0-12.4,4-12.4,8.9v105.7c0,4.9,5.5,8.9,12.4,8.9h255.6c6.8,0,12.4-4,12.4-8.9V331
			C683.9,326.1,678.4,322.1,671.5,322.1z"/>
		<path class="st4" d="M414.1,105.4H158.4c-6.9,0-12.4,4-12.4,8.9v105.7c0,4.9,5.6,8.9,12.4,8.9h255.6c6.8,0,12.4-4,12.4-8.9V114.3
			C426.5,109.4,420.9,105.4,414.1,105.4"/>
	</g>
</g>
<g>
	<defs>
		<path id="SVGID_00000078028849115582472730000005626437570355996826_" d="M157.6,104.7c-6.9,0-12.4,4-12.4,8.9v105.8
			c0,4.9,5.6,8.9,12.4,8.9h255.9c6.9,0,12.4-4,12.4-8.9V113.6c0-4.9-5.6-8.9-12.4-8.9H157.6z"/>
	</defs>
	<clipPath id="SVGID_00000097502771286336045560000014257870528645729452_">
		<use xlink:href="#SVGID_00000078028849115582472730000005626437570355996826_"  style="overflow:visible;"/>
	</clipPath>
	<g style="clip-path:url(#SVGID_00000097502771286336045560000014257870528645729452_);">
		<g class="st6">
			<path class="st7" d="M170,192.5h6.7v1.4h-5.1v4.1h4.7v1.3h-4.7v5.6H170V192.5z"/>
		</g>
		<g class="st6">
			<path class="st7" d="M179.3,200.8c0,2.2,1.4,3.1,3.1,3.1c1.2,0,1.9-0.2,2.5-0.5l0.3,1.2c-0.6,0.3-1.6,0.6-3,0.6
				c-2.8,0-4.4-1.8-4.4-4.5s1.6-4.8,4.2-4.8c2.9,0,3.7,2.6,3.7,4.2c0,0.3,0,0.6-0.1,0.8H179.3z M184.1,199.6c0-1-0.4-2.6-2.3-2.6
				c-1.6,0-2.4,1.5-2.5,2.6H184.1z"/>
			<path class="st7" d="M194.1,204.6c-0.4,0.2-1.4,0.5-2.6,0.5c-2.7,0-4.5-1.8-4.5-4.6c0-2.8,1.9-4.8,4.8-4.8c1,0,1.8,0.2,2.3,0.5
				l-0.4,1.3c-0.4-0.2-1-0.4-1.9-0.4c-2.1,0-3.2,1.5-3.2,3.4c0,2.1,1.3,3.3,3.1,3.3c0.9,0,1.5-0.2,2-0.4L194.1,204.6z"/>
			<path class="st7" d="M196,191.8h1.6v5.6h0c0.3-0.5,0.7-0.9,1.2-1.1c0.5-0.3,1.1-0.5,1.7-0.5c1.2,0,3.1,0.7,3.1,3.8v5.3H202v-5.1
				c0-1.4-0.5-2.7-2.1-2.7c-1.1,0-1.9,0.7-2.2,1.6c-0.1,0.2-0.1,0.5-0.1,0.8v5.4H196V191.8z"/>
			<path class="st7" d="M211.2,204.9l-0.1-1.1H211c-0.5,0.7-1.5,1.3-2.7,1.3c-1.8,0-2.7-1.3-2.7-2.6c0-2.2,1.9-3.3,5.4-3.3V199
				c0-0.7-0.2-2.1-2-2.1c-0.8,0-1.7,0.3-2.3,0.7l-0.4-1.1c0.7-0.5,1.8-0.8,2.9-0.8c2.7,0,3.4,1.9,3.4,3.7v3.3c0,0.8,0,1.5,0.1,2.1
				H211.2z M211,200.4c-1.8,0-3.8,0.3-3.8,2c0,1.1,0.7,1.6,1.5,1.6c1.2,0,1.9-0.7,2.2-1.5c0.1-0.2,0.1-0.4,0.1-0.5V200.4z"/>
			<path class="st7" d="M214.8,197.5c0-0.7,0.5-1.2,1.1-1.2s1.1,0.5,1.1,1.2c0,0.6-0.4,1.1-1.1,1.1
				C215.2,198.6,214.8,198.1,214.8,197.5z M214.8,204c0-0.7,0.5-1.2,1.1-1.2s1.1,0.5,1.1,1.2c0,0.6-0.4,1.1-1.1,1.1
				C215.2,205.1,214.8,204.6,214.8,204z"/>
		</g>
		<line class="st8" x1="264.9" y1="204.5" x2="221.9" y2="204.5"/>
		<g class="st6">
			<path class="st7" d="M269.1,205.7l5.2-13.4h1.3l-5.2,13.4H269.1z"/>
		</g>
		<line class="st8" x1="322.7" y1="204.5" x2="279.8" y2="204.5"/>
		<g class="st6">
			<path class="st7" d="M327,205.7l5.2-13.4h1.3l-5.2,13.4H327z"/>
		</g>
		<line class="st8" x1="402.4" y1="204.5" x2="337.7" y2="204.5"/>
		<g class="st6">
			<path class="st9" d="M159.5,131.5l-4.1-12.5h1.7l1.9,6.1c0.5,1.7,1,3.2,1.3,4.7h0c0.4-1.4,0.9-3,1.4-4.6l2.1-6.2h1.7l-4.5,12.5
				H159.5z"/>
		</g>
		<g class="st6">
			<path class="st9" d="M168.6,120c0,0.6-0.4,1-1,1c-0.6,0-1-0.4-1-1c0-0.6,0.4-1,1-1C168.2,119,168.6,119.5,168.6,120z
				 M166.8,131.5v-9h1.6v9H166.8z"/>
			<path class="st9" d="M170.9,129.8c0.5,0.3,1.3,0.6,2.1,0.6c1.2,0,1.7-0.6,1.7-1.3c0-0.8-0.5-1.2-1.7-1.6
				c-1.6-0.6-2.4-1.5-2.4-2.5c0-1.4,1.2-2.6,3.1-2.6c0.9,0,1.7,0.3,2.2,0.6l-0.4,1.2c-0.4-0.2-1-0.5-1.8-0.5c-1,0-1.5,0.6-1.5,1.2
				c0,0.7,0.5,1.1,1.7,1.5c1.6,0.6,2.3,1.4,2.3,2.7c0,1.6-1.2,2.7-3.3,2.7c-1,0-1.9-0.2-2.5-0.6L170.9,129.8z"/>
			<path class="st9" d="M180.4,120v2.6h2.3v1.2h-2.3v4.8c0,1.1,0.3,1.7,1.2,1.7c0.4,0,0.7-0.1,0.9-0.1l0.1,1.2
				c-0.3,0.1-0.8,0.2-1.4,0.2c-0.8,0-1.4-0.2-1.8-0.7c-0.5-0.5-0.6-1.3-0.6-2.3v-4.9h-1.4v-1.2h1.4v-2.1L180.4,120z"/>
			<path class="st9" d="M189.5,131.5l-0.1-1.1h-0.1c-0.5,0.7-1.5,1.3-2.7,1.3c-1.8,0-2.7-1.3-2.7-2.6c0-2.2,1.9-3.3,5.4-3.3v-0.2
				c0-0.7-0.2-2.1-2-2.1c-0.8,0-1.7,0.3-2.3,0.7l-0.4-1.1c0.7-0.5,1.8-0.8,2.9-0.8c2.7,0,3.4,1.9,3.4,3.7v3.3c0,0.8,0,1.5,0.1,2.1
				H189.5z M189.3,126.9c-1.8,0-3.8,0.3-3.8,2c0,1.1,0.7,1.6,1.5,1.6c1.2,0,1.9-0.7,2.2-1.5c0.1-0.2,0.1-0.4,0.1-0.5V126.9z"/>
			<path class="st9" d="M193.2,129.8c0.5,0.3,1.3,0.6,2.1,0.6c1.2,0,1.7-0.6,1.7-1.3c0-0.8-0.5-1.2-1.7-1.6
				c-1.6-0.6-2.4-1.5-2.4-2.5c0-1.4,1.2-2.6,3.1-2.6c0.9,0,1.7,0.3,2.2,0.6l-0.4,1.2c-0.4-0.2-1-0.5-1.8-0.5c-1,0-1.5,0.6-1.5,1.2
				c0,0.7,0.5,1.1,1.7,1.5c1.6,0.6,2.3,1.4,2.3,2.7c0,1.6-1.2,2.7-3.3,2.7c-1,0-1.9-0.2-2.5-0.6L193.2,129.8z"/>
			<path class="st9" d="M212.4,118.4v10.8c0,0.8,0,1.7,0.1,2.3H211l-0.1-1.6h0c-0.5,1-1.6,1.8-3.1,1.8c-2.2,0-3.8-1.8-3.8-4.5
				c0-3,1.8-4.8,4-4.8c1.4,0,2.3,0.6,2.7,1.4h0v-5.3H212.4z M210.8,126.2c0-0.2,0-0.5-0.1-0.7c-0.2-1-1.1-1.9-2.3-1.9
				c-1.7,0-2.7,1.5-2.7,3.5c0,1.8,0.9,3.3,2.6,3.3c1.1,0,2.1-0.7,2.4-1.9c0.1-0.2,0.1-0.4,0.1-0.7V126.2z"/>
			<path class="st9" d="M216,127.3c0,2.2,1.4,3.1,3.1,3.1c1.2,0,1.9-0.2,2.5-0.5l0.3,1.2c-0.6,0.3-1.6,0.6-3,0.6
				c-2.8,0-4.4-1.8-4.4-4.5s1.6-4.8,4.2-4.8c2.9,0,3.7,2.6,3.7,4.2c0,0.3,0,0.6-0.1,0.8H216z M220.8,126.2c0-1-0.4-2.6-2.3-2.6
				c-1.6,0-2.4,1.5-2.5,2.6H220.8z"/>
			<path class="st9" d="M228.3,125.5c0-1.1,0-2.1-0.1-2.9h1.5l0.1,1.5h0c0.7-1.1,1.7-1.7,3.2-1.7c2.2,0,3.8,1.8,3.8,4.5
				c0,3.2-2,4.8-4.1,4.8c-1.2,0-2.2-0.5-2.8-1.4h0v4.9h-1.6V125.5z M229.9,127.9c0,0.2,0,0.5,0.1,0.7c0.3,1.1,1.3,1.9,2.4,1.9
				c1.7,0,2.7-1.4,2.7-3.5c0-1.8-0.9-3.3-2.7-3.3c-1.1,0-2.1,0.8-2.5,2c-0.1,0.2-0.1,0.4-0.1,0.7V127.9z"/>
		</g>
		<g class="st6">
			<path class="st9" d="M238.8,125.3c0-1.1,0-2-0.1-2.8h1.4l0.1,1.8h0.1c0.4-1.2,1.4-2,2.5-2c0.2,0,0.3,0,0.5,0.1v1.5
				c-0.2,0-0.3-0.1-0.6-0.1c-1.1,0-2,0.9-2.2,2.1c0,0.2-0.1,0.5-0.1,0.8v4.8h-1.6V125.3z"/>
		</g>
		<g class="st6">
			<path class="st9" d="M246.8,120c0,0.6-0.4,1-1,1c-0.6,0-1-0.4-1-1c0-0.6,0.4-1,1-1C246.4,119,246.8,119.5,246.8,120z M245,131.5
				v-9h1.6v9H245z"/>
			<path class="st9" d="M249.1,129.8c0.5,0.3,1.3,0.6,2.1,0.6c1.2,0,1.7-0.6,1.7-1.3c0-0.8-0.5-1.2-1.7-1.6
				c-1.6-0.6-2.4-1.5-2.4-2.5c0-1.4,1.2-2.6,3.1-2.6c0.9,0,1.7,0.3,2.2,0.6l-0.4,1.2c-0.4-0.2-1-0.5-1.8-0.5c-1,0-1.5,0.6-1.5,1.2
				c0,0.7,0.5,1.1,1.7,1.5c1.6,0.6,2.3,1.4,2.3,2.7c0,1.6-1.2,2.7-3.3,2.7c-1,0-1.9-0.2-2.5-0.6L249.1,129.8z"/>
			<path class="st9" d="M256.6,125c0-0.9,0-1.7-0.1-2.4h1.4l0.1,1.4h0.1c0.5-0.9,1.3-1.6,2.8-1.6c1.2,0,2.1,0.7,2.5,1.8h0
				c0.3-0.5,0.6-0.9,1-1.2c0.5-0.4,1.1-0.6,2-0.6c1.2,0,2.9,0.8,2.9,3.9v5.3h-1.6v-5.1c0-1.7-0.6-2.8-1.9-2.8
				c-0.9,0-1.6,0.7-1.9,1.5c-0.1,0.2-0.1,0.5-0.1,0.8v5.5h-1.6v-5.4c0-1.4-0.6-2.5-1.9-2.5c-1,0-1.8,0.8-2,1.6
				c-0.1,0.2-0.1,0.5-0.1,0.8v5.4h-1.6V125z"/>
			<path class="st9" d="M277,131.5l-0.1-1.1h-0.1c-0.5,0.7-1.5,1.3-2.7,1.3c-1.8,0-2.7-1.3-2.7-2.6c0-2.2,1.9-3.3,5.4-3.3v-0.2
				c0-0.7-0.2-2.1-2-2.1c-0.8,0-1.7,0.3-2.3,0.7l-0.4-1.1c0.7-0.5,1.8-0.8,2.9-0.8c2.7,0,3.4,1.9,3.4,3.7v3.3c0,0.8,0,1.5,0.1,2.1
				H277z M276.7,126.9c-1.8,0-3.8,0.3-3.8,2c0,1.1,0.7,1.6,1.5,1.6c1.2,0,1.9-0.7,2.2-1.5c0.1-0.2,0.1-0.4,0.1-0.5V126.9z"/>
			<path class="st9" d="M280.7,129.8c0.5,0.3,1.3,0.6,2.1,0.6c1.2,0,1.7-0.6,1.7-1.3c0-0.8-0.5-1.2-1.7-1.6
				c-1.6-0.6-2.4-1.5-2.4-2.5c0-1.4,1.2-2.6,3.1-2.6c0.9,0,1.7,0.3,2.2,0.6l-0.4,1.2c-0.4-0.2-1-0.5-1.8-0.5c-1,0-1.5,0.6-1.5,1.2
				c0,0.7,0.5,1.1,1.7,1.5c1.6,0.6,2.3,1.4,2.3,2.7c0,1.6-1.2,2.7-3.3,2.7c-1,0-1.9-0.2-2.5-0.6L280.7,129.8z"/>
			<path class="st9" d="M292.8,122.5l2,5.3c0.2,0.6,0.4,1.3,0.6,1.8h0c0.2-0.5,0.4-1.2,0.6-1.9l1.8-5.3h1.7l-2.4,6.4
				c-1.2,3.1-2,4.6-3.1,5.6c-0.8,0.7-1.6,1-2,1.1l-0.4-1.4c0.4-0.1,0.9-0.4,1.4-0.8c0.4-0.4,1-1,1.4-1.8c0.1-0.2,0.1-0.3,0.1-0.4
				s0-0.2-0.1-0.4l-3.3-8.2H292.8z"/>
		</g>
		<g class="st6">
			<path class="st9" d="M156.8,153.2c0-1.1,0-2.1-0.1-2.9h1.5l0.1,1.5h0c0.7-1.1,1.7-1.7,3.2-1.7c2.2,0,3.8,1.8,3.8,4.5
				c0,3.2-2,4.8-4.1,4.8c-1.2,0-2.2-0.5-2.8-1.4h0v4.9h-1.6V153.2z M158.4,155.6c0,0.2,0,0.5,0.1,0.7c0.3,1.1,1.3,1.9,2.4,1.9
				c1.7,0,2.7-1.4,2.7-3.5c0-1.8-0.9-3.3-2.7-3.3c-1.1,0-2.1,0.8-2.5,2c-0.1,0.2-0.1,0.4-0.1,0.7V155.6z"/>
			<path class="st9" d="M169.1,147.8c0,0.6-0.4,1-1,1c-0.6,0-1-0.4-1-1c0-0.6,0.4-1,1-1C168.7,146.8,169.1,147.2,169.1,147.8z
				 M167.3,159.2v-9h1.6v9H167.3z"/>
		</g>
		<g class="st6">
			<path class="st9" d="M171.6,153.1c0-1.1,0-2-0.1-2.8h1.4l0.1,1.8h0.1c0.4-1.2,1.4-2,2.5-2c0.2,0,0.3,0,0.5,0.1v1.5
				c-0.2,0-0.3-0.1-0.6-0.1c-1.1,0-2,0.9-2.2,2.1c0,0.2-0.1,0.5-0.1,0.8v4.8h-1.6V153.1z"/>
		</g>
		<g class="st6">
			<path class="st9" d="M182.5,159.2l-0.1-1.1h-0.1c-0.5,0.7-1.5,1.3-2.7,1.3c-1.8,0-2.7-1.3-2.7-2.6c0-2.2,1.9-3.3,5.4-3.3v-0.2
				c0-0.7-0.2-2.1-2-2.1c-0.8,0-1.7,0.3-2.3,0.7l-0.4-1.1c0.7-0.5,1.8-0.8,2.9-0.8c2.7,0,3.4,1.9,3.4,3.7v3.3c0,0.8,0,1.5,0.1,2.1
				H182.5z M182.3,154.7c-1.8,0-3.8,0.3-3.8,2c0,1.1,0.7,1.6,1.5,1.6c1.2,0,1.9-0.7,2.2-1.5c0.1-0.2,0.1-0.4,0.1-0.5V154.7z
				 M183.1,146.4l-2.3,2.6h-1.2l1.6-2.6H183.1z"/>
			<path class="st9" d="M186.5,152.7c0-0.9,0-1.7-0.1-2.4h1.4l0.1,1.4h0.1c0.5-0.9,1.3-1.6,2.8-1.6c1.2,0,2.1,0.7,2.5,1.8h0
				c0.3-0.5,0.6-0.9,1-1.2c0.5-0.4,1.1-0.6,2-0.6c1.2,0,2.9,0.8,2.9,3.9v5.3h-1.6v-5.1c0-1.7-0.6-2.8-1.9-2.8
				c-0.9,0-1.6,0.7-1.9,1.5c-0.1,0.2-0.1,0.5-0.1,0.8v5.5h-1.6v-5.4c0-1.4-0.6-2.5-1.9-2.5c-1,0-1.8,0.8-2,1.6
				c-0.1,0.2-0.1,0.5-0.1,0.8v5.4h-1.6V152.7z"/>
			<path class="st9" d="M203.7,147.8c0,0.6-0.4,1-1,1c-0.6,0-1-0.4-1-1c0-0.6,0.4-1,1-1C203.3,146.8,203.7,147.2,203.7,147.8z
				 M201.9,159.2v-9h1.6v9H201.9z"/>
			<path class="st9" d="M214,146.1v10.8c0,0.8,0,1.7,0.1,2.3h-1.5l-0.1-1.6h0c-0.5,1-1.6,1.8-3.1,1.8c-2.2,0-3.8-1.8-3.8-4.5
				c0-3,1.8-4.8,4-4.8c1.4,0,2.3,0.6,2.7,1.4h0v-5.3H214z M212.3,153.9c0-0.2,0-0.5-0.1-0.7c-0.2-1-1.1-1.9-2.3-1.9
				c-1.7,0-2.7,1.5-2.7,3.5c0,1.8,0.9,3.3,2.6,3.3c1.1,0,2.1-0.7,2.4-1.9c0.1-0.2,0.1-0.4,0.1-0.7V153.9z"/>
			<path class="st9" d="M217.6,155.1c0,2.2,1.4,3.1,3.1,3.1c1.2,0,1.9-0.2,2.5-0.5l0.3,1.2c-0.6,0.3-1.6,0.6-3,0.6
				c-2.8,0-4.4-1.8-4.4-4.5s1.6-4.8,4.2-4.8c2.9,0,3.7,2.6,3.7,4.2c0,0.3,0,0.6-0.1,0.8H217.6z M222.3,153.9c0-1-0.4-2.6-2.3-2.6
				c-1.6,0-2.4,1.5-2.5,2.6H222.3z"/>
			<path class="st9" d="M225.7,157.6c0.5,0.3,1.3,0.6,2.1,0.6c1.2,0,1.7-0.6,1.7-1.3c0-0.8-0.5-1.2-1.7-1.6
				c-1.6-0.6-2.4-1.5-2.4-2.5c0-1.4,1.2-2.6,3.1-2.6c0.9,0,1.7,0.3,2.2,0.6l-0.4,1.2c-0.4-0.2-1-0.5-1.8-0.5c-1,0-1.5,0.6-1.5,1.2
				c0,0.7,0.5,1.1,1.7,1.5c1.6,0.6,2.3,1.4,2.3,2.7c0,1.6-1.2,2.7-3.3,2.7c-1,0-1.9-0.2-2.5-0.6L225.7,157.6z"/>
		</g>
	</g>
</g>
<g>
	<defs>
		<rect id="SVGID_00000147927418772795370580000010728902363864059023_" x="-112" width="994.9" height="800.1"/>
	</defs>
	<clipPath id="SVGID_00000176006290401066282760000013303145600846136985_">
		<use xlink:href="#SVGID_00000147927418772795370580000010728902363864059023_"  style="overflow:visible;"/>
	</clipPath>
	<g style="clip-path:url(#SVGID_00000176006290401066282760000013303145600846136985_);">
		<path class="st11" d="M414.1,105.4H158.4c-6.9,0-12.4,4-12.4,8.9v105.7c0,4.9,5.6,8.9,12.4,8.9h255.6c6.8,0,12.4-4,12.4-8.9V114.3
			C426.5,109.4,420.9,105.4,414.1,105.4z"/>
		<path class="st14" d="M668.7,307.1h-0.2c0.9-0.8,1.8-1.5,2.6-2.4c19.6-19.6,19.6-51.3,0-70.9c-19.6-19.6-51.3-19.6-70.9,0
			c-19.6,19.6-19.6,51.3,0,70.9c0.8,0.9,1.7,1.6,2.6,2.4h-0.5l33.2,33.2L668.7,307.1z"/>
		<path class="st4" d="M636.2,310.4c21.8,0,39.4-17.7,39.4-39.4s-17.7-39.4-39.4-39.4c-21.8,0-39.4,17.6-39.4,39.4
			C596.8,292.8,614.4,310.4,636.2,310.4"/>
	</g>
</g>
<g>
	<defs>
		<path id="SVGID_00000148654573978884070780000001965311825293713583_" d="M596.5,270.4c0,21.8,17.7,39.5,39.5,39.5
			s39.5-17.7,39.5-39.5s-17.7-39.5-39.5-39.5l0,0C614.1,230.9,596.5,248.6,596.5,270.4"/>
	</defs>
	<clipPath id="SVGID_00000041989312180104271020000010905169758582038164_">
		<use xlink:href="#SVGID_00000148654573978884070780000001965311825293713583_"  style="overflow:visible;"/>
	</clipPath>
	<g style="clip-path:url(#SVGID_00000041989312180104271020000010905169758582038164_);">
		<g class="st6">
			<path class="st7" d="M622.7,263.5c-0.8,0.4-2.4,0.8-4.4,0.8c-4.7,0-8.2-3-8.2-8.4c0-5.2,3.5-8.7,8.7-8.7c2.1,0,3.4,0.4,3.9,0.7
				l-0.5,1.8c-0.8-0.4-2-0.7-3.4-0.7c-3.9,0-6.5,2.5-6.5,6.9c0,4.1,2.3,6.7,6.4,6.7c1.3,0,2.6-0.3,3.5-0.7L622.7,263.5z"/>
			<path class="st7" d="M625.3,246.5h2.2V264h-2.2V246.5z"/>
			<path class="st7" d="M637.7,264l-0.2-1.5h-0.1c-0.7,0.9-1.9,1.8-3.6,1.8c-2.4,0-3.6-1.7-3.6-3.4c0-2.9,2.6-4.5,7.2-4.4v-0.2
				c0-1-0.3-2.8-2.7-2.8c-1.1,0-2.3,0.3-3.1,0.9l-0.5-1.4c1-0.6,2.4-1.1,3.9-1.1c3.6,0,4.5,2.5,4.5,4.9v4.5c0,1,0,2,0.2,2.9H637.7z
				 M637.4,258c-2.4,0-5.1,0.4-5.1,2.7c0,1.4,0.9,2.1,2,2.1c1.6,0,2.5-1,2.9-2c0.1-0.2,0.1-0.5,0.1-0.7V258z"/>
			<path class="st7" d="M642.7,261.8c0.6,0.4,1.8,0.9,2.9,0.9c1.6,0,2.3-0.8,2.3-1.8c0-1-0.6-1.6-2.2-2.2c-2.1-0.8-3.2-1.9-3.2-3.4
				c0-1.9,1.6-3.5,4.1-3.5c1.2,0,2.3,0.3,2.9,0.7l-0.5,1.6c-0.5-0.3-1.3-0.7-2.4-0.7c-1.3,0-2,0.7-2,1.6c0,1,0.7,1.4,2.3,2
				c2.1,0.8,3.1,1.8,3.1,3.6c0,2.1-1.6,3.6-4.5,3.6c-1.3,0-2.5-0.3-3.4-0.8L642.7,261.8z"/>
			<path class="st7" d="M654,258.5c0,2.9,1.9,4.1,4.1,4.1c1.6,0,2.5-0.3,3.3-0.6l0.4,1.6c-0.8,0.3-2.1,0.7-4,0.7
				c-3.7,0-5.9-2.4-5.9-6c0-3.6,2.1-6.4,5.6-6.4c3.9,0,4.9,3.4,4.9,5.6c0,0.4,0,0.8-0.1,1H654z M660.4,256.9c0-1.4-0.6-3.5-3-3.5
				c-2.2,0-3.2,2-3.3,3.5H660.4z"/>
		</g>
		<g class="st6">
			<path class="st16" d="M629.3,296.5v-1.7l2.1-2.1c5.1-4.9,7.4-7.5,7.5-10.5c0-2-1-3.9-4-3.9c-1.8,0-3.3,0.9-4.3,1.7l-0.9-1.9
				c1.4-1.2,3.4-2,5.7-2c4.3,0,6.1,3,6.1,5.8c0,3.7-2.7,6.7-6.9,10.8l-1.6,1.5v0.1h9v2.2H629.3z"/>
		</g>
	</g>
</g>
<path class="st14" d="M218,88h-0.2c0.9-0.8,1.8-1.5,2.6-2.4c19.6-19.6,19.6-51.3,0-70.9c-19.6-19.6-51.3-19.6-70.9,0
	c-19.6,19.6-19.6,51.3,0,70.9c0.9,0.8,1.7,1.6,2.6,2.4h-0.5l33.2,33.2L218,88z"/>
<path class="st4" d="M185.5,91.3c21.8,0,39.4-17.7,39.4-39.4s-17.7-39.4-39.4-39.4c-21.8,0-39.4,17.7-39.4,39.4
	C146.1,73.7,163.8,91.3,185.5,91.3C185.5,91.3,185.5,91.3,185.5,91.3"/>
<g>
	<defs>
		<path id="SVGID_00000039106235808119857050000012123332097486821286_" d="M145.3,51c0,21.8,17.7,39.5,39.5,39.5
			s39.5-17.7,39.5-39.5s-17.7-39.5-39.5-39.5C163,11.5,145.3,29.2,145.3,51C145.3,51,145.3,51,145.3,51"/>
	</defs>
	<clipPath id="SVGID_00000176025360103164799350000018111176989333634482_">
		<use xlink:href="#SVGID_00000039106235808119857050000012123332097486821286_"  style="overflow:visible;"/>
	</clipPath>
	<g style="clip-path:url(#SVGID_00000176025360103164799350000018111176989333634482_);">
		<g class="st6">
			<path class="st7" d="M171.5,44.1c-0.8,0.4-2.4,0.8-4.4,0.8c-4.7,0-8.2-3-8.2-8.4c0-5.2,3.5-8.7,8.7-8.7c2.1,0,3.4,0.4,3.9,0.7
				l-0.5,1.8c-0.8-0.4-2-0.7-3.4-0.7c-3.9,0-6.5,2.5-6.5,6.9c0,4.1,2.3,6.7,6.4,6.7c1.3,0,2.6-0.3,3.5-0.7L171.5,44.1z"/>
			<path class="st7" d="M174.1,27.2h2.2v17.5h-2.2V27.2z"/>
			<path class="st7" d="M186.5,44.7l-0.2-1.5h-0.1c-0.7,0.9-1.9,1.8-3.6,1.8c-2.4,0-3.6-1.7-3.6-3.4c0-2.9,2.6-4.5,7.2-4.4v-0.2
				c0-1-0.3-2.8-2.7-2.8c-1.1,0-2.3,0.3-3.1,0.9l-0.5-1.4c1-0.6,2.4-1.1,3.9-1.1c3.6,0,4.5,2.5,4.5,4.9v4.5c0,1,0,2,0.2,2.9H186.5z
				 M186.2,38.6c-2.4,0-5.1,0.4-5.1,2.7c0,1.4,0.9,2.1,2,2.1c1.6,0,2.5-1,2.9-2c0.1-0.2,0.1-0.5,0.1-0.7V38.6z"/>
			<path class="st7" d="M191.5,42.5c0.6,0.4,1.8,0.9,2.9,0.9c1.6,0,2.3-0.8,2.3-1.8c0-1-0.6-1.6-2.2-2.2c-2.1-0.8-3.2-1.9-3.2-3.4
				c0-1.9,1.6-3.5,4.1-3.5c1.2,0,2.3,0.3,2.9,0.7l-0.5,1.6c-0.5-0.3-1.3-0.7-2.4-0.7c-1.3,0-2,0.7-2,1.6c0,1,0.7,1.4,2.3,2
				c2.1,0.8,3.1,1.8,3.1,3.6c0,2.1-1.6,3.6-4.5,3.6c-1.3,0-2.5-0.3-3.4-0.8L191.5,42.5z"/>
			<path class="st7" d="M202.8,39.1c0,2.9,1.9,4.1,4.1,4.1c1.6,0,2.5-0.3,3.3-0.6l0.4,1.6c-0.8,0.3-2.1,0.7-4,0.7
				c-3.7,0-5.9-2.4-5.9-6c0-3.6,2.1-6.4,5.6-6.4c3.9,0,4.9,3.4,4.9,5.6c0,0.4,0,0.8-0.1,1H202.8z M209.2,37.5c0-1.4-0.6-3.5-3-3.5
				c-2.2,0-3.2,2-3.3,3.5H209.2z"/>
		</g>
		<g class="st6">
			<path class="st16" d="M184,59.6L184,59.6l-3.5,1.9l-0.5-2.1l4.4-2.3h2.3v20H184V59.6z"/>
		</g>
	</g>
</g>
</svg>
