<svg id="Capa_1" data-name="Capa 1" xmlns="http://www.w3.org/2000/svg" xmlns:xlink="http://www.w3.org/1999/xlink" viewBox="0 0 994.88 569.76"><defs><style>.cls-1,.cls-13,.cls-8{fill:none;}.cls-2{clip-path:url(#clip-path);}.cls-3{fill:#c2d450;}.cls-4{fill:#fff;}.cls-5{clip-path:url(#clip-path-4);}.cls-6,.cls-9{font-size:18.47px;}.cls-15,.cls-24,.cls-6{fill:#3c3c3b;}.cls-15,.cls-17,.cls-24,.cls-25,.cls-6,.cls-9{font-family:MyriadPro-Regular, Myriad Pro;}.cls-7{letter-spacing:-0.03em;}.cls-8{stroke:#575756;stroke-linecap:round;stroke-linejoin:round;stroke-width:0.5px;}.cls-17,.cls-9{fill:#008ecf;}.cls-10{letter-spacing:-0.01em;}.cls-11{letter-spacing:0em;}.cls-12{letter-spacing:-0.01em;}.cls-13{stroke:#ef7d00;stroke-miterlimit:10;stroke-width:3px;}.cls-14{clip-path:url(#clip-path-6);}.cls-15,.cls-17{font-size:18.49px;}.cls-16{letter-spacing:-0.03em;}.cls-18{letter-spacing:-0.02em;}.cls-19{letter-spacing:0em;}.cls-20{letter-spacing:0em;}.cls-21{letter-spacing:0em;}.cls-22{fill:#ef7d00;}.cls-23{clip-path:url(#clip-path-8);}.cls-24{font-size:24.66px;}.cls-25{font-size:30.82px;fill:#3d99d4;}.cls-26{clip-path:url(#clip-path-9);}</style><clipPath id="clip-path"><rect class="cls-1" width="994.88" height="800.09"/></clipPath><clipPath id="clip-path-4"><path class="cls-1" d="M527.9,322.11c-6.86,0-12.41,4-12.41,8.91V436.73c0,4.92,5.55,8.91,12.41,8.91H783.52c6.85,0,12.41-4,12.41-8.91V331c0-4.92-5.56-8.91-12.41-8.91Z"/></clipPath><clipPath id="clip-path-6"><path class="cls-1" d="M269.62,104.65c-6.86,0-12.42,4-12.42,8.92V219.4c0,4.93,5.56,8.92,12.42,8.92H525.53c6.86,0,12.42-4,12.42-8.92V113.57c0-4.93-5.56-8.92-12.42-8.92Z"/></clipPath><clipPath id="clip-path-8"><path class="cls-1" d="M708.46,270.41a39.48,39.48,0,1,0,39.48-39.48,39.48,39.48,0,0,0-39.48,39.48"/></clipPath><clipPath id="clip-path-9"><path class="cls-1" d="M257.27,51a39.48,39.48,0,1,0,39.48-39.48A39.47,39.47,0,0,0,257.27,51"/></clipPath></defs><title>inde</title><g class="cls-2"><path class="cls-3" d="M401.52,418.88V322.25H367.38v97.09a23.29,23.29,0,1,1-46.57,0V116.9H286.65V419.43a57.44,57.44,0,0,0,114.87,0Z"/><path class="cls-3" d="M286.56,117.46a23.28,23.28,0,0,0-23.29-23.29H0V60H263.36a57.44,57.44,0,0,1,57.44,57.44"/><path class="cls-3" d="M846.62,509.85V427.41H812.48v82.91a23.29,23.29,0,0,1-46.58,0V485.64H731.75v24.77a57.44,57.44,0,0,0,114.87,0Z"/></g><rect class="cls-3" x="731.45" y="324.76" width="34.18" height="161.01"/><g class="cls-2"><path class="cls-3" d="M765.89,325.36a57.44,57.44,0,0,0-57.44-57.44H549.83v34.14H708.36a23.29,23.29,0,0,1,23.29,23.29"/><path class="cls-3" d="M367.43,325.36a57.44,57.44,0,0,1,57.44-57.44h125v34.14H425a23.28,23.28,0,0,0-23.29,23.29"/><path class="cls-3" d="M812.48,427.46A57.43,57.43,0,0,1,869.91,370h125v34.14H870a23.29,23.29,0,0,0-23.29,23.29"/></g><g class="cls-2"><path class="cls-4" d="M783.52,322.11H527.9c-6.86,0-12.41,4-12.41,8.91V436.73c0,4.92,5.55,8.91,12.41,8.91H783.52c6.85,0,12.41-4,12.41-8.91V331c0-4.92-5.56-8.91-12.41-8.91"/></g><g class="cls-5"><text class="cls-6" transform="translate(538.91 422.27)"><tspan class="cls-7">F</tspan><tspan x="8.42" y="0">echa: </tspan></text><line class="cls-8" x1="635.01" y1="421.89" x2="592.15" y2="421.89"/><text class="cls-6" transform="translate(635.4 422.27)"><tspan xml:space="preserve"> / </tspan></text><line class="cls-8" x1="692.82" y1="421.89" x2="649.95" y2="421.89"/><text class="cls-6" transform="translate(693.2 422.27)"><tspan xml:space="preserve"> / </tspan></text><line class="cls-8" x1="772.44" y1="421.89" x2="707.75" y2="421.89"/><text class="cls-9" transform="translate(525.68 348.93)"><tspan class="cls-10">V</tspan><tspan x="10.03" y="0">istas de cue</tspan><tspan class="cls-11" x="99.22" y="0">r</tspan><tspan x="105.31" y="0">pos </tspan></text><text class="cls-9" transform="translate(525.68 376.64)"><tspan class="cls-12">r</tspan><tspan x="5.87" y="0">edondos</tspan></text></g><g class="cls-2"><path class="cls-13" d="M783.52,322.11H527.9c-6.86,0-12.41,4-12.41,8.91V436.73c0,4.92,5.55,8.91,12.41,8.91H783.52c6.85,0,12.41-4,12.41-8.91V331C795.93,326.1,790.37,322.11,783.52,322.11Z"/><path class="cls-4" d="M526.06,105.44H270.44c-6.85,0-12.41,4-12.41,8.9V220.06c0,4.92,5.56,8.91,12.41,8.91H526.06c6.85,0,12.41-4,12.41-8.91V114.34c0-4.92-5.56-8.9-12.41-8.9"/></g><g class="cls-14"><text class="cls-15" transform="translate(280.64 204.93)"><tspan class="cls-16">F</tspan><tspan x="8.45" y="0">echa: </tspan></text><line class="cls-8" x1="376.86" y1="204.54" x2="333.94" y2="204.54"/><text class="cls-15" transform="translate(377.24 204.93)"><tspan xml:space="preserve"> / </tspan></text><line class="cls-8" x1="434.73" y1="204.54" x2="391.81" y2="204.54"/><text class="cls-15" transform="translate(435.11 204.93)"><tspan xml:space="preserve"> / </tspan></text><line class="cls-8" x1="514.44" y1="204.54" x2="449.68" y2="204.54"/><text class="cls-17" transform="translate(267.4 131.5)"><tspan class="cls-18">V</tspan><tspan x="10.02" y="0">istas de p</tspan><tspan class="cls-19" x="82.09" y="0">r</tspan><tspan class="cls-20" x="88.2" y="0">ismas y </tspan></text><text class="cls-17" transform="translate(267.4 159.24)">pi<tspan class="cls-21" x="14.85" y="0">r</tspan><tspan class="cls-20" x="20.82" y="0">ámides</tspan></text></g><g class="cls-2"><path class="cls-13" d="M526.06,105.44H270.44c-6.85,0-12.41,4-12.41,8.9V220.06c0,4.92,5.56,8.91,12.41,8.91H526.06c6.85,0,12.41-4,12.41-8.91V114.34C538.47,109.42,532.91,105.44,526.06,105.44Z"/><path class="cls-22" d="M780.71,307.1h-.25c.89-.77,1.78-1.53,2.63-2.38a50.14,50.14,0,1,0-70.91,0c.84.85,1.74,1.61,2.63,2.38h-.47l33.18,33.19Z"/><path class="cls-4" d="M748.22,310.44A39.43,39.43,0,1,0,708.79,271a39.43,39.43,0,0,0,39.43,39.43"/></g><g class="cls-23"><text class="cls-24" transform="translate(721.21 264.05)">Clase</text><text class="cls-25" transform="translate(739.87 296.49)">2</text></g><path class="cls-22" d="M330,88h-.25c.88-.77,1.78-1.53,2.62-2.38a50.14,50.14,0,1,0-70.91,0c.85.85,1.74,1.61,2.63,2.38h-.47l33.19,33.19Z"/><path class="cls-4" d="M297.54,91.31A39.43,39.43,0,1,0,258.1,51.88a39.43,39.43,0,0,0,39.44,39.43"/><g class="cls-26"><text class="cls-24" transform="translate(270.01 44.67)">Clase</text><text class="cls-25" transform="translate(288.68 77.11)">1</text></g></svg>