<svg id="Capa_1" data-name="Capa 1" xmlns="http://www.w3.org/2000/svg" xmlns:xlink="http://www.w3.org/1999/xlink" viewBox="0 0 233.66 117.46"><defs><style>.cls-1{fill:none;stroke-miterlimit:10;}.cls-1,.cls-2,.cls-3{stroke:#161111;}.cls-2,.cls-3{stroke-width:0.5px;}.cls-2{fill:url(#Degradado_sin_nombre_148);}.cls-3{fill:url(#Degradado_sin_nombre_148-2);}</style><linearGradient id="Degradado_sin_nombre_148" x1="66.39" y1="107.02" x2="66.39" y2="9.29" gradientUnits="userSpaceOnUse"><stop offset="0" stop-color="#ff7f15"/><stop offset="0.04" stop-color="#ff841e"/><stop offset="0.11" stop-color="#ff9238"/><stop offset="0.2" stop-color="#ffa961"/><stop offset="0.31" stop-color="#ffc89b"/><stop offset="0.42" stop-color="#fff0e3"/><stop offset="0.47" stop-color="#fff"/><stop offset="0.55" stop-color="#ffedc4"/><stop offset="0.63" stop-color="#ffdd8f"/><stop offset="0.72" stop-color="#ffd064"/><stop offset="0.8" stop-color="#ffc541"/><stop offset="0.87" stop-color="#ffbe29"/><stop offset="0.94" stop-color="#ffba1a"/><stop offset="1" stop-color="#ffb815"/></linearGradient><linearGradient id="Degradado_sin_nombre_148-2" x1="167.32" y1="116.96" x2="167.32" y2="0.5" xlink:href="#Degradado_sin_nombre_148"/></defs><title>mat</title><path class="cls-1" d="M131.23,106.94a6.58,6.58,0,0,0,1,.08c.33,0-.65-.08-1-.13Zm0-97.6v.08c.33-.05,1.31-.13,1-.13a8,8,0,0,0-1,.05M.5,58.15C.5,85.14,8.8,107,19,107H131.23v-.08c-8.79-1.49-18.16-22.76-18.16-48.79,0-26.2,7.39-47.59,18.16-48.81V9.29H19.15l-.11,0C8.8,9.28.5,31.16.5,58.15"/><path class="cls-2" d="M131.23,106.89c.33,0,1.31.13,1,.13-9.06,0-19.14-21.88-19.14-48.87s7.84-48.86,19.14-48.86c.33,0-.65.08-1,.13V9.29H19C8.8,9.29.5,31.16.5,58.15S8.8,107,19,107H131.23Z"/><path class="cls-1" d="M102.08,58.43c0,33.94,10.67,58.67,17.68,58.53.54-.13,112.81-58.21,112.81-58.21L119.49.5h-.15c-1.7,0-17.26,1.54-17.26,57.93"/><path class="cls-3" d="M102.08,58.43c0,33.93,10.66,58.67,17.68,58.53.54-.13,112.81-58.21,112.81-58.21L119.49.5S102.08-1.22,102.08,58.43Z"/></svg>