<?xml version="1.0" encoding="utf-8"?>
<!-- Generator: Adobe Illustrator 25.3.1, SVG Export Plug-In . SVG Version: 6.00 Build 0)  -->
<svg version="1.1" id="Capa_1" xmlns="http://www.w3.org/2000/svg" xmlns:xlink="http://www.w3.org/1999/xlink" x="0px" y="0px"
	 viewBox="0 0 595.3 841.9" style="enable-background:new 0 0 595.3 841.9;" xml:space="preserve">
<style type="text/css">
	.st0{fill:#FFFFFF;}
	.st1{clip-path:url(#SVGID_2_);fill:#4E8DCC;}
	.st2{clip-path:url(#SVGID_4_);fill:#FFFFFF;}
	.st3{clip-path:url(#SVGID_6_);fill:none;stroke:#585757;stroke-width:0.5;}
	.st4{clip-path:url(#SVGID_8_);fill:#FFFFFF;}
	.st5{clip-path:url(#SVGID_10_);fill:none;stroke:#585757;stroke-width:0.5;}
	.st6{clip-path:url(#SVGID_12_);fill:none;stroke:#585757;stroke-width:0.5;stroke-dasharray:1.989,1.989;}
	.st7{clip-path:url(#SVGID_14_);fill:#4E8DCC;}
</style>
<rect x="0.2" y="-0.7" class="st0" width="602.4" height="848.1"/>
<g>
	<g>
		<defs>
			<rect id="SVGID_1_" x="-22.2" y="-19.2" width="405.1" height="870.3"/>
		</defs>
		<clipPath id="SVGID_2_">
			<use xlink:href="#SVGID_1_"  style="overflow:visible;"/>
		</clipPath>
		<path class="st1" d="M354.6,21.7c0,0-2,7.8,7.4,11.5c0,0,4,1.2,6.7,2.6c0,0,2.3-6.3-3.8-11.7C364.8,24.1,360.4,20.7,354.6,21.7
			 M71.7,66.5c0,2.2,1.8,4.1,4.1,4.1s4.1-1.8,4.1-4.1c0-2.2-1.8-4.1-4.1-4.1S71.7,64.2,71.7,66.5 M66.8,68.8c0-6,4.9-10.9,10.9-10.9
			s10.9,4.9,10.9,10.9s-4.9,10.9-10.9,10.9C71.7,79.6,66.8,74.8,66.8,68.8 M64.8,68.8c0,7.1,5.8,12.9,12.9,12.9s12.9-5.8,12.9-12.9
			s-5.8-12.9-12.9-12.9C70.6,55.9,64.8,61.7,64.8,68.8 M46.2,66.5c0,2.2,1.8,4.1,4.1,4.1s4.1-1.8,4.1-4.1c0-2.2-1.8-4.1-4.1-4.1
			S46.2,64.2,46.2,66.5 M47,79.6c-6,0-10.9-4.9-10.9-10.9S41,57.8,47,57.8s10.9,4.9,10.9,10.9C57.8,74.8,53,79.6,47,79.6 M47,81.6
			c7.1,0,12.9-5.8,12.9-12.9S54.1,55.8,47,55.8s-12.9,5.8-12.9,12.9C34.1,75.9,39.9,81.6,47,81.6 M56,94.6c0,0-3.7-0.1-7.1,3.7
			c0,0-3.5,4.4-0.8,8.4c0,0,4,0.4,7.4-4.1C55.6,102.7,58.1,99.4,56,94.6 M66.3,75.9h-7.9l4.2,10L66.3,75.9z M67.4,102.2
			c0,0-2-3-6.1-2.2c0,0-4.2,0.9-4.9,4.4c0,0,2.2,1.8,5.7,1.2C62.2,105.6,65.5,104.9,67.4,102.2 M50.4,109.1c2.2,4.3,6.6,5.5,6.6,5.5
			c6.6,1.2,9.7-3.5,9.7-3.5c-2.2-1.1-5-3-5-3C54.6,103.8,50.4,109.1,50.4,109.1 M330.9,16.1c0,0-3.2,2-3.4,0c0,0,0.7-5.3,3.1-8.9
			L330.9,16.1z M302,16.1c-0.2,0.7-1.7-1.3-1.7-1.3c-2.2-5.3-3-9.3-3-9.3c0.6,0.5,2.7,3.3,2.7,3.3C303.2,15.6,302,16.1,302,16.1
			 M276.3,10.7c0,0-2,3.6-2.1,0.9c0,0,0.4-7.1,1.9-12.5L276.3,10.7z M248.1,16.1c0,0-2.9,2.6-3.1,0c0,0,0.6-6.9,2.8-11.5L248.1,16.1
			z M216.8,0.4c0,0-8.1,39.8-3.7-0.7C213.2-0.3,214.9-2.3,216.8,0.4 M193,7.5v11.6c0,0-2.2,3.7-2.3,1C190.7,20.2,191.3,13,193,7.5
			 M173.4-1.4l-0.3,11.5c0,0-1.8,1.8-1.8-0.9C171.3,9.3,172,2.6,173.4-1.4 M22.6,117c-4.6,1.7-11.5,2.2-11.5,2.2
			c-2.7-0.1,0-2.5,0-2.5L22.6,117z M2.5,103.9c-2.7-1.9-0.7-3.7-0.7-3.7C42.3,95.8,2.5,103.9,2.5,103.9 M16.9-0.2L11,10.9
			c0,0-2.9-0.4-1.6-3C9.3,7.9,13.3,2,16.9-0.2 M2.7,25.3c0,0,7,0.5,11.9,1.9L3.1,27.3C3.1,27.3,0.1,25.4,2.7,25.3 M3.7,47
			c-2.7-0.1,0-2.3,0-2.3L15.2,45C10.5,46.5,3.7,47,3.7,47 M14.9,63.3L3.3,63c0,0-1.8-1.8,0.9-1.8C4.3,61.2,10.9,61.9,14.9,63.3
			 M-0.1,77.7c0,0,7.2,0.5,12.6,2L0.9,79.9C0.9,79.9-2.7,77.8-0.1,77.7 M2.7,182.9c0,0,7.2,0.6,12.7,2.3H3.8
			C3.7,185.1,0.1,182.9,2.7,182.9 M21.2,378.6c2.7,1.7,0.7,3.3,0.7,3.3C-18.6,385.9,21.2,378.6,21.2,378.6 M23.1,432.8
			c2.6,1.8,0.5,3.3,0.5,3.3C-17.2,439.3,23.1,432.8,23.1,432.8 M13.3,460.7c-2.7-0.2,0-3.3,0-3.3l11.5,0.3
			C20.2,460,13.3,460.7,13.3,460.7 M7.1,475.8c0,0,7,0.5,11.9,1.9l-11.5,0.1C7.5,477.8,4.5,475.9,7.1,475.8 M7.3,588.6
			c0,0,7,0.5,11.9,1.9l-11.5,0.1C7.7,590.6,4.6,588.7,7.3,588.6 M28.1,720.1l-11.5,0.2c0,0-3.6-2-0.9-2.1
			C15.6,718.2,22.7,718.7,28.1,720.1 M27.7,692.5l-11.5,0.3c0,0-2.6-2.9,0-3.1C16.2,689.7,23.1,690.3,27.7,692.5 M24.8,660.7
			c0,0-39.8-8.1,0.7-3.7C25.5,657,27.4,658.8,24.8,660.7 M21.2,636.9H9.6c0,0-3.7-2.2-1-2.3C8.5,634.5,15.8,635.2,21.2,636.9
			 M14.6,604.3c0,0-2.6-2.6,0-2.7c0,0,6.9,0.6,11.5,2.4L14.6,604.3z M32.6,568.7c-4.6,1.7-11.5,2.2-11.5,2.2c-2.7-0.1,0-2.5,0-2.5
			L32.6,568.7z M21.2,524.7c0,0-1.8-1.8,0.9-1.8c0,0,6.6,0.7,10.6,2.1L21.2,524.7z M16.3,412.4c0,0-3.3-2.5-0.6-2.6
			c0,0,7.1,0.9,12.3,2.9L16.3,412.4z M14.6,486.7l11.5,0.2c-4.6,1.6-11.5,2-11.5,2C12,488.8,14.6,486.7,14.6,486.7 M11.8,551.9
			c40.5-4.4,0.7,3.7,0.7,3.7C9.8,553.7,11.8,551.9,11.8,551.9 M10.9,531.6c0,0-3.6-2.1-1-2.2c0,0,7.2,0.5,12.6,2L10.9,531.6z
			 M30.9,318.3l-11.5,0.3c0,0-2.6-3.2,0-3.4C19.4,315.2,26.2,316,30.9,318.3 M23.2,205.4c0,0,2,1.8-0.7,3.7
			C22.5,209-17.3,200.9,23.2,205.4 M4.9,296.7c-0.7-0.2,1.3-1.7,1.3-1.7c5.3-2.2,9.3-3,9.3-3c-0.5,0.6-3.3,2.7-3.3,2.7
			C5.5,297.9,4.9,296.7,4.9,296.7 M16,241.8c0,0-2.6-2.9,0-3.1c0,0,6.9,0.6,11.5,2.8L16,241.8z M28,261.3l-11.5,0.2
			c0,0-3.6-2-0.9-2.1C15.5,259.5,22.6,259.9,28,261.3 M9.9,359.4c0,0,7.2,1.3,12.5,3.8l-11.7-0.8C10.6,362.4,7.2,359.3,9.9,359.4
			 M8.6,343c-0.7-0.2,1.6-1.8,1.6-1.8c5.7-2.4,9.9-3.2,9.9-3.2c-0.6,0.6-3.8,2.8-3.8,2.8C9,344.3,8.6,343,8.6,343 M29.1,162.6
			l-11.5-0.3c0,0-1.8-1.8,0.9-1.8C18.5,160.6,25.1,161.2,29.1,162.6 M4,139c0,0-3.1-1.9-0.4-2c0,0,7,0.5,11.9,1.9L4,139z
			 M22.5,152.4L11,152.7c0,0-2.6-2.6,0-2.7C11,150,17.8,150.5,22.5,152.4 M361.3,18.9c0,0-0.6-10-44.2-15.9L158.4-19.2H48.3h-8.4
			h-62.1v870.1l53.1,0.2c0,0,1.3-94.3-0.7-128c0,0-0.7-47.5,0.7-80.3c0,0,0.9-11.1,1.8-28.5L21.2,614c0,0-1.8-1.8,0.9-1.8
			c0,0,6.6,0.6,10.6,2.1c0.8-15.1,1.5-34.8,1.5-56.1c0,0,2-44.9,0-59.6c0,0-2-16.4-2.6-52.7c0,0,0.7-44.9,0-60.5
			c0,0,3.9-18.1,3.3-44.9c0,0,0.7-21.6-0.7-36.3c0,0-2.6-19.9,0-37.1c0,0,5.3-28.5,0.7-66.5c0,0-4.6-35.4-5.9-59.6
			c0,0,1.3-8.6,3-20.2c13.6-6.7,20.4-14.6,20.4-14.6c-5.4,3.1-13,6.2-19.9,8.6C18.7,96,31.4,56.4,31.4,56.4
			c1.9-9.8-2.6-11.5-3.3-11.7c14.5,3.7,14.8,9,14.8,9l0.3-0.6c0,0,19.6-12.7,40.9,1.4c0,0-0.9-6.4,14.5-9.8c0.2-0.1,0.3-0.1,0.3-0.1
			c-0.1,0-0.2,0-0.3,0.1c-0.9,0.3-3.9,1.9-2.6,10.6l47.8-9.7c0,0,16.3-2.6,48.2-8.9c28-5.7,45.9-8.6,71.4-11.6c0,0,38-4,53.9-4.5
			C317.3,20.7,354,21.2,361.3,18.9 M377.3,3.5c0,0-4.2-1.8-10.4,1.2c0,0-6.7,3.6-6.3,9.5c0,0,4.3,2.2,11.1-1.5
			C371.7,12.8,376.6,10,377.3,3.5 M382.9,21.7c0,0-1.4-4.9-7.8-5.7c0,0-6.6-0.7-9.3,3.7c0,0,2.4,3.5,7.8,4.2
			C373.6,23.8,378.7,24.5,382.9,21.7 M27.7,817.8L16.2,818c0,0-3.6-2-0.9-2.1C15.2,816,22.3,816.4,27.7,817.8 M27.3,790.2l-11.5,0.3
			c0,0-2.6-2.9,0-3.1C15.8,787.4,22.6,788,27.3,790.2 M24.3,758.4c0,0-39.8-8.1,0.7-3.7C25,754.8,27,756.5,24.3,758.4 M20.8,734.6
			H9.2c0,0-3.7-2.2-1-2.3C8.1,732.3,15.3,732.9,20.8,734.6"/>
	</g>
	<g>
		<defs>
			<rect id="SVGID_3_" x="-22.2" y="-19.2" width="405.1" height="870.3"/>
		</defs>
		<clipPath id="SVGID_4_">
			<use xlink:href="#SVGID_3_"  style="overflow:visible;"/>
		</clipPath>
		<path class="st2" d="M29.3,505.2c0-5-4-9-9-9s-9,4-9,9c0,4.9,4,9,9,9S29.3,510.2,29.3,505.2"/>
	</g>
	<g>
		<defs>
			<rect id="SVGID_5_" x="-22.2" y="-19.2" width="405.1" height="870.3"/>
		</defs>
		<clipPath id="SVGID_6_">
			<use xlink:href="#SVGID_5_"  style="overflow:visible;"/>
		</clipPath>
		<path class="st3" d="M29.3,505.2c0-5-4-9-9-9s-9,4-9,9c0,4.9,4,9,9,9S29.3,510.2,29.3,505.2z"/>
	</g>
	<g>
		<defs>
			<rect id="SVGID_7_" x="-22.2" y="-19.2" width="405.1" height="870.3"/>
		</defs>
		<clipPath id="SVGID_8_">
			<use xlink:href="#SVGID_7_"  style="overflow:visible;"/>
		</clipPath>
		<path class="st4" d="M29.3,276.7c0-4.9-4-9-9-9s-9,4-9,9s4,9,9,9C25.3,285.6,29.3,281.6,29.3,276.7"/>
	</g>
	<g>
		<defs>
			<rect id="SVGID_9_" x="-22.2" y="-19.2" width="405.1" height="870.3"/>
		</defs>
		<clipPath id="SVGID_10_">
			<use xlink:href="#SVGID_9_"  style="overflow:visible;"/>
		</clipPath>
		<path class="st5" d="M29.3,276.7c0-4.9-4-9-9-9s-9,4-9,9s4,9,9,9C25.3,285.6,29.3,281.6,29.3,276.7z"/>
	</g>
	<g>
		<defs>
			<rect id="SVGID_11_" x="-22.2" y="-19.2" width="405.1" height="870.3"/>
		</defs>
		<clipPath id="SVGID_12_">
			<use xlink:href="#SVGID_11_"  style="overflow:visible;"/>
		</clipPath>
		<line class="st6" x1="39.5" y1="390.9" x2="-22.2" y2="390.9"/>
	</g>
</g>
<g>
	<g>
		<defs>
			<rect id="SVGID_13_" x="69.8" y="109.6" width="562" height="5.3"/>
		</defs>
		<clipPath id="SVGID_14_">
			<use xlink:href="#SVGID_13_"  style="overflow:visible;"/>
		</clipPath>
		<path class="st7" d="M85.1,112.4c0,0-8.8-1.8-15.3-1.6l14.1,4.2C83.9,114.9,88.4,113.4,85.1,112.4 M106.6,110.5
			c0,0-9,0.6-15.1,2.4l15.2,0.3C106.6,113.2,110.1,110.7,106.6,110.5 M115.8,113.2L131,113c-6.1-1.9-15.1-2.4-15.1-2.4
			C112.3,110.7,115.8,113.2,115.8,113.2 M138.5,114.9l14.1-4.2c-6.6-0.2-15.3,1.6-15.3,1.6C134.1,113.4,138.5,114.9,138.5,114.9
			 M159.3,112.3l15,1.7c-5.6-2.7-14.3-4.4-14.3-4.4C156.4,109.3,159.3,112.3,159.3,112.3 M182.1,114.9l14.1-4.2
			c-6.6-0.2-15.3,1.6-15.3,1.6C177.7,113.4,182.1,114.9,182.1,114.9 M203.3,113.2l15.2-0.3c-6.1-1.9-15.1-2.4-15.1-2.4
			C199.9,110.7,203.3,113.2,203.3,113.2 M226,114.9l14.1-4.2c-6.6-0.2-15.3,1.6-15.3,1.6C221.6,113.4,226,114.9,226,114.9
			 M246.8,112.3l15,1.7c-5.6-2.7-14.3-4.4-14.3-4.4C244,109.3,246.8,112.3,246.8,112.3 M269.6,114.9l14.1-4.2
			c-6.6-0.2-15.3,1.6-15.3,1.6C265.2,113.4,269.6,114.9,269.6,114.9 M290.2,113.2l15.2-0.3c-6.1-1.9-15.1-2.4-15.1-2.4
			C286.8,110.7,290.2,113.2,290.2,113.2 M312.9,114.9l14.1-4.2c-6.6-0.2-15.3,1.6-15.3,1.6C308.5,113.4,312.9,114.9,312.9,114.9
			 M333.7,112.3l15,1.7c-5.6-2.7-14.3-4.4-14.3-4.4C330.9,109.3,333.7,112.3,333.7,112.3 M356.5,114.9l14.1-4.2
			c-6.6-0.2-15.3,1.6-15.3,1.6C352.1,113.4,356.5,114.9,356.5,114.9 M377.8,113.2l15.2-0.3c-6.1-1.9-15.1-2.4-15.1-2.4
			C374.3,110.7,377.8,113.2,377.8,113.2 M400.4,114.9l14.1-4.2c-6.6-0.2-15.3,1.6-15.3,1.6C396,113.4,400.4,114.9,400.4,114.9
			 M421.2,112.3l15,1.7c-5.6-2.7-14.3-4.4-14.3-4.4C418.4,109.3,421.2,112.3,421.2,112.3 M444.1,114.9l14.1-4.2
			c-6.6-0.2-15.3,1.6-15.3,1.6C439.7,113.4,444.1,114.9,444.1,114.9 M463.9,113.2L479,113c-6.1-1.9-15.1-2.4-15.1-2.4
			C460.4,110.7,463.9,113.2,463.9,113.2 M486.5,114.9l14.1-4.2c-6.6-0.2-15.3,1.6-15.3,1.6C482.1,113.4,486.5,114.9,486.5,114.9
			 M507.3,112.3l15,1.7c-5.6-2.7-14.4-4.4-14.4-4.4C504.5,109.3,507.3,112.3,507.3,112.3 M530.2,114.9l14.1-4.2
			c-6.6-0.2-15.3,1.6-15.3,1.6C525.8,113.4,530.2,114.9,530.2,114.9 M551.4,113.2l15.2-0.3c-6.1-1.9-15.1-2.4-15.1-2.4
			C547.9,110.7,551.4,113.2,551.4,113.2 M574,114.9l14.1-4.2c-6.6-0.2-15.3,1.6-15.3,1.6C569.6,113.4,574,114.9,574,114.9
			 M594.8,112.3l15,1.7c-5.6-2.7-14.3-4.4-14.3-4.4C592,109.3,594.8,112.3,594.8,112.3 M631.8,110.7c-6.6-0.2-15.3,1.6-15.3,1.6
			c-3.2,1.1,1.2,2.6,1.2,2.6L631.8,110.7z"/>
	</g>
</g>
</svg>
