<?xml version="1.0" encoding="utf-8"?>
<!-- Generator: Adobe Illustrator 25.4.1, SVG Export Plug-In . SVG Version: 6.00 Build 0)  -->
<svg version="1.1" id="Capa_1" xmlns="http://www.w3.org/2000/svg" xmlns:xlink="http://www.w3.org/1999/xlink" x="0px" y="0px"
	 viewBox="0 0 820 1056" style="enable-background:new 0 0 820 1056;" xml:space="preserve">
<style type="text/css">
	.st0{fill:#FFFFFF;}
	.st1{clip-path:url(#SVGID_00000061456708382059339250000009359040222928451461_);fill:#4E8DCC;}
	.st2{clip-path:url(#SVGID_00000046309165435879579170000009028286288469922706_);fill:#FFFFFF;}
	.st3{clip-path:url(#SVGID_00000064329345118150561630000014454671741156695456_);fill:none;stroke:#585757;stroke-width:0.5;}
	.st4{clip-path:url(#SVGID_00000164476626429353489500000013518727603370424986_);fill:#FFFFFF;}
	.st5{clip-path:url(#SVGID_00000073687506650322639400000002930490957659618720_);fill:none;stroke:#585757;stroke-width:0.5;}
	
		.st6{clip-path:url(#SVGID_00000127743230037189998060000005875332595597232311_);fill:none;stroke:#585757;stroke-width:0.5;stroke-dasharray:1.989,1.989;}
	.st7{clip-path:url(#SVGID_00000124848110392785231070000014512988761325345724_);fill:#4E8DCC;}
</style>
<rect x="-40.1" y="-32" class="st0" width="1010.2" height="1312.8"/>
<g>
	<g>
		<g>
			<g>
				<defs>
					<rect id="SVGID_1_" x="-21.5" y="-21" width="608.6" height="1307.4"/>
				</defs>
				<clipPath id="SVGID_00000031175100595118125230000014745579406290763153_">
					<use xlink:href="#SVGID_1_"  style="overflow:visible;"/>
				</clipPath>
				<path style="clip-path:url(#SVGID_00000031175100595118125230000014745579406290763153_);fill:#4E8DCC;" d="M544.6,40.4
					c0,0-3,11.7,11.1,17.3c0,0,6,1.8,10.1,3.9c0,0,3.4-9.5-5.7-17.5C559.8,44,553.3,38.9,544.6,40.4 M119.6,107.7
					c0,3.3,2.7,6.2,6.2,6.2c3.4,0,6.2-2.7,6.2-6.2c0-3.3-2.7-6.2-6.2-6.2C122.3,101.5,119.6,104.3,119.6,107.7 M112.3,111.2
					c0-9,7.3-16.3,16.3-16.3s16.3,7.3,16.3,16.3s-7.3,16.3-16.3,16.3C119.6,127.5,112.3,120.2,112.3,111.2 M109.2,111.2
					c0,10.7,8.8,19.4,19.4,19.4s19.4-8.8,19.4-19.4s-8.8-19.4-19.4-19.4S109.2,100.6,109.2,111.2 M81.2,107.7c0,3.3,2.7,6.2,6.2,6.2
					c3.4,0,6.2-2.7,6.2-6.2c0-3.3-2.7-6.2-6.2-6.2C84,101.5,81.2,104.3,81.2,107.7 M82.4,127.5c-9,0-16.3-7.3-16.3-16.3
					s7.3-16.5,16.3-16.5S98.8,102,98.8,111C98.6,120.2,91.5,127.5,82.4,127.5 M82.4,130.4c10.7,0,19.4-8.8,19.4-19.4
					s-8.8-19.4-19.4-19.4S63,100.3,63,111C63.1,121.9,71.8,130.4,82.4,130.4 M96,149.9c0,0-5.6-0.1-10.7,5.6c0,0-5.2,6.6-1.2,12.7
					c0,0,6,0.6,11.1-6.2C95.4,162.1,99.1,157.2,96,149.9 M111.4,121.9H99.6l6.3,15L111.4,121.9z M113.1,161.3c0,0-3-4.5-9.1-3.3
					c0,0-6.3,1.3-7.3,6.6c0,0,3.3,2.7,8.5,1.8C105.3,166.5,110.2,165.5,113.1,161.3 M87.6,171.7c3.3,6.5,9.9,8.3,9.9,8.3
					c9.9,1.8,14.6-5.2,14.6-5.2c-3.3-1.7-7.5-4.5-7.5-4.5C93.9,163.8,87.6,171.7,87.6,171.7 M508.9,32c0,0-4.9,3-5.1,0
					c0,0,1.1-7.9,4.6-13.4L508.9,32z M465.5,32c-0.4,1.1-2.6-1.9-2.6-1.9c-3.3-7.9-4.5-14-4.5-14c0.9,0.7,4,5,4,5
					C467.4,31.3,465.5,32,465.5,32 M426.9,23.9c0,0-3,5.4-3.2,1.3c0,0,0.6-10.7,2.8-18.8L426.9,23.9z M384.5,32c0,0-4.4,3.9-4.6,0
					c0,0,0.9-10.4,4.3-17.3L384.5,32z M337.5,8.5c0,0-12.2,59.8-5.6-1.1C332.2,7.4,334.7,4.3,337.5,8.5 M301.8,19.1v17.4
					c0,0-3.3,5.6-3.4,1.5C298.3,38.2,299.3,27.4,301.8,19.1 M272.3,5.8L271.8,23c0,0-2.7,2.7-2.7-1.3
					C269.2,21.9,270.3,11.8,272.3,5.8 M45.8,183.6c-6.9,2.6-17.3,3.3-17.3,3.3c-4-0.1,0-3.8,0-3.8L45.8,183.6z M15.7,163.9
					c-4-2.8-1.1-5.6-1.1-5.6C75.4,151.7,15.7,163.9,15.7,163.9 M37.2,7.5l-8.9,16.7c0,0-4.4-0.6-2.4-4.5
					C25.8,19.7,31.9,10.9,37.2,7.5 M15.9,45.9c0,0,10.5,0.7,17.9,2.8l-17.3,0.1C16.5,48.9,12,46,15.9,45.9 M17.4,78.4
					c-4-0.1,0-3.4,0-3.4l17.3,0.5C27.6,77.7,17.4,78.4,17.4,78.4 M34.2,103l-17.4-0.5c0,0-2.7-2.7,1.3-2.7
					C18.4,99.8,28.2,100.8,34.2,103 M11.7,124.6c0,0,10.8,0.7,18.9,3l-17.4,0.4C13.2,127.9,7.8,124.7,11.7,124.6 M15.9,282.6
					c0,0,10.8,0.9,19.1,3.4H17.5C17.4,286,12,282.6,15.9,282.6 M43.7,576.6c4,2.6,1.1,5,1.1,5C-16.1,587.6,43.7,576.6,43.7,576.6
					 M46.6,658c3.9,2.7,0.7,5,0.7,5C-13.9,667.7,46.6,658,46.6,658 M31.9,699.9c-4-0.4,0-5,0-5l17.3,0.5
					C42.2,698.9,31.9,699.9,31.9,699.9 M22.5,722.7c0,0,10.5,0.7,17.9,2.8l-17.3,0.1C23.1,725.6,18.6,722.8,22.5,722.7 M22.9,892.1
					c0,0,10.5,0.7,17.9,2.8L23.5,895C23.5,895,18.7,892.2,22.9,892.1 M54.1,1089.6l-17.3,0.4c0,0-5.4-3-1.3-3.2
					C35.3,1086.8,46,1087.5,54.1,1089.6 M53.5,1048.2l-17.3,0.5c0,0-3.9-4.4,0-4.6C36.3,1043.9,46.6,1044.9,53.5,1048.2
					 M49.2,1000.4c0,0-59.8-12.2,1.1-5.6C50.2,994.8,53.1,997.5,49.2,1000.4 M43.7,964.6H26.3c0,0-5.6-3.3-1.5-3.4
					C24.7,961.1,35.5,962,43.7,964.6 M33.8,915.6c0,0-3.9-3.9,0-4c0,0,10.4,0.9,17.3,3.6L33.8,915.6z M60.9,862.1
					c-6.9,2.6-17.3,3.3-17.3,3.3c-4-0.1,0-3.8,0-3.8L60.9,862.1z M43.7,796c0,0-2.7-2.7,1.3-2.7c0,0,9.9,1.1,16,3.2L43.7,796z
					 M36.4,627.4c0,0-5-3.8-0.9-3.9c0,0,10.7,1.3,18.5,4.4L36.4,627.4z M33.8,739l17.3,0.4c-6.9,2.4-17.3,3-17.3,3
					C29.9,742.2,33.8,739,33.8,739 M29.6,836.9c60.8-6.6,1.1,5.6,1.1,5.6C26.5,839.6,29.6,836.9,29.6,836.9 M28.2,806.5
					c0,0-5.4-3.2-1.5-3.3c0,0,10.8,0.7,18.9,3L28.2,806.5z M58.3,486L41,486.5c0,0-3.9-4.9,0-5.1C41,481.4,51.2,482.6,58.3,486
					 M46.7,316.4c0,0,3,2.7-1.1,5.6C45.7,321.8-14.2,309.6,46.7,316.4 M19.2,453.6c-1.1-0.4,1.9-2.6,1.9-2.6c7.9-3.3,14-4.5,14-4.5
					c-0.7,0.9-5,4-5,4C20.2,455.4,19.2,453.6,19.2,453.6 M35.9,371.1c0,0-3.9-4.4,0-4.6c0,0,10.4,0.9,17.3,4.3L35.9,371.1z
					 M53.9,400.4l-17.3,0.4c0,0-5.4-3-1.3-3.2C35.2,397.7,45.8,398.3,53.9,400.4 M26.8,547.7c0,0,10.8,1.9,18.8,5.7l-17.5-1.2
					C27.8,552.2,22.6,547.6,26.8,547.7 M24.8,523.1c-1.1-0.4,2.4-2.7,2.4-2.7c8.5-3.6,14.9-4.9,14.9-4.9c-0.9,0.9-5.7,4.3-5.7,4.3
					C25.4,525.1,24.8,523.1,24.8,523.1 M55.5,252.1l-17.3-0.5c0,0-2.7-2.7,1.3-2.7C39.7,249.1,49.6,250,55.5,252.1 M17.9,216.6
					c0,0-4.6-2.8-0.6-3c0,0,10.5,0.7,17.9,2.8L17.9,216.6z M45.7,236.8l-17.3,0.5c0,0-3.9-3.9,0-4C28.4,233.2,38.6,233.9,45.7,236.8
					 M554.6,36.2c0,0-0.9-15-66.4-23.9L249.8-21H84.4H71.8h-93.3v1307.1l79.8,0.4c0,0,1.9-141.7-1.1-192.2c0,0-1.1-71.4,1.1-120.6
					c0,0,1.3-16.7,2.7-42.9l-17.3-0.5c0,0-2.7-2.7,1.3-2.7c0,0,9.9,0.9,16,3.2c1.2-22.7,2.2-52.3,2.2-84.3c0,0,3-67.5,0-89.5
					c0,0-3-24.6-3.9-79.2c0,0,1.1-67.5,0-90.9c0,0,5.8-27.2,5-67.5c0,0,1.1-32.4-1.1-54.6c0,0-3.9-29.9,0-55.8
					c0,0,7.9-42.9,1.1-99.9c0,0-6.9-53.2-8.9-89.5c0,0,1.9-12.9,4.5-30.3c20.5-10.1,30.7-21.9,30.7-21.9
					c-8.2,4.6-19.5,9.4-29.9,12.9C39.9,152.1,59,92.7,59,92.7c2.8-14.7-3.9-17.3-5-17.5c21.8,5.6,22.3,13.5,22.3,13.5l0.5-0.9
					c0,0,29.5-19.1,61.4,2.1c0,0-1.3-9.6,21.8-14.7c0.4-0.1,0.5-0.1,0.5-0.1c-0.1,0-0.4,0-0.5,0.1c-1.3,0.5-5.8,2.8-3.9,16
					l71.9-14.6c0,0,24.5-3.9,72.4-13.4c42-8.5,68.9-12.9,107.2-17.4c0,0,57.1-6,81-6.7C488.6,38.9,543.6,39.7,554.6,36.2
					 M578.7,13.1c0,0-6.3-2.7-15.6,1.8c0,0-10.1,5.4-9.5,14.3c0,0,6.5,3.3,16.7-2.2C570.3,27.1,577.6,22.8,578.7,13.1 M587.1,40.4
					c0,0-2.1-7.3-11.7-8.5c0,0-9.9-1.1-14,5.6c0,0,3.6,5.2,11.7,6.3C573.1,43.6,580.8,44.6,587.1,40.4 M53.5,1236.4l-17.3,0.4
					c0,0-5.4-3-1.3-3.2C34.7,1233.7,45.4,1234.3,53.5,1236.4 M52.8,1194.9l-17.3,0.5c0,0-3.9-4.4,0-4.6
					C35.5,1190.7,45.8,1191.5,52.8,1194.9 M48.3,1147.2c0,0-59.8-12.2,1.1-5.6C49.4,1141.7,52.5,1144.3,48.3,1147.2 M43.1,1111.4
					H25.7c0,0-5.6-3.3-1.5-3.4C24.1,1108,34.8,1108.8,43.1,1111.4"/>
			</g>
		</g>
	</g>
	<g>
		<g>
			<g>
				<defs>
					<rect id="SVGID_00000121964045964747413220000002467843601498736052_" x="-21.5" y="-21" width="608.6" height="1307.4"/>
				</defs>
				<clipPath id="SVGID_00000149353948401260821290000016344137138997893538_">
					<use xlink:href="#SVGID_00000121964045964747413220000002467843601498736052_"  style="overflow:visible;"/>
				</clipPath>
				<path style="clip-path:url(#SVGID_00000149353948401260821290000016344137138997893538_);fill:#FFFFFF;" d="M55.9,766.8
					c0-7.5-6-13.5-13.5-13.5s-13.5,6-13.5,13.5c0,7.3,6,13.5,13.5,13.5S55.9,774.3,55.9,766.8"/>
			</g>
		</g>
	</g>
	<g>
		<g>
			<g>
				<defs>
					<rect id="SVGID_00000095314207316727111940000004613683743856173198_" x="-21.5" y="-21" width="608.6" height="1307.4"/>
				</defs>
				<clipPath id="SVGID_00000081643366385016717680000007674900699662660483_">
					<use xlink:href="#SVGID_00000095314207316727111940000004613683743856173198_"  style="overflow:visible;"/>
				</clipPath>
				
					<path style="clip-path:url(#SVGID_00000081643366385016717680000007674900699662660483_);fill:none;stroke:#585757;stroke-width:0.5;" d="
					M55.9,766.8c0-7.5-6-13.5-13.5-13.5s-13.5,6-13.5,13.5c0,7.3,6,13.5,13.5,13.5S55.9,774.3,55.9,766.8z"/>
			</g>
		</g>
	</g>
	<g>
		<g>
			<g>
				<defs>
					<rect id="SVGID_00000158029722822502216150000016575428850159356592_" x="-21.5" y="-21" width="608.6" height="1307.4"/>
				</defs>
				<clipPath id="SVGID_00000111163786416019660910000002913074107460389785_">
					<use xlink:href="#SVGID_00000158029722822502216150000016575428850159356592_"  style="overflow:visible;"/>
				</clipPath>
				<path style="clip-path:url(#SVGID_00000111163786416019660910000002913074107460389785_);fill:#FFFFFF;" d="M55.9,423.5
					c0-7.3-6-13.5-13.5-13.5s-13.5,6-13.5,13.5c0,7.5,6,13.5,13.5,13.5C49.9,436.9,55.9,430.9,55.9,423.5"/>
			</g>
		</g>
	</g>
	<g>
		<g>
			<g>
				<defs>
					<rect id="SVGID_00000176019383321459300700000001146151250203244477_" x="-21.5" y="-21" width="608.6" height="1307.4"/>
				</defs>
				<clipPath id="SVGID_00000147918278993102556720000016451975712765825179_">
					<use xlink:href="#SVGID_00000176019383321459300700000001146151250203244477_"  style="overflow:visible;"/>
				</clipPath>
				
					<path style="clip-path:url(#SVGID_00000147918278993102556720000016451975712765825179_);fill:none;stroke:#585757;stroke-width:0.5;" d="
					M55.9,423.5c0-7.3-6-13.5-13.5-13.5s-13.5,6-13.5,13.5c0,7.5,6,13.5,13.5,13.5C49.9,436.9,55.9,430.9,55.9,423.5z"/>
			</g>
		</g>
	</g>
	<g>
		<g>
			<g>
				<defs>
					<rect id="SVGID_00000130639711321008696300000004283398960651381147_" x="-21.5" y="-21" width="608.6" height="1307.4"/>
				</defs>
				<clipPath id="SVGID_00000083782956598721394580000003722511149453142193_">
					<use xlink:href="#SVGID_00000130639711321008696300000004283398960651381147_"  style="overflow:visible;"/>
				</clipPath>
				
					<line style="clip-path:url(#SVGID_00000083782956598721394580000003722511149453142193_);fill:none;stroke:#585757;stroke-width:0.5;stroke-dasharray:1.989,1.989;" x1="71.2" y1="595" x2="-21.5" y2="595"/>
			</g>
		</g>
	</g>
</g>
<g>
	<g>
		<g>
			<g>
				<defs>
					<rect id="SVGID_00000127745982357781234170000014555375214177858966_" x="116.7" y="172.4" width="844.3" height="7.9"/>
				</defs>
				<clipPath id="SVGID_00000001665402597677407210000017610728395847097749_">
					<use xlink:href="#SVGID_00000127745982357781234170000014555375214177858966_"  style="overflow:visible;"/>
				</clipPath>
				<path style="clip-path:url(#SVGID_00000001665402597677407210000017610728395847097749_);fill:#4E8DCC;" d="M139.7,176.7
					c0,0-13.3-2.7-23-2.4l21.2,6.3C137.9,180.5,144.7,178.2,139.7,176.7 M172,173.9c0,0-13.5,0.9-22.7,3.6l22.8,0.5
					C172,177.9,177.2,174.1,172,173.9 M185.9,177.9l22.8-0.4c-9.1-2.8-22.7-3.6-22.7-3.6C180.6,174.1,185.9,177.9,185.9,177.9
					 M220,180.5l21.2-6.3c-9.9-0.4-23,2.4-23,2.4C213.3,178.2,220,180.5,220,180.5 M251.2,176.6l22.5,2.6c-8.4-4-21.4-6.6-21.4-6.6
					C246.8,172.1,251.2,176.6,251.2,176.6 M285.4,180.5l21.2-6.3c-9.9-0.4-23,2.4-23,2.4C278.8,178.2,285.4,180.5,285.4,180.5
					 M317.3,177.9l22.8-0.5c-9.1-2.8-22.7-3.6-22.7-3.6C312.2,174.1,317.3,177.9,317.3,177.9 M351.4,180.5l21.2-6.3
					c-9.9-0.4-23,2.4-23,2.4C344.7,178.2,351.4,180.5,351.4,180.5 M382.6,176.6l22.5,2.6c-8.4-4-21.4-6.6-21.4-6.6
					C378.4,172.1,382.6,176.6,382.6,176.6 M416.8,180.5l21.2-6.3c-9.9-0.4-23,2.4-23,2.4C410.2,178.2,416.8,180.5,416.8,180.5
					 M447.9,177.9l22.8-0.5c-9.1-2.8-22.7-3.6-22.7-3.6C442.8,174.1,447.9,177.9,447.9,177.9 M481.9,180.5l21.2-6.3
					c-9.9-0.4-23,2.4-23,2.4C475.3,178.2,481.9,180.5,481.9,180.5 M513.2,176.6l22.5,2.6c-8.4-4-21.4-6.6-21.4-6.6
					C508.9,172.1,513.2,176.6,513.2,176.6 M547.4,180.5l21.2-6.3c-9.9-0.4-23,2.4-23,2.4C540.8,178.2,547.4,180.5,547.4,180.5
					 M579.4,177.9l22.8-0.5c-9.1-2.8-22.7-3.6-22.7-3.6C574.2,174.1,579.4,177.9,579.4,177.9 M613.3,180.5l21.2-6.3
					c-9.9-0.4-23,2.4-23,2.4C606.7,178.2,613.3,180.5,613.3,180.5 M644.6,176.6l22.5,2.6c-8.4-4-21.4-6.6-21.4-6.6
					C640.5,172.1,644.6,176.6,644.6,176.6 M679,180.5l21.2-6.3c-9.9-0.4-23,2.4-23,2.4C672.4,178.2,679,180.5,679,180.5
					 M708.8,177.9l22.7-0.4c-9.1-2.8-22.7-3.6-22.7-3.6C703.5,174.1,708.8,177.9,708.8,177.9 M742.7,180.5l21.2-6.3
					c-9.9-0.4-23,2.4-23,2.4C736.1,178.2,742.7,180.5,742.7,180.5 M774,176.6l22.5,2.6c-8.4-4-21.7-6.6-21.7-6.6
					C769.7,172.1,774,176.6,774,176.6 M808.3,180.5l21.2-6.3c-9.9-0.4-23,2.4-23,2.4C801.8,178.2,808.3,180.5,808.3,180.5
					 M840.2,177.9l22.8-0.5c-9.1-2.8-22.7-3.6-22.7-3.6C834.9,174.1,840.2,177.9,840.2,177.9 M874.1,180.5l21.2-6.3
					c-9.9-0.4-23,2.4-23,2.4C867.5,178.2,874.1,180.5,874.1,180.5 M905.4,176.6l22.5,2.6c-8.4-4-21.4-6.6-21.4-6.6
					C901.2,172.1,905.4,176.6,905.4,176.6 M961,174.1c-9.9-0.4-23,2.4-23,2.4c-4.9,1.7,1.8,3.9,1.8,3.9L961,174.1z"/>
			</g>
		</g>
	</g>
</g>
</svg>
