<?xml version="1.0" encoding="utf-8"?>
<!-- Generator: Adobe Illustrator 25.4.1, SVG Export Plug-In . SVG Version: 6.00 Build 0)  -->
<svg version="1.1" id="Capa_1" xmlns="http://www.w3.org/2000/svg" xmlns:xlink="http://www.w3.org/1999/xlink" x="0px" y="0px"
	 viewBox="0 0 820 1056" style="enable-background:new 0 0 820 1056;" xml:space="preserve">
<style type="text/css">
	.st0{fill:#FFFFFF;}
	.st1{clip-path:url(#SVGID_00000150085623296813814630000011396993823115210142_);fill:#4E8DCC;}
	.st2{clip-path:url(#SVGID_00000039098378078798514350000002133833587600967318_);fill:#FFFFFF;}
	.st3{clip-path:url(#SVGID_00000150078880138684924750000014253970151866663326_);fill:none;stroke:#585757;stroke-width:0.5;}
	.st4{clip-path:url(#SVGID_00000074411218366407238470000002564716489601201298_);fill:#FFFFFF;}
	.st5{clip-path:url(#SVGID_00000065067937940554419570000006307269396398612412_);fill:none;stroke:#585757;stroke-width:0.5;}
	
		.st6{clip-path:url(#SVGID_00000004507045109297348940000017838244836813484989_);fill:none;stroke:#585757;stroke-width:0.5;stroke-dasharray:1.989,1.989;}
</style>
<rect x="-10.6" y="-9.5" class="st0" width="842" height="1085"/>
<g>
	<g>
		<g>
			<defs>
				<rect id="SVGID_1_" x="-2" y="-2.1" width="816.4" height="1077.6"/>
			</defs>
			<clipPath id="SVGID_00000155849487980046284360000012173238910781859247_">
				<use xlink:href="#SVGID_1_"  style="overflow:visible;"/>
			</clipPath>
			<path style="clip-path:url(#SVGID_00000155849487980046284360000012173238910781859247_);fill:#4E8DCC;" d="M47.4,21.9L39.9,36
				c0,0-3.7-0.5-2-3.8C37.9,32.2,42.9,24.8,47.4,21.9 M29.4,68.9c0,0,8.9,0.6,15.1,2.4L30,71.5C30,71.5,26.1,69.1,29.4,68.9
				 M25.8,120.7c0,0,9.1,0.6,16,2.5l-14.7,0.1C27.1,123.4,22.5,120.8,25.8,120.7 M28.2,149.2c51.3-5.6,0.9,4.7,0.9,4.7
				C25.7,151.4,28.2,149.2,28.2,149.2 M29.5,254c0,0,9.1,0.8,16.1,2.9H30.9C30.8,256.8,26.1,254,29.5,254 M53,502
				c3.4,2.2,0.9,4.2,0.9,4.2C2.4,511.2,53,502,53,502 M55.2,570.7c3.3,2.3,0.6,4.2,0.6,4.2C4.2,579,55.2,570.7,55.2,570.7 M42.9,606
				c-3.4-0.3,0-4.2,0-4.2l14.6,0.4C51.6,605.1,42.9,606,42.9,606 M35,625.2c0,0,8.9,0.6,15.1,2.4l-14.6,0.1
				C35.6,627.7,31.7,625.3,35,625.2 M35.2,768.1c0,0,8.9,0.6,15.1,2.4l-14.6,0.1C35.7,770.7,31.9,768.3,35.2,768.1 M61.6,934.8
				L47,935c0,0-4.6-2.5-1.1-2.7C45.9,932.4,54.9,933,61.6,934.8 M61.1,899.8l-14.6,0.4c0,0-3.3-3.7,0-3.9
				C46.6,896.3,55.2,897,61.1,899.8 M57.4,859.5c0,0-50.4-10.3,0.9-4.7C58.3,854.8,60.8,857.1,57.4,859.5 M52.8,829.3H38.1
				c0,0-4.7-2.8-1.3-2.9C36.9,826.3,46,827.2,52.8,829.3 M44.6,788.1c0,0-3.3-3.3,0-3.4c0,0,8.7,0.8,14.6,3L44.6,788.1z M67.4,742.9
				c-5.8,2.2-14.6,2.8-14.6,2.8c-3.4-0.1,0-3.2,0-3.2L67.4,742.9z M53,687.1c0,0-2.3-2.3,1.1-2.3c0,0,8.4,0.9,13.4,2.7L53,687.1z
				 M46.6,544.8c0,0-4.2-3.2-0.8-3.3c0,0,9,1.1,15.6,3.7L46.6,544.8z M44.6,639l14.6,0.3c-5.8,2-14.6,2.5-14.6,2.5
				C41.2,641.8,44.6,639,44.6,639 M40.9,721.6c51.3-5.6,0.9,4.7,0.9,4.7C38.5,723.9,40.9,721.6,40.9,721.6 M39.9,695.9
				c0,0-4.6-2.7-1.3-2.8c0,0,9.1,0.6,16,2.5L39.9,695.9z M65.1,425.6l-14.6,0.4c0,0-3.3-4.1,0-4.3C50.5,421.6,59.3,422.7,65.1,425.6
				 M55.4,282.5c0,0,2.5,2.3-0.9,4.7C54.5,287.1,4,276.8,55.4,282.5 M32.2,398.2c-0.9-0.3,1.6-2.2,1.6-2.2
				c6.7-2.8,11.8-3.8,11.8-3.8c-0.6,0.8-4.2,3.4-4.2,3.4C32.9,399.7,32.2,398.2,32.2,398.2 M46.4,328.6c0,0-3.3-3.7,0-3.9
				c0,0,8.7,0.8,14.6,3.5L46.4,328.6z M61.4,353.3l-14.6,0.3c0,0-4.6-2.5-1.1-2.7C45.6,351.1,54.6,351.6,61.4,353.3 M38.5,477.7
				c0,0,9.1,1.6,15.8,4.8l-15-1C39.4,481.5,35.1,477.5,38.5,477.7 M37,456.9c-0.9-0.3,2-2.3,2-2.3c7.2-3,12.5-4.1,12.5-4.1
				c-0.8,0.8-4.8,3.5-4.8,3.5C37.4,458.5,37,456.9,37,456.9 M62.8,228.2L48.3,228c0,0-2.3-2.3,1.1-2.3
				C49.4,225.7,57.8,226.5,62.8,228.2 M39.3,104.8c0,0,8.4,0.9,13.4,2.7l-14.6-0.4C38.1,107.1,35.8,104.8,39.3,104.8 M39,86.3
				l14.6,0.3c-5.8,2-14.6,2.7-14.6,2.7C35.6,89.1,39,86.3,39,86.3 M40,170.2l14.6,0.3c-5.8,2.2-14.6,2.8-14.6,2.8
				C36.7,173.1,40,170.2,40,170.2 M39.9,212.3c0,0,8.7,0.8,14.6,3l-14.6,0.4C39.9,215.7,36.5,212.4,39.9,212.3 M31,198.3
				c0,0-3.9-2.4-0.5-2.5c0,0,8.9,0.6,15.1,2.4L31,198.3z M72.2,62.4 M72.2,62.4l4.4-64.5H-2v1077.3l67.3,0.3c0,0,1.6-94.2-0.9-136.9
				c0,0-0.9-60.2,0.9-101.8c0,0,1.1-14.1,2.3-36.1L53,800.3c0,0-2.3-2.3,1.1-2.3c0,0,8.4,0.8,13.4,2.7c1-19.1,1.9-44.1,1.9-71.1
				c0,0,2.5-56.9,0-75.5c0,0-2.5-20.8-3.3-66.8c0,0,0.9-56.9,0-76.7c0,0,4.9-22.9,4.2-56.9c0,0,0.9-27.4-0.9-46c0,0-3.3-25.2,0-47
				c0,0,6.7-36.1,0.9-84.3c0,0-5.8-44.9-7.5-75.5L72,65.7"/>
		</g>
	</g>
	<g>
		<g>
			<defs>
				<rect id="SVGID_00000005945977081511585580000003205039892247299769_" x="-2" y="-2.1" width="816.4" height="1077.6"/>
			</defs>
			<clipPath id="SVGID_00000103984531353164575980000016686001149899171498_">
				<use xlink:href="#SVGID_00000005945977081511585580000003205039892247299769_"  style="overflow:visible;"/>
			</clipPath>
		</g>
	</g>
	<g>
		<g>
			<defs>
				<rect id="SVGID_00000071553553246874659760000008277626256747754637_" x="-2" y="-2.1" width="816.4" height="1077.6"/>
			</defs>
			<clipPath id="SVGID_00000032635304922188369550000008735788035693682587_">
				<use xlink:href="#SVGID_00000071553553246874659760000008277626256747754637_"  style="overflow:visible;"/>
			</clipPath>
			<path style="clip-path:url(#SVGID_00000032635304922188369550000008735788035693682587_);fill:#FFFFFF;" d="M63.1,662.4
				c0-6.3-5.1-11.4-11.4-11.4s-11.4,5.1-11.4,11.4c0,6.3,5.1,11.4,11.4,11.4S63.1,668.8,63.1,662.4"/>
		</g>
	</g>
	<g>
		<g>
			<defs>
				<rect id="SVGID_00000132070248225655298560000007649405890208396950_" x="-2" y="-2.1" width="816.4" height="1077.6"/>
			</defs>
			<clipPath id="SVGID_00000005969300316990283100000003054059438205643448_">
				<use xlink:href="#SVGID_00000132070248225655298560000007649405890208396950_"  style="overflow:visible;"/>
			</clipPath>
			
				<path style="clip-path:url(#SVGID_00000005969300316990283100000003054059438205643448_);fill:none;stroke:#585757;stroke-width:0.5;" d="
				M63.1,662.4c0-6.3-5.1-11.4-11.4-11.4s-11.4,5.1-11.4,11.4c0,6.3,5.1,11.4,11.4,11.4S63.1,668.8,63.1,662.4z"/>
		</g>
	</g>
	<g>
		<g>
			<defs>
				<rect id="SVGID_00000176729814786867446730000002831156069112364430_" x="-2" y="-2.1" width="816.4" height="1077.6"/>
			</defs>
			<clipPath id="SVGID_00000182499881380941512750000015465836665351761593_">
				<use xlink:href="#SVGID_00000176729814786867446730000002831156069112364430_"  style="overflow:visible;"/>
			</clipPath>
			<path style="clip-path:url(#SVGID_00000182499881380941512750000015465836665351761593_);fill:#FFFFFF;" d="M63.1,372.8
				c0-6.2-5.1-11.4-11.4-11.4s-11.4,5.1-11.4,11.4s5.1,11.4,11.4,11.4C58,384.1,63.1,379.1,63.1,372.8"/>
		</g>
	</g>
	<g>
		<g>
			<defs>
				<rect id="SVGID_00000099660260932113518410000015443572286984020410_" x="-2" y="-2.1" width="816.4" height="1077.6"/>
			</defs>
			<clipPath id="SVGID_00000183956107468658295330000004088875104647470475_">
				<use xlink:href="#SVGID_00000099660260932113518410000015443572286984020410_"  style="overflow:visible;"/>
			</clipPath>
			
				<path style="clip-path:url(#SVGID_00000183956107468658295330000004088875104647470475_);fill:none;stroke:#585757;stroke-width:0.5;" d="
				M63.1,372.8c0-6.2-5.1-11.4-11.4-11.4s-11.4,5.1-11.4,11.4s5.1,11.4,11.4,11.4C58,384.1,63.1,379.1,63.1,372.8z"/>
		</g>
	</g>
	<g>
		<g>
			<defs>
				<rect id="SVGID_00000045602780643607064540000012579425257681482149_" x="-2" y="-2.1" width="816.4" height="1077.6"/>
			</defs>
			<clipPath id="SVGID_00000075142070116813649320000017268132683183286707_">
				<use xlink:href="#SVGID_00000045602780643607064540000012579425257681482149_"  style="overflow:visible;"/>
			</clipPath>
			
				<line style="clip-path:url(#SVGID_00000075142070116813649320000017268132683183286707_);fill:none;stroke:#585757;stroke-width:0.5;stroke-dasharray:1.989,1.989;" x1="76" y1="517.6" x2="-2" y2="517.6"/>
		</g>
	</g>
</g>
</svg>
