<?xml version="1.0" encoding="utf-8"?>
<!-- Generator: Adobe Illustrator 25.3.1, SVG Export Plug-In . SVG Version: 6.00 Build 0)  -->
<svg version="1.1" id="Capa_1" xmlns="http://www.w3.org/2000/svg" xmlns:xlink="http://www.w3.org/1999/xlink" x="0px" y="0px"
	 viewBox="0 0 595.3 841.1" style="enable-background:new 0 0 595.3 841.1;" xml:space="preserve">
<style type="text/css">
	.st0{clip-path:url(#SVGID_2_);fill:#4E8DCC;}
	.st1{clip-path:url(#SVGID_2_);fill:#FFFFFF;}
	.st2{clip-path:url(#SVGID_2_);fill:none;stroke:#585757;stroke-width:0.5;}
	.st3{clip-path:url(#SVGID_2_);fill:none;stroke:#585757;stroke-width:0.5;stroke-dasharray:1.989,1.989;}
</style>
<g>
	<defs>
		<rect id="SVGID_1_" x="-24.4" y="-0.6" width="644.2" height="850.3"/>
	</defs>
	<clipPath id="SVGID_2_">
		<use xlink:href="#SVGID_1_"  style="overflow:visible;"/>
	</clipPath>
	<path class="st0" d="M40.2,54c0,0,6.5-0.7,8.5,7.1c0,0,0.6,3.3,1.3,5.5c0,0-5.4,1-9.1-4.3C40.9,62.3,38.7,58.5,40.2,54"/>
	<path class="st0" d="M47.5,55c0,0,0.3,2.8,3.1,4.7c0,0,2.7,1.8,5.9,1.2c0,0,0.7-3.4-2.7-5.7C53.9,55.3,50.4,53.1,47.5,55"/>
	<path class="st0" d="M40.2,50.9c0,0,2.5,3,7.9,2.3c0,0,4-0.5,5.8-5.3c0,0-2.5-2.6-7.4-2.3C46.6,45.7,41.2,46.3,40.2,50.9"/>
	<path class="st0" d="M14.6,18.4L8.7,29.5c0,0-2.9-0.4-1.6-3C7.1,26.5,11.1,20.7,14.6,18.4 M0.4,55.5c0,0,7,0.5,11.9,1.9L0.9,57.5
		C0.9,57.5-2.2,55.6,0.4,55.5 M-2.4,96.3c0,0,7.2,0.5,12.6,2l-11.6,0.1C-1.4,98.5-5,96.4-2.4,96.3 M-0.5,118.8
		c40.5-4.4,0.7,3.7,0.7,3.7C-2.5,120.6-0.5,118.8-0.5,118.8 M0.5,201.5c0,0,7.2,0.6,12.7,2.3l-11.6,0C1.5,203.7-2.2,201.5,0.5,201.5
		 M19,397.2c2.7,1.7,0.7,3.3,0.7,3.3C-20.9,404.5,19,397.2,19,397.2 M20.8,451.4c2.6,1.8,0.5,3.3,0.5,3.3
		C-19.5,458,20.8,451.4,20.8,451.4 M11.1,479.3c-2.7-0.2,0-3.3,0-3.3l11.5,0.3C17.9,478.6,11.1,479.3,11.1,479.3 M4.8,494.4
		c0,0,7,0.5,11.9,1.9l-11.5,0.1C5.3,496.4,2.2,494.5,4.8,494.4 M5,607.2c0,0,7,0.5,11.9,1.9l-11.5,0.1C5.4,609.2,2.4,607.3,5,607.2
		 M25.8,738.7l-11.5,0.2c0,0-3.6-2-0.9-2.1C13.4,736.8,20.5,737.3,25.8,738.7 M25.4,711.1l-11.5,0.3c0,0-2.6-2.9,0-3.1
		C14,708.3,20.8,708.9,25.4,711.1 M22.5,679.3c0,0-39.8-8.1,0.7-3.7C23.2,675.6,25.2,677.4,22.5,679.3 M18.9,655.5l-11.6,0
		c0,0-3.7-2.2-1-2.3C6.3,653.1,13.5,653.8,18.9,655.5 M12.4,623c0,0-2.6-2.6,0-2.7c0,0,6.9,0.6,11.5,2.4L12.4,623z M30.4,587.3
		c-4.6,1.7-11.5,2.2-11.5,2.2c-2.7-0.1,0-2.5,0-2.5L30.4,587.3z M19,543.3c0,0-1.8-1.8,0.9-1.8c0,0,6.6,0.7,10.6,2.1L19,543.3z
		 M14,431c0,0-3.3-2.5-0.6-2.6c0,0,7.1,0.9,12.3,2.9L14,431z M12.4,505.3l11.5,0.2c-4.6,1.6-11.5,2-11.5,2
		C9.7,507.5,12.4,505.3,12.4,505.3 M9.5,570.5c40.5-4.4,0.7,3.7,0.7,3.7C7.6,572.3,9.5,570.5,9.5,570.5 M8.7,550.2
		c0,0-3.6-2.1-1-2.2c0,0,7.2,0.5,12.6,2L8.7,550.2z M28.6,336.9l-11.5,0.3c0,0-2.6-3.2,0-3.4C17.1,333.8,24,334.6,28.6,336.9
		 M20.9,224c0,0,2,1.8-0.7,3.7C20.2,227.6-19.6,219.5,20.9,224 M2.6,315.3c-0.7-0.2,1.3-1.7,1.3-1.7c5.3-2.2,9.3-3,9.3-3
		c-0.5,0.6-3.3,2.7-3.3,2.7C3.2,316.5,2.6,315.3,2.6,315.3 M13.8,260.4c0,0-2.6-2.9,0-3.1c0,0,6.9,0.6,11.5,2.8L13.8,260.4z
		 M25.7,279.9l-11.5,0.2c0,0-3.6-2-0.9-2.1C13.2,278.1,20.3,278.5,25.7,279.9 M7.6,378c0,0,7.2,1.3,12.5,3.8L8.3,381
		C8.3,381,4.9,377.9,7.6,378 M6.4,361.6c-0.7-0.2,1.6-1.8,1.6-1.8c5.7-2.4,9.9-3.2,9.9-3.2c-0.6,0.6-3.8,2.8-3.8,2.8
		C6.7,362.9,6.4,361.6,6.4,361.6 M26.8,181.2L15.3,181c0,0-1.8-1.8,0.9-1.8C16.2,179.2,22.8,179.8,26.8,181.2 M8.2,83.8
		c0,0,6.6,0.7,10.6,2.1L7.3,85.6C7.3,85.6,5.5,83.8,8.2,83.8 M8,69.2l11.5,0.2C14.9,71,8,71.5,8,71.5C5.3,71.4,8,69.2,8,69.2
		 M8.8,135.4l11.5,0.2c-4.6,1.7-11.5,2.2-11.5,2.2C6.2,137.7,8.8,135.4,8.8,135.4 M8.7,168.6c0,0,6.9,0.6,11.5,2.4l-11.5,0.3
		C8.7,171.3,6,168.7,8.7,168.6 M1.7,157.6c0,0-3.1-1.9-0.4-2c0,0,7,0.5,11.9,1.9L1.7,157.6z M34.2,50.3l3.5-50.9h-62.1v850.1
		l53.1,0.2c0,0,1.3-74.3-0.7-108c0,0-0.7-47.5,0.7-80.3c0,0,0.9-11.1,1.8-28.5L19,632.6c0,0-1.8-1.8,0.9-1.8c0,0,6.6,0.6,10.6,2.1
		c0.8-15.1,1.5-34.8,1.5-56.1c0,0,2-44.9,0-59.6c0,0-2-16.4-2.6-52.7c0,0,0.7-44.9,0-60.5c0,0,3.9-18.1,3.3-44.9
		c0,0,0.7-21.6-0.7-36.3c0,0-2.6-19.9,0-37.1c0,0,5.3-28.5,0.7-66.5c0,0-4.6-35.4-5.9-59.6L34,52.9c5.8,0.8,9.4,0.5,9.4,0.5
		C40.6,52.7,37.4,51.6,34.2,50.3"/>
	<path class="st0" d="M51.4,78.7c0,0-8.8-1.8-15.3-1.6l14.1,4.2C50.2,81.2,54.6,79.7,51.4,78.7 M72.8,76.8c0,0-9,0.6-15.1,2.4
		l15.2,0.3C72.9,79.5,76.3,77,72.8,76.8 M82.1,79.5l15.2-0.3c-6.1-1.9-15.1-2.4-15.1-2.4C78.6,77,82.1,79.5,82.1,79.5 M104.7,81.2
		l14.1-4.2c-6.6-0.2-15.3,1.6-15.3,1.6C100.3,79.7,104.7,81.2,104.7,81.2 M125.5,78.6l15,1.7c-5.6-2.6-14.3-4.4-14.3-4.4
		C122.7,75.6,125.5,78.6,125.5,78.6 M148.4,81.2l14.1-4.2c-6.6-0.2-15.3,1.6-15.3,1.6C144,79.7,148.4,81.2,148.4,81.2 M169.6,79.5
		l15.2-0.3c-6.1-1.9-15.1-2.4-15.1-2.4C166.1,77,169.6,79.5,169.6,79.5 M192.2,81.2l14.1-4.2c-6.6-0.2-15.3,1.6-15.3,1.6
		C187.8,79.7,192.2,81.2,192.2,81.2 M213,78.6l15,1.7c-5.6-2.6-14.3-4.4-14.3-4.4C210.2,75.6,213,78.6,213,78.6 M235.9,81.2L250,77
		c-6.6-0.2-15.3,1.6-15.3,1.6C231.5,79.7,235.9,81.2,235.9,81.2 M256.5,79.5l15.2-0.3c-6.1-1.9-15.1-2.4-15.1-2.4
		C253,77,256.5,79.5,256.5,79.5 M279.1,81.2l14.1-4.2c-6.6-0.2-15.3,1.6-15.3,1.6C274.7,79.7,279.1,81.2,279.1,81.2 M300,78.6
		l15,1.7c-5.6-2.7-14.3-4.4-14.3-4.4C297.1,75.6,300,78.6,300,78.6 M322.8,81.2L337,77c-6.6-0.2-15.3,1.6-15.3,1.6
		C318.4,79.7,322.8,81.2,322.8,81.2 M344,79.5l15.2-0.3c-6.1-1.9-15.1-2.4-15.1-2.4C340.6,77,344,79.5,344,79.5 M366.7,81.2
		l14.1-4.2c-6.6-0.2-15.3,1.6-15.3,1.6C362.3,79.7,366.7,81.2,366.7,81.2 M387.5,78.6l15,1.7c-5.6-2.6-14.3-4.4-14.3-4.4
		C384.6,75.6,387.5,78.6,387.5,78.6 M410.3,81.2l14.1-4.2c-6.6-0.2-15.3,1.6-15.3,1.6C405.9,79.7,410.3,81.2,410.3,81.2 M430.1,79.5
		l15.2-0.3c-6.1-1.9-15.1-2.4-15.1-2.4C426.7,77,430.1,79.5,430.1,79.5 M452.8,81.2l14.1-4.2c-6.6-0.2-15.3,1.6-15.3,1.6
		C448.4,79.7,452.8,81.2,452.8,81.2 M473.6,78.6l15,1.7c-5.6-2.7-14.3-4.4-14.3-4.4C470.8,75.6,473.6,78.6,473.6,78.6 M496.4,81.2
		l14.1-4.2c-6.6-0.2-15.3,1.6-15.3,1.6C492,79.7,496.4,81.2,496.4,81.2 M517.6,79.5l15.2-0.3c-6.1-1.9-15.1-2.4-15.1-2.4
		C514.2,77,517.6,79.5,517.6,79.5 M540.3,81.2l14.1-4.2c-6.6-0.2-15.3,1.6-15.3,1.6C535.9,79.7,540.3,81.2,540.3,81.2 M561.1,78.6
		l15,1.7c-5.6-2.6-14.3-4.4-14.3-4.4C558.3,75.6,561.1,78.6,561.1,78.6 M584,81.2l14.1-4.2c-6.6-0.2-15.3,1.6-15.3,1.6
		C579.5,79.7,584,81.2,584,81.2 M619.7,79.2c-6.1-1.9-15.1-2.4-15.1-2.4c-3.5,0.2,0,2.7,0,2.7L619.7,79.2z"/>
	<path class="st1" d="M27,523.8c0-5-4-9-9-9c-5,0-9,4-9,9s4,9,9,9C23,532.8,27,528.8,27,523.8"/>
	<path class="st2" d="M27,523.8c0-5-4-9-9-9c-5,0-9,4-9,9s4,9,9,9C23,532.8,27,528.8,27,523.8z"/>
	<path class="st1" d="M27,295.3c0-4.9-4-9-9-9c-5,0-9,4-9,9c0,5,4,9,9,9C23,304.2,27,300.2,27,295.3"/>
	<path class="st2" d="M27,295.3c0-4.9-4-9-9-9c-5,0-9,4-9,9c0,5,4,9,9,9C23,304.2,27,300.2,27,295.3z"/>
	<line class="st3" x1="37.2" y1="409.5" x2="-24.4" y2="409.5"/>
</g>
</svg>
