<?xml version="1.0" encoding="utf-8"?>
<!-- Generator: Adobe Illustrator 25.4.1, SVG Export Plug-In . SVG Version: 6.00 Build 0)  -->
<svg version="1.1" id="Capa_1" xmlns="http://www.w3.org/2000/svg" xmlns:xlink="http://www.w3.org/1999/xlink" x="0px" y="0px"
	 viewBox="0 0 820 1056" style="enable-background:new 0 0 820 1056;" xml:space="preserve">
<style type="text/css">
	.st0{fill:#FFFFFF;}
	.st1{clip-path:url(#SVGID_00000070833840481823050270000004231093538634473900_);fill:#4E8DCC;}
	.st2{clip-path:url(#SVGID_00000016790640157048394470000014312820409247850415_);fill:#4E8DCC;}
	.st3{clip-path:url(#SVGID_00000108308279371783788100000004296111989137098897_);fill:#4E8DCC;}
	.st4{clip-path:url(#SVGID_00000164475031532214978640000007459241205225178802_);fill:#4E8DCC;}
	.st5{clip-path:url(#SVGID_00000171716764801103075280000000232462212898728587_);fill:#FFFFFF;}
	.st6{clip-path:url(#SVGID_00000158021279499408382970000012370123902438549663_);fill:none;stroke:#585757;stroke-width:0.5;}
	.st7{clip-path:url(#SVGID_00000129177547290972181220000008578872963664573102_);fill:#FFFFFF;}
	.st8{clip-path:url(#SVGID_00000064338578336062209910000007037373758933050002_);fill:none;stroke:#585757;stroke-width:0.5;}
	
		.st9{clip-path:url(#SVGID_00000134241616426158982050000015625525345743021190_);fill:none;stroke:#585757;stroke-width:0.5;stroke-dasharray:1.989,1.989;}
</style>
<rect x="-10.6" y="-9.5" class="st0" width="842" height="1085"/>
<g>
	<g>
		<g>
			<g>
				<defs>
					<rect id="SVGID_1_" x="-2" y="-2.1" width="816.4" height="1077.6"/>
				</defs>
				<clipPath id="SVGID_00000065039169198094060910000011727421699048371865_">
					<use xlink:href="#SVGID_1_"  style="overflow:visible;"/>
				</clipPath>
				<path style="clip-path:url(#SVGID_00000065039169198094060910000011727421699048371865_);fill:#4E8DCC;" d="M89.1,68.3
					c0,0,0.4,3.5,3.9,6c0,0,3.4,2.3,7.5,1.5c0,0,0.9-4.3-3.4-7.2C97.2,68.7,92.7,65.9,89.1,68.3"/>
			</g>
		</g>
	</g>
	<g>
		<g>
			<g>
				<defs>
					<rect id="SVGID_00000110466489467390205170000001187562184016798343_" x="-2" y="-2.1" width="816.4" height="1077.6"/>
				</defs>
				<clipPath id="SVGID_00000139286229254510463290000001675871835013934477_">
					<use xlink:href="#SVGID_00000110466489467390205170000001187562184016798343_"  style="overflow:visible;"/>
				</clipPath>
				<path style="clip-path:url(#SVGID_00000139286229254510463290000001675871835013934477_);fill:#4E8DCC;" d="M79.8,63.1
					c0,0,3.2,3.8,10,2.9c0,0,5.1-0.6,7.4-6.7c0,0-3.2-3.3-9.4-2.9C87.9,56.5,81.1,57.3,79.8,63.1"/>
			</g>
		</g>
	</g>
	<g>
		<g>
			<g>
				<defs>
					<rect id="SVGID_00000101801285340640626610000016204737391755553712_" x="-2" y="-2.1" width="816.4" height="1077.6"/>
				</defs>
				<clipPath id="SVGID_00000003822331387457199910000016576272903233722759_">
					<use xlink:href="#SVGID_00000101801285340640626610000016204737391755553712_"  style="overflow:visible;"/>
				</clipPath>
				<path style="clip-path:url(#SVGID_00000003822331387457199910000016576272903233722759_);fill:#4E8DCC;" d="M47.4,21.9L39.9,36
					c0,0-3.7-0.5-2-3.8C37.9,32.2,42.9,24.8,47.4,21.9 M29.4,68.9c0,0,8.9,0.6,15.1,2.4L30,71.5C30,71.5,26.1,69.1,29.4,68.9
					 M25.8,120.7c0,0,9.1,0.6,16,2.5l-14.7,0.1C27.1,123.4,22.5,120.8,25.8,120.7 M28.2,149.2c51.3-5.6,0.9,4.7,0.9,4.7
					C25.7,151.4,28.2,149.2,28.2,149.2 M29.5,254c0,0,9.1,0.8,16.1,2.9H30.9C30.8,256.8,26.1,254,29.5,254 M53,502
					c3.4,2.2,0.9,4.2,0.9,4.2C2.4,511.2,53,502,53,502 M55.2,570.7c3.3,2.3,0.6,4.2,0.6,4.2C4.2,579,55.2,570.7,55.2,570.7
					 M42.9,606c-3.4-0.3,0-4.2,0-4.2l14.6,0.4C51.6,605.1,42.9,606,42.9,606 M35,625.2c0,0,8.9,0.6,15.1,2.4l-14.6,0.1
					C35.6,627.7,31.7,625.3,35,625.2 M35.2,768.1c0,0,8.9,0.6,15.1,2.4l-14.6,0.1C35.7,770.7,31.9,768.3,35.2,768.1 M61.6,934.8
					L47,935c0,0-4.6-2.5-1.1-2.7C45.9,932.4,54.9,933,61.6,934.8 M61.1,899.8l-14.6,0.4c0,0-3.3-3.7,0-3.9
					C46.6,896.3,55.2,897,61.1,899.8 M57.4,859.5c0,0-50.4-10.3,0.9-4.7C58.3,854.8,60.8,857.1,57.4,859.5 M52.8,829.3H38.1
					c0,0-4.7-2.8-1.3-2.9C36.9,826.3,46,827.2,52.8,829.3 M44.6,788.1c0,0-3.3-3.3,0-3.4c0,0,8.7,0.8,14.6,3L44.6,788.1z
					 M67.4,742.9c-5.8,2.2-14.6,2.8-14.6,2.8c-3.4-0.1,0-3.2,0-3.2L67.4,742.9z M53,687.1c0,0-2.3-2.3,1.1-2.3c0,0,8.4,0.9,13.4,2.7
					L53,687.1z M46.6,544.8c0,0-4.2-3.2-0.8-3.3c0,0,9,1.1,15.6,3.7L46.6,544.8z M44.6,639l14.6,0.3c-5.8,2-14.6,2.5-14.6,2.5
					C41.2,641.8,44.6,639,44.6,639 M40.9,721.6c51.3-5.6,0.9,4.7,0.9,4.7C38.5,723.9,40.9,721.6,40.9,721.6 M39.9,695.9
					c0,0-4.6-2.7-1.3-2.8c0,0,9.1,0.6,16,2.5L39.9,695.9z M65.1,425.6L50.5,426c0,0-3.3-4.1,0-4.3C50.5,421.6,59.3,422.7,65.1,425.6
					 M55.4,282.5c0,0,2.5,2.3-0.9,4.7C54.5,287.1,4,276.8,55.4,282.5 M32.2,398.2c-0.9-0.3,1.6-2.2,1.6-2.2
					c6.7-2.8,11.8-3.8,11.8-3.8c-0.6,0.8-4.2,3.4-4.2,3.4C32.9,399.7,32.2,398.2,32.2,398.2 M46.4,328.6c0,0-3.3-3.7,0-3.9
					c0,0,8.7,0.8,14.6,3.5L46.4,328.6z M61.4,353.3l-14.6,0.3c0,0-4.6-2.5-1.1-2.7C45.6,351.1,54.6,351.6,61.4,353.3 M38.5,477.7
					c0,0,9.1,1.6,15.8,4.8l-15-1C39.4,481.5,35.1,477.5,38.5,477.7 M37,456.9c-0.9-0.3,2-2.3,2-2.3c7.2-3,12.5-4.1,12.5-4.1
					c-0.8,0.8-4.8,3.5-4.8,3.5C37.4,458.5,37,456.9,37,456.9 M62.8,228.2L48.3,228c0,0-2.3-2.3,1.1-2.3
					C49.4,225.7,57.8,226.5,62.8,228.2 M39.3,104.8c0,0,8.4,0.9,13.4,2.7l-14.6-0.4C38.1,107.1,35.8,104.8,39.3,104.8 M39,86.3
					l14.6,0.3c-5.8,2-14.6,2.7-14.6,2.7C35.6,89.1,39,86.3,39,86.3 M40,170.2l14.6,0.3c-5.8,2.2-14.6,2.8-14.6,2.8
					C36.7,173.1,40,170.2,40,170.2 M39.9,212.3c0,0,8.7,0.8,14.6,3l-14.6,0.4C39.9,215.7,36.5,212.4,39.9,212.3 M31,198.3
					c0,0-3.9-2.4-0.5-2.5c0,0,8.9,0.6,15.1,2.4L31,198.3z M72.2,62.4l4.4-64.5H-2v1077.3l67.3,0.3c0,0,1.6-94.2-0.9-136.9
					c0,0-0.9-60.2,0.9-101.8c0,0,1.1-14.1,2.3-36.1L53,800.3c0,0-2.3-2.3,1.1-2.3c0,0,8.4,0.8,13.4,2.7c1-19.1,1.9-44.1,1.9-71.1
					c0,0,2.5-56.9,0-75.5c0,0-2.5-20.8-3.3-66.8c0,0,0.9-56.9,0-76.7c0,0,4.9-22.9,4.2-56.9c0,0,0.9-27.4-0.9-46c0,0-3.3-25.2,0-47
					c0,0,6.7-36.1,0.9-84.3c0,0-5.8-44.9-7.5-75.5L72,65.7c7.4,1,11.9,0.6,11.9,0.6C80.3,65.4,76.3,64,72.2,62.4"/>
			</g>
		</g>
	</g>
	<g>
		<g>
			<g>
				<defs>
					<rect id="SVGID_00000024704458582118762090000001847524886113231035_" x="-2" y="-2.1" width="816.4" height="1077.6"/>
				</defs>
				<clipPath id="SVGID_00000046337514083852417010000012050946534380840070_">
					<use xlink:href="#SVGID_00000024704458582118762090000001847524886113231035_"  style="overflow:visible;"/>
				</clipPath>
				<path style="clip-path:url(#SVGID_00000046337514083852417010000012050946534380840070_);fill:#4E8DCC;" d="M94,98.3
					c0,0-11.2-2.3-19.4-2l17.9,5.3C92.5,101.5,98.1,99.6,94,98.3 M121.1,95.9c0,0-11.4,0.8-19.1,3l19.3,0.4
					C121.3,99.4,125.6,96.2,121.1,95.9 M132.9,99.4l19.3-0.4c-7.7-2.4-19.1-3-19.1-3C128.5,96.2,132.9,99.4,132.9,99.4 M161.6,101.5
					l17.9-5.3c-8.4-0.3-19.4,2-19.4,2C156,99.6,161.6,101.5,161.6,101.5 M187.9,98.2l19,2.2c-7.1-3.3-18.1-5.6-18.1-5.6
					C184.4,94.4,187.9,98.2,187.9,98.2 M216.9,101.5l17.9-5.3c-8.4-0.3-19.4,2-19.4,2C211.4,99.6,216.9,101.5,216.9,101.5
					 M243.8,99.4l19.3-0.4c-7.7-2.4-19.1-3-19.1-3C239.4,96.2,243.8,99.4,243.8,99.4 M272.5,101.5l17.9-5.3c-8.4-0.3-19.4,2-19.4,2
					C266.9,99.6,272.5,101.5,272.5,101.5 M298.8,98.2l19,2.2c-7.1-3.3-18.1-5.6-18.1-5.6C295.3,94.4,298.8,98.2,298.8,98.2
					 M327.8,101.5l17.9-5.3c-8.4-0.3-19.4,2-19.4,2C322.3,99.6,327.8,101.5,327.8,101.5 M353.9,99.4l19.3-0.4
					c-7.7-2.4-19.1-3-19.1-3C349.5,96.2,353.9,99.4,353.9,99.4 M382.6,101.5l17.9-5.3c-8.4-0.3-19.4,2-19.4,2
					C377,99.6,382.6,101.5,382.6,101.5 M409.1,98.2l19,2.2C421,97,410,94.8,410,94.8C405.4,94.4,409.1,98.2,409.1,98.2 M438,101.5
					l18-5.3c-8.4-0.3-19.4,2-19.4,2C432.4,99.6,438,101.5,438,101.5 M464.8,99.4l19.3-0.4c-7.7-2.4-19.1-3-19.1-3
					C460.5,96.2,464.8,99.4,464.8,99.4 M493.6,101.5l17.9-5.3c-8.4-0.3-19.4,2-19.4,2C488,99.6,493.6,101.5,493.6,101.5 M520,98.2
					l19,2.2c-7.1-3.3-18.1-5.6-18.1-5.6C516.3,94.4,520,98.2,520,98.2 M548.9,101.5l17.9-5.3c-8.4-0.3-19.4,2-19.4,2
					C543.3,99.6,548.9,101.5,548.9,101.5 M573.9,99.4l19.3-0.4c-7.7-2.4-19.1-3-19.1-3C569.6,96.2,573.9,99.4,573.9,99.4
					 M602.7,101.5l17.9-5.3c-8.4-0.3-19.4,2-19.4,2C597.1,99.6,602.7,101.5,602.7,101.5 M629.1,98.2l19,2.2
					C641,97,630,94.8,630,94.8C625.5,94.4,629.1,98.2,629.1,98.2 M658,101.5l17.9-5.3c-8.4-0.3-19.4,2-19.4,2
					C652.4,99.6,658,101.5,658,101.5 M684.8,99.4l19.3-0.4c-7.7-2.4-19.1-3-19.1-3C680.5,96.2,684.8,99.4,684.8,99.4 M713.6,101.5
					l17.9-5.3c-8.4-0.3-19.4,2-19.4,2C708,99.6,713.6,101.5,713.6,101.5 M740,98.2l19,2.2c-7.1-3.3-18.1-5.6-18.1-5.6
					C736.4,94.4,740,98.2,740,98.2 M769,101.5l17.9-5.3c-8.4-0.3-19.4,2-19.4,2C763.3,99.6,769,101.5,769,101.5 M814.2,99
					c-7.7-2.4-19.1-3-19.1-3c-4.4,0.3,0,3.4,0,3.4L814.2,99z"/>
			</g>
		</g>
	</g>
	<g>
		<g>
			<g>
				<defs>
					<rect id="SVGID_00000047055064997513224180000013829209830628369598_" x="-2" y="-2.1" width="816.4" height="1077.6"/>
				</defs>
				<clipPath id="SVGID_00000012467733099055185450000006343717605886141626_">
					<use xlink:href="#SVGID_00000047055064997513224180000013829209830628369598_"  style="overflow:visible;"/>
				</clipPath>
				<path style="clip-path:url(#SVGID_00000012467733099055185450000006343717605886141626_);fill:#FFFFFF;" d="M63.1,662.4
					c0-6.3-5.1-11.4-11.4-11.4s-11.4,5.1-11.4,11.4c0,6.3,5.1,11.4,11.4,11.4S63.1,668.8,63.1,662.4"/>
			</g>
		</g>
	</g>
	<g>
		<g>
			<g>
				<defs>
					<rect id="SVGID_00000173163192579826172300000006682395412633758609_" x="-2" y="-2.1" width="816.4" height="1077.6"/>
				</defs>
				<clipPath id="SVGID_00000152971994587811593430000006744624515055090849_">
					<use xlink:href="#SVGID_00000173163192579826172300000006682395412633758609_"  style="overflow:visible;"/>
				</clipPath>
				
					<path style="clip-path:url(#SVGID_00000152971994587811593430000006744624515055090849_);fill:none;stroke:#585757;stroke-width:0.5;" d="
					M63.1,662.4c0-6.3-5.1-11.4-11.4-11.4s-11.4,5.1-11.4,11.4c0,6.3,5.1,11.4,11.4,11.4S63.1,668.8,63.1,662.4z"/>
			</g>
		</g>
	</g>
	<g>
		<g>
			<g>
				<defs>
					<rect id="SVGID_00000048501631324850127830000003046263215312629414_" x="-2" y="-2.1" width="816.4" height="1077.6"/>
				</defs>
				<clipPath id="SVGID_00000114786025574442429870000008467903198701197223_">
					<use xlink:href="#SVGID_00000048501631324850127830000003046263215312629414_"  style="overflow:visible;"/>
				</clipPath>
				<path style="clip-path:url(#SVGID_00000114786025574442429870000008467903198701197223_);fill:#FFFFFF;" d="M63.1,372.8
					c0-6.2-5.1-11.4-11.4-11.4s-11.4,5.1-11.4,11.4s5.1,11.4,11.4,11.4C58,384.1,63.1,379.1,63.1,372.8"/>
			</g>
		</g>
	</g>
	<g>
		<g>
			<g>
				<defs>
					<rect id="SVGID_00000078043292004151607350000002860111725911190665_" x="-2" y="-2.1" width="816.4" height="1077.6"/>
				</defs>
				<clipPath id="SVGID_00000173153276703807120770000015740754580593809559_">
					<use xlink:href="#SVGID_00000078043292004151607350000002860111725911190665_"  style="overflow:visible;"/>
				</clipPath>
				
					<path style="clip-path:url(#SVGID_00000173153276703807120770000015740754580593809559_);fill:none;stroke:#585757;stroke-width:0.5;" d="
					M63.1,372.8c0-6.2-5.1-11.4-11.4-11.4s-11.4,5.1-11.4,11.4s5.1,11.4,11.4,11.4C58,384.1,63.1,379.1,63.1,372.8z"/>
			</g>
		</g>
	</g>
	<g>
		<g>
			<g>
				<defs>
					<rect id="SVGID_00000016075309695018679850000011817798174950388924_" x="-2" y="-2.1" width="816.4" height="1077.6"/>
				</defs>
				<clipPath id="SVGID_00000054961504251168197770000008869484095897464747_">
					<use xlink:href="#SVGID_00000016075309695018679850000011817798174950388924_"  style="overflow:visible;"/>
				</clipPath>
				
					<line style="clip-path:url(#SVGID_00000054961504251168197770000008869484095897464747_);fill:none;stroke:#585757;stroke-width:0.5;stroke-dasharray:1.989,1.989;" x1="76" y1="517.6" x2="-2" y2="517.6"/>
			</g>
		</g>
	</g>
</g>
</svg>
