<?xml version="1.0" encoding="utf-8"?>
<!-- Generator: Adobe Illustrator 25.4.1, SVG Export Plug-In . SVG Version: 6.00 Build 0)  -->
<svg version="1.1" id="Capa_1" xmlns="http://www.w3.org/2000/svg" xmlns:xlink="http://www.w3.org/1999/xlink" x="0px" y="0px"
	 viewBox="0 0 170.4 116.2" style="enable-background:new 0 0 170.4 116.2;" xml:space="preserve">
<style type="text/css">
	.st0{fill:#E4EE9F;}
	.st1{fill:none;stroke:#1F1E1C;stroke-width:0.5;stroke-linejoin:round;}
	.st2{fill:#B8D138;}
	.st3{fill:none;stroke:#1F1E1C;stroke-width:0.5;stroke-linecap:round;stroke-linejoin:round;}
	.st4{fill:#5793CF;}
	.st5{fill:#F5E4F4;}
	.st6{fill:#C670CB;}
	.st7{fill:#E5B2E4;}
	
		.st8{clip-path:url(#SVGID_00000061443831291191346020000016706652863747822263_);fill:none;stroke:#1F1E1C;stroke-width:0.5;stroke-linejoin:round;}
	
		.st9{clip-path:url(#SVGID_00000004521472563766886980000011215481420321277075_);fill:none;stroke:#1F1E1C;stroke-width:0.5;stroke-linecap:round;stroke-linejoin:round;}
	
		.st10{clip-path:url(#SVGID_00000167366572771854229110000000693861075781369993_);fill:none;stroke:#1F1E1C;stroke-width:0.5;stroke-linecap:round;stroke-linejoin:round;}
</style>
<polygon class="st0" points="21.4,58 42.6,43.1 85.1,43.1 63.9,58 "/>
<polyline class="st1" points="21.4,58.1 42.7,43.2 85.2,43.2 "/>
<rect x="21.4" y="58.1" class="st2" width="42.5" height="42.5"/>
<rect x="21.4" y="58.1" class="st3" width="42.5" height="42.5"/>
<polygon class="st4" points="85.2,85.8 63.9,100.6 63.9,58.1 85.2,43.2 "/>
<polygon class="st3" points="85.2,85.8 63.9,100.6 63.9,58.1 85.2,43.2 "/>
<polygon class="st5" points="63.4,57.9 84.7,43.1 127.2,43.1 105.9,57.9 "/>
<polyline class="st1" points="63.5,58 84.8,43.1 127.3,43.1 "/>
<rect x="63.5" y="58" class="st6" width="42.5" height="42.5"/>
<rect x="63.5" y="58" class="st3" width="42.5" height="42.5"/>
<polygon class="st4" points="127.3,85.7 106,100.6 106,58 127.3,43.1 "/>
<polygon class="st3" points="127.3,85.7 106,100.6 106,58 127.3,43.1 "/>
<polygon class="st0" points="106,57.9 127.2,43.1 169.7,43.1 148.5,57.9 "/>
<polyline class="st1" points="106,58 127.3,43.1 169.8,43.1 "/>
<rect x="106" y="58" class="st6" width="42.5" height="42.5"/>
<rect x="106" y="58" class="st3" width="42.5" height="42.5"/>
<polygon class="st7" points="169.8,85.7 148.5,100.6 148.5,58 169.8,43.1 "/>
<polygon class="st3" points="169.8,85.7 148.5,100.6 148.5,58 169.8,43.1 "/>
<polygon class="st5" points="42.4,0.6 21.2,15.5 63.7,15.5 84.9,0.6 "/>
<polyline class="st1" points="21.2,15.6 42.5,0.7 85,0.7 "/>
<rect x="21.2" y="15.6" class="st6" width="42.5" height="42.5"/>
<rect x="21.2" y="15.6" class="st3" width="42.5" height="42.5"/>
<polygon class="st7" points="85,43.3 63.7,58.1 63.7,15.6 85,0.7 "/>
<polygon class="st3" points="85,43.3 63.7,58.1 63.7,15.6 85,0.7 "/>
<polygon class="st5" points="127.2,0.6 105.9,15.5 148.5,15.5 169.7,0.6 "/>
<polyline class="st1" points="106,15.6 127.3,0.7 169.8,0.7 "/>
<rect x="106" y="15.6" class="st6" width="42.5" height="42.5"/>
<rect x="106" y="15.6" class="st3" width="42.5" height="42.5"/>
<polygon class="st7" points="169.8,43.3 148.5,58.1 148.5,15.6 169.8,0.7 "/>
<polygon class="st3" points="169.8,43.3 148.5,58.1 148.5,15.6 169.8,0.7 "/>
<polygon class="st5" points="21.4,57.9 0.2,72.8 42.7,72.8 63.9,57.9 "/>
<g>
	<defs>
		<rect id="SVGID_1_" x="0" y="0.5" width="170.1" height="115.2"/>
	</defs>
	<clipPath id="SVGID_00000002360706911054741380000006115686102595932831_">
		<use xlink:href="#SVGID_1_"  style="overflow:visible;"/>
	</clipPath>
	
		<polyline style="clip-path:url(#SVGID_00000002360706911054741380000006115686102595932831_);fill:none;stroke:#1F1E1C;stroke-width:0.5;stroke-linejoin:round;" points="
		0.2,72.9 21.5,58 64,58 	"/>
</g>
<rect x="0.2" y="72.9" class="st6" width="42.5" height="42.5"/>
<g>
	<defs>
		<rect id="SVGID_00000083088983377990928180000018052588095336820918_" x="0" y="0.5" width="170.1" height="115.2"/>
	</defs>
	<clipPath id="SVGID_00000166638268670256657220000003038515979585535671_">
		<use xlink:href="#SVGID_00000083088983377990928180000018052588095336820918_"  style="overflow:visible;"/>
	</clipPath>
	
		<rect x="0.2" y="72.9" style="clip-path:url(#SVGID_00000166638268670256657220000003038515979585535671_);fill:none;stroke:#1F1E1C;stroke-width:0.5;stroke-linecap:round;stroke-linejoin:round;" width="42.5" height="42.5"/>
</g>
<polygon class="st7" points="42.7,72.9 42.7,115.4 64,100.5 64,58 "/>
<g>
	<defs>
		<rect id="SVGID_00000018213230420379678290000013782134861642974598_" x="0" y="0.5" width="170.1" height="115.2"/>
	</defs>
	<clipPath id="SVGID_00000072974921177910787360000008377110075683778726_">
		<use xlink:href="#SVGID_00000018213230420379678290000013782134861642974598_"  style="overflow:visible;"/>
	</clipPath>
	
		<polygon style="clip-path:url(#SVGID_00000072974921177910787360000008377110075683778726_);fill:none;stroke:#1F1E1C;stroke-width:0.5;stroke-linecap:round;stroke-linejoin:round;" points="
		64,100.5 42.7,115.4 42.7,72.9 64,58 	"/>
</g>
<g>
</g>
<g>
</g>
<g>
</g>
<g>
</g>
<g>
</g>
<g>
</g>
<g>
</g>
<g>
</g>
<g>
</g>
<g>
</g>
<g>
</g>
<g>
</g>
<g>
</g>
<g>
</g>
<g>
</g>
</svg>
