<svg id="Capa_1" data-name="Capa 1" xmlns="http://www.w3.org/2000/svg" xmlns:xlink="http://www.w3.org/1999/xlink" viewBox="0 0 149.18 200.19"><defs><style>.cls-1,.cls-2,.cls-3,.cls-4{stroke:#1d1d1b;stroke-width:0.5px;}.cls-1{fill:url(#Degradado_sin_nombre_116);}.cls-2,.cls-3,.cls-4{fill:none;}.cls-2{stroke-dasharray:1.51 1.01;}.cls-3{stroke-dasharray:1.51 1.01;}</style><linearGradient id="Degradado_sin_nombre_116" x1="148.93" y1="100.3" x2="0.26" y2="100.3" gradientUnits="userSpaceOnUse"><stop offset="0" stop-color="#13a9a4"/><stop offset="0.04" stop-color="#1caca8"/><stop offset="0.11" stop-color="#36b6b1"/><stop offset="0.2" stop-color="#5fc5c1"/><stop offset="0.31" stop-color="#99dad8"/><stop offset="0.42" stop-color="#e1f4f3"/><stop offset="0.47" stop-color="#fff"/><stop offset="0.55" stop-color="#c2e9e8"/><stop offset="0.64" stop-color="#8dd6d3"/><stop offset="0.72" stop-color="#62c6c2"/><stop offset="0.8" stop-color="#3fb9b5"/><stop offset="0.87" stop-color="#27b0ac"/><stop offset="0.94" stop-color="#18aba6"/><stop offset="1" stop-color="#13a9a4"/></linearGradient></defs><title>mat</title><path class="cls-1" d="M74.6,199.94c41.06,0,74.49-8.14,74.33-19.33-.17-.86-74.33-180-74.33-180L.26,181S2.43,199.94,74.6,199.94Z"/><path class="cls-2" d="M148.19,178.74c-5-9-35-16-71.6-16.28"/><path class="cls-3" d="M71.79,162.47c-37.56.26-66,5.95-70.93,17"/><path class="cls-4" d="M.57,180.25a8,8,0,0,0-.31,1.16m75.53-18.95h-2.4m75.54,18.95a4.71,4.71,0,0,0-.15-1.18"/><path class="cls-4" d="M74.59,200.25c41.05,0,74.48-8.14,74.32-19.33C148.74,180.06,74.59,1,74.59,1L.24,181.35S2.41,200.25,74.59,200.25Z"/></svg>