<svg id="Capa_1" data-name="Capa 1" xmlns="http://www.w3.org/2000/svg" viewBox="0 0 241.06 274.66"><defs><style>.cls-1{fill:#fff;}.cls-2{fill:none;stroke:#b1b1b1;stroke-miterlimit:10;stroke-width:0.5px;}.cls-3{font-size:20.75px;fill:#3c3c3b;font-family:Malva-Light, Malva;font-weight:300;}.cls-4{letter-spacing:0em;}.cls-5{letter-spacing:0em;}.cls-6{letter-spacing:0em;}</style></defs><title>mat</title><path class="cls-1" d="M34.75,206v0Zm34.31,0v0Zm34.31,0v0Zm34.32,0v0ZM172,206v0Zm34.32,0v0ZM34.75,171.72v0Zm34.31,0v0Zm34.31,0v0Zm34.32,0v0Zm34.31,0v0Zm34.32,0v0ZM34.75,137.4v0Zm34.31,0v0Zm34.31,0v0Zm34.32,0v0Zm34.31,0v0Zm34.32,0v0ZM34.75,103.09v0Zm34.31,0v0Zm34.31,0v0Zm34.32,0v0Zm34.31,0v0Zm34.32,0v0ZM34.75,68.78v0Zm34.31,0v0Zm34.31,0v0Zm34.32,0v0Zm34.31,0v0Zm34.32,0v0Zm0-34.32v0H172v0H137.69v0H103.37v0H69.06v0H34.75v0H.43v240.2H34.75v0H69.06v0h34.31v0h34.32v0H172v0h34.32v0h34.31V34.46Z"/><line class="cls-2" y1="34.46" x2="34.75" y2="34.46"/><line class="cls-2" x1="0.43" y1="68.34" x2="0.43" y2="34.89"/><line class="cls-2" x1="34.75" y1="34.46" x2="69.06" y2="34.46"/><line class="cls-2" x1="34.75" y1="68.34" x2="34.75" y2="34.89"/><line class="cls-2" x1="69.06" y1="34.46" x2="103.37" y2="34.46"/><line class="cls-2" x1="69.06" y1="68.34" x2="69.06" y2="34.89"/><line class="cls-2" x1="103.37" y1="34.46" x2="137.69" y2="34.46"/><line class="cls-2" x1="103.37" y1="68.34" x2="103.37" y2="34.89"/><line class="cls-2" x1="137.69" y1="34.46" x2="172" y2="34.46"/><line class="cls-2" x1="137.69" y1="68.34" x2="137.69" y2="34.89"/><line class="cls-2" x1="172" y1="34.46" x2="206.32" y2="34.46"/><line class="cls-2" x1="172" y1="68.34" x2="172" y2="34.89"/><line class="cls-2" x1="206.32" y1="34.46" x2="241.06" y2="34.46"/><line class="cls-2" x1="206.32" y1="68.34" x2="206.32" y2="34.89"/><line class="cls-2" x1="240.63" y1="68.34" x2="240.63" y2="34.89"/><line class="cls-2" y1="68.78" x2="34.75" y2="68.78"/><line class="cls-2" x1="0.43" y1="102.66" x2="0.43" y2="69.21"/><line class="cls-2" x1="34.75" y1="68.78" x2="69.06" y2="68.78"/><line class="cls-2" x1="34.75" y1="102.66" x2="34.75" y2="69.21"/><line class="cls-2" x1="69.06" y1="68.78" x2="103.37" y2="68.78"/><line class="cls-2" x1="69.06" y1="102.66" x2="69.06" y2="69.21"/><line class="cls-2" x1="103.37" y1="68.78" x2="137.69" y2="68.78"/><line class="cls-2" x1="103.37" y1="102.66" x2="103.37" y2="69.21"/><line class="cls-2" x1="137.69" y1="68.78" x2="172" y2="68.78"/><line class="cls-2" x1="137.69" y1="102.66" x2="137.69" y2="69.21"/><line class="cls-2" x1="172" y1="68.78" x2="206.32" y2="68.78"/><line class="cls-2" x1="172" y1="102.66" x2="172" y2="69.21"/><line class="cls-2" x1="206.32" y1="68.78" x2="241.06" y2="68.78"/><line class="cls-2" x1="206.32" y1="102.66" x2="206.32" y2="69.21"/><line class="cls-2" x1="240.63" y1="102.66" x2="240.63" y2="69.21"/><line class="cls-2" y1="103.09" x2="34.75" y2="103.09"/><line class="cls-2" x1="0.43" y1="136.97" x2="0.43" y2="103.52"/><line class="cls-2" x1="34.75" y1="103.09" x2="69.06" y2="103.09"/><line class="cls-2" x1="34.75" y1="136.97" x2="34.75" y2="103.52"/><line class="cls-2" x1="69.06" y1="103.09" x2="103.37" y2="103.09"/><line class="cls-2" x1="69.06" y1="136.97" x2="69.06" y2="103.52"/><line class="cls-2" x1="103.37" y1="103.09" x2="137.69" y2="103.09"/><line class="cls-2" x1="103.37" y1="136.97" x2="103.37" y2="103.52"/><line class="cls-2" x1="137.69" y1="103.09" x2="172" y2="103.09"/><line class="cls-2" x1="137.69" y1="136.97" x2="137.69" y2="103.52"/><line class="cls-2" x1="172" y1="103.09" x2="206.32" y2="103.09"/><line class="cls-2" x1="172" y1="136.97" x2="172" y2="103.52"/><line class="cls-2" x1="206.32" y1="103.09" x2="241.06" y2="103.09"/><line class="cls-2" x1="206.32" y1="136.97" x2="206.32" y2="103.52"/><line class="cls-2" x1="240.63" y1="136.97" x2="240.63" y2="103.52"/><line class="cls-2" y1="137.4" x2="34.75" y2="137.4"/><line class="cls-2" x1="0.43" y1="171.29" x2="0.43" y2="137.84"/><line class="cls-2" x1="34.75" y1="137.4" x2="69.06" y2="137.4"/><line class="cls-2" x1="34.75" y1="171.29" x2="34.75" y2="137.84"/><line class="cls-2" x1="69.06" y1="137.4" x2="103.37" y2="137.4"/><line class="cls-2" x1="69.06" y1="171.29" x2="69.06" y2="137.84"/><line class="cls-2" x1="103.37" y1="137.4" x2="137.69" y2="137.4"/><line class="cls-2" x1="103.37" y1="171.29" x2="103.37" y2="137.84"/><line class="cls-2" x1="137.69" y1="137.4" x2="172" y2="137.4"/><line class="cls-2" x1="137.69" y1="171.29" x2="137.69" y2="137.84"/><line class="cls-2" x1="172" y1="137.4" x2="206.32" y2="137.4"/><line class="cls-2" x1="172" y1="171.29" x2="172" y2="137.84"/><line class="cls-2" x1="206.32" y1="137.4" x2="241.06" y2="137.4"/><line class="cls-2" x1="206.32" y1="171.29" x2="206.32" y2="137.84"/><line class="cls-2" x1="240.63" y1="171.29" x2="240.63" y2="137.84"/><line class="cls-2" y1="171.72" x2="34.75" y2="171.72"/><line class="cls-2" x1="0.43" y1="205.6" x2="0.43" y2="172.15"/><line class="cls-2" x1="34.75" y1="171.72" x2="69.06" y2="171.72"/><line class="cls-2" x1="34.75" y1="205.6" x2="34.75" y2="172.15"/><line class="cls-2" x1="69.06" y1="171.72" x2="103.37" y2="171.72"/><line class="cls-2" x1="69.06" y1="205.6" x2="69.06" y2="172.15"/><line class="cls-2" x1="103.37" y1="171.72" x2="137.69" y2="171.72"/><line class="cls-2" x1="103.37" y1="205.6" x2="103.37" y2="172.15"/><line class="cls-2" x1="137.69" y1="171.72" x2="172" y2="171.72"/><line class="cls-2" x1="137.69" y1="205.6" x2="137.69" y2="172.15"/><line class="cls-2" x1="172" y1="171.72" x2="206.32" y2="171.72"/><line class="cls-2" x1="172" y1="205.6" x2="172" y2="172.15"/><line class="cls-2" x1="206.32" y1="171.72" x2="241.06" y2="171.72"/><line class="cls-2" x1="206.32" y1="205.6" x2="206.32" y2="172.15"/><line class="cls-2" x1="240.63" y1="205.6" x2="240.63" y2="172.15"/><line class="cls-2" y1="206.03" x2="34.75" y2="206.03"/><line class="cls-2" x1="0.43" y1="239.91" x2="0.43" y2="206.46"/><line class="cls-2" x1="34.75" y1="206.03" x2="69.06" y2="206.03"/><line class="cls-2" x1="34.75" y1="239.91" x2="34.75" y2="206.46"/><line class="cls-2" x1="69.06" y1="206.03" x2="103.37" y2="206.03"/><line class="cls-2" x1="69.06" y1="239.91" x2="69.06" y2="206.46"/><line class="cls-2" x1="103.37" y1="206.03" x2="137.69" y2="206.03"/><line class="cls-2" x1="103.37" y1="239.91" x2="103.37" y2="206.46"/><line class="cls-2" x1="137.69" y1="206.03" x2="172" y2="206.03"/><line class="cls-2" x1="137.69" y1="239.91" x2="137.69" y2="206.46"/><line class="cls-2" x1="172" y1="206.03" x2="206.32" y2="206.03"/><line class="cls-2" x1="172" y1="239.91" x2="172" y2="206.46"/><line class="cls-2" x1="206.32" y1="206.03" x2="241.06" y2="206.03"/><line class="cls-2" x1="206.32" y1="239.91" x2="206.32" y2="206.46"/><line class="cls-2" x1="240.63" y1="239.91" x2="240.63" y2="206.46"/><line class="cls-2" y1="240.35" x2="34.75" y2="240.35"/><line class="cls-2" x1="0.43" y1="274.23" x2="0.43" y2="240.78"/><line class="cls-2" x1="34.75" y1="240.35" x2="69.06" y2="240.35"/><line class="cls-2" x1="34.75" y1="274.23" x2="34.75" y2="240.78"/><line class="cls-2" x1="69.06" y1="240.35" x2="103.37" y2="240.35"/><line class="cls-2" x1="69.06" y1="274.23" x2="69.06" y2="240.78"/><line class="cls-2" x1="103.37" y1="240.35" x2="137.69" y2="240.35"/><line class="cls-2" x1="103.37" y1="274.23" x2="103.37" y2="240.78"/><line class="cls-2" x1="137.69" y1="240.35" x2="172" y2="240.35"/><line class="cls-2" x1="137.69" y1="274.23" x2="137.69" y2="240.78"/><line class="cls-2" x1="172" y1="240.35" x2="206.32" y2="240.35"/><line class="cls-2" x1="172" y1="274.23" x2="172" y2="240.78"/><line class="cls-2" x1="206.32" y1="240.35" x2="241.06" y2="240.35"/><line class="cls-2" x1="206.32" y1="274.23" x2="206.32" y2="240.78"/><line class="cls-2" x1="240.63" y1="274.23" x2="240.63" y2="240.78"/><line class="cls-2" y1="274.66" x2="34.75" y2="274.66"/><line class="cls-2" x1="34.75" y1="274.66" x2="69.06" y2="274.66"/><line class="cls-2" x1="69.06" y1="274.66" x2="103.37" y2="274.66"/><line class="cls-2" x1="103.37" y1="274.66" x2="137.69" y2="274.66"/><line class="cls-2" x1="137.69" y1="274.66" x2="172" y2="274.66"/><line class="cls-2" x1="172" y1="274.66" x2="206.32" y2="274.66"/><line class="cls-2" x1="206.32" y1="274.66" x2="241.06" y2="274.66"/><text class="cls-3" transform="translate(81.47 17.37)"><tspan class="cls-4">D</tspan><tspan x="15.13" y="0">e a</tspan><tspan class="cls-5" x="42.27" y="0">r</tspan><tspan class="cls-6" x="49.93" y="0">r</tspan><tspan x="57.61" y="0">iba</tspan></text></svg>