<?xml version="1.0" encoding="utf-8"?>
<!-- Generator: Adobe Illustrator 25.4.1, SVG Export Plug-In . SVG Version: 6.00 Build 0)  -->
<svg version="1.1" id="Capa_1" xmlns="http://www.w3.org/2000/svg" xmlns:xlink="http://www.w3.org/1999/xlink" x="0px" y="0px"
	 viewBox="0 0 138.9 138.9" style="enable-background:new 0 0 138.9 138.9;" xml:space="preserve">
<style type="text/css">
	.st0{fill:#FFFFFF;}
	.st1{fill:none;stroke:#B1B1B0;stroke-width:0.5;stroke-miterlimit:10;}
	.st2{clip-path:url(#SVGID_00000159433375710537359360000009367026577026395267_);}
	.st3{opacity:0.3;clip-path:url(#SVGID_00000158724062501032926430000001042320420260790682_);}
	.st4{clip-path:url(#SVGID_00000030460780488234509570000018349800048810428844_);fill:#B547B8;}
	
		.st5{clip-path:url(#SVGID_00000158724062501032926430000001042320420260790682_);fill:none;stroke:#1F1E1C;stroke-width:0.5;stroke-linecap:round;stroke-linejoin:round;}
</style>
<path class="st0" d="M119.1,119.1h19.8v19.8h-19.8V119.1z M99.2,119.1h19.8v19.8H99.2V119.1z M79.4,119.1h19.8v19.8H79.4V119.1z
	 M59.5,119.1h19.8v19.8H59.5V119.1z M39.7,119.1h19.8v19.8H39.7V119.1z M19.8,119.1h19.8v19.8H19.8V119.1z M0,119.1h19.8v19.8H0
	V119.1z M119.1,99.2h19.8v19.8h-19.8V99.2z M99.2,99.2h19.8v19.8H99.2V99.2z M79.4,99.2h19.8v19.8H79.4V99.2z M59.5,99.2h19.8v19.8
	H59.5V99.2z M39.7,99.2h19.8v19.8H39.7V99.2z M19.8,99.2h19.8v19.8H19.8V99.2z M0,99.2h19.8v19.8H0V99.2z M119.1,79.4h19.8v19.8
	h-19.8V79.4z M99.2,79.4h19.8v19.8H99.2V79.4z M79.4,79.4h19.8v19.8H79.4V79.4z M59.5,79.4h19.8v19.8H59.5V79.4z M39.7,79.4h19.8
	v19.8H39.7V79.4z M19.8,79.4h19.8v19.8H19.8V79.4z M0,79.4h19.8v19.8H0V79.4z M119.1,59.5h19.8v19.8h-19.8V59.5z M99.2,59.5h19.8
	v19.8H99.2V59.5z M79.4,59.5h19.8v19.8H79.4V59.5z M59.5,59.5h19.8v19.8H59.5V59.5z M39.7,59.5h19.8v19.8H39.7V59.5z M19.8,59.5
	h19.8v19.8H19.8V59.5z M0,59.5h19.8v19.8H0V59.5z M119.1,39.7h19.8v19.8h-19.8V39.7z M99.2,39.7h19.8v19.8H99.2V39.7z M79.4,39.7
	h19.8v19.8H79.4V39.7z M59.5,39.7h19.8v19.8H59.5V39.7z M39.7,39.7h19.8v19.8H39.7V39.7z M19.8,39.7h19.8v19.8H19.8V39.7z M0,39.7
	h19.8v19.8H0V39.7z M119.1,19.8h19.8v19.8h-19.8V19.8z M99.2,19.8h19.8v19.8H99.2V19.8z M79.4,19.8h19.8v19.8H79.4V19.8z M59.5,19.8
	h19.8v19.8H59.5V19.8z M39.7,19.8h19.8v19.8H39.7V19.8z M19.8,19.8h19.8v19.8H19.8V19.8z M0,19.8h19.8v19.8H0V19.8z M119.1,0h19.8
	v19.8h-19.8V0z M99.2,0h19.8v19.8H99.2V0z M79.4,0h19.8v19.8H79.4V0z M59.5,0h19.8v19.8H59.5V0z M39.7,0h19.8v19.8H39.7V0z M19.8,0
	h19.8v19.8H19.8V0z M0,0h19.8v19.8H0V0z"/>
<line class="st1" x1="-0.2" y1="0" x2="19.8" y2="0"/>
<line class="st1" x1="0" y1="19.6" x2="0" y2="0.2"/>
<line class="st1" x1="19.8" y1="0" x2="39.7" y2="0"/>
<line class="st1" x1="19.8" y1="19.6" x2="19.8" y2="0.2"/>
<line class="st1" x1="39.7" y1="0" x2="59.5" y2="0"/>
<line class="st1" x1="39.7" y1="19.6" x2="39.7" y2="0.2"/>
<line class="st1" x1="59.5" y1="0" x2="79.4" y2="0"/>
<line class="st1" x1="59.5" y1="19.6" x2="59.5" y2="0.2"/>
<line class="st1" x1="79.4" y1="0" x2="99.2" y2="0"/>
<line class="st1" x1="79.4" y1="19.6" x2="79.4" y2="0.2"/>
<line class="st1" x1="99.2" y1="0" x2="119.1" y2="0"/>
<line class="st1" x1="99.2" y1="19.6" x2="99.2" y2="0.2"/>
<line class="st1" x1="119.1" y1="0" x2="139.1" y2="0"/>
<line class="st1" x1="119.1" y1="19.6" x2="119.1" y2="0.2"/>
<line class="st1" x1="138.9" y1="19.6" x2="138.9" y2="0.2"/>
<line class="st1" x1="-0.2" y1="19.8" x2="19.8" y2="19.8"/>
<line class="st1" x1="0" y1="39.4" x2="0" y2="20.1"/>
<line class="st1" x1="19.8" y1="19.8" x2="39.7" y2="19.8"/>
<line class="st1" x1="19.8" y1="39.4" x2="19.8" y2="20.1"/>
<line class="st1" x1="39.7" y1="19.8" x2="59.5" y2="19.8"/>
<line class="st1" x1="39.7" y1="39.4" x2="39.7" y2="20.1"/>
<line class="st1" x1="59.5" y1="19.8" x2="79.4" y2="19.8"/>
<line class="st1" x1="59.5" y1="39.4" x2="59.5" y2="20.1"/>
<line class="st1" x1="79.4" y1="19.8" x2="99.2" y2="19.8"/>
<line class="st1" x1="79.4" y1="39.4" x2="79.4" y2="20.1"/>
<line class="st1" x1="99.2" y1="19.8" x2="119.1" y2="19.8"/>
<line class="st1" x1="99.2" y1="39.4" x2="99.2" y2="20.1"/>
<line class="st1" x1="119.1" y1="19.8" x2="139.1" y2="19.8"/>
<line class="st1" x1="119.1" y1="39.4" x2="119.1" y2="20.1"/>
<line class="st1" x1="138.9" y1="39.4" x2="138.9" y2="20.1"/>
<line class="st1" x1="-0.2" y1="39.7" x2="19.8" y2="39.7"/>
<line class="st1" x1="0" y1="59.3" x2="0" y2="39.9"/>
<line class="st1" x1="19.8" y1="39.7" x2="39.7" y2="39.7"/>
<line class="st1" x1="19.8" y1="59.3" x2="19.8" y2="39.9"/>
<line class="st1" x1="39.7" y1="39.7" x2="59.5" y2="39.7"/>
<line class="st1" x1="39.7" y1="59.3" x2="39.7" y2="39.9"/>
<line class="st1" x1="59.5" y1="39.7" x2="79.4" y2="39.7"/>
<line class="st1" x1="59.5" y1="59.3" x2="59.5" y2="39.9"/>
<line class="st1" x1="79.4" y1="39.7" x2="99.2" y2="39.7"/>
<line class="st1" x1="79.4" y1="59.3" x2="79.4" y2="39.9"/>
<line class="st1" x1="99.2" y1="39.7" x2="119.1" y2="39.7"/>
<line class="st1" x1="99.2" y1="59.3" x2="99.2" y2="39.9"/>
<line class="st1" x1="119.1" y1="39.7" x2="139.1" y2="39.7"/>
<line class="st1" x1="119.1" y1="59.3" x2="119.1" y2="39.9"/>
<line class="st1" x1="138.9" y1="59.3" x2="138.9" y2="39.9"/>
<line class="st1" x1="-0.2" y1="59.5" x2="19.8" y2="59.5"/>
<line class="st1" x1="0" y1="79.1" x2="0" y2="59.8"/>
<line class="st1" x1="19.8" y1="59.5" x2="39.7" y2="59.5"/>
<line class="st1" x1="19.8" y1="79.1" x2="19.8" y2="59.8"/>
<line class="st1" x1="39.7" y1="59.5" x2="59.5" y2="59.5"/>
<line class="st1" x1="39.7" y1="79.1" x2="39.7" y2="59.8"/>
<line class="st1" x1="59.5" y1="59.5" x2="79.4" y2="59.5"/>
<line class="st1" x1="59.5" y1="79.1" x2="59.5" y2="59.8"/>
<line class="st1" x1="79.4" y1="59.5" x2="99.2" y2="59.5"/>
<line class="st1" x1="79.4" y1="79.1" x2="79.4" y2="59.8"/>
<line class="st1" x1="99.2" y1="59.5" x2="119.1" y2="59.5"/>
<line class="st1" x1="99.2" y1="79.1" x2="99.2" y2="59.8"/>
<line class="st1" x1="119.1" y1="59.5" x2="139.1" y2="59.5"/>
<line class="st1" x1="119.1" y1="79.1" x2="119.1" y2="59.8"/>
<line class="st1" x1="138.9" y1="79.1" x2="138.9" y2="59.8"/>
<line class="st1" x1="-0.2" y1="79.4" x2="19.8" y2="79.4"/>
<line class="st1" x1="0" y1="99" x2="0" y2="79.6"/>
<line class="st1" x1="19.8" y1="79.4" x2="39.7" y2="79.4"/>
<line class="st1" x1="19.8" y1="99" x2="19.8" y2="79.6"/>
<line class="st1" x1="39.7" y1="79.4" x2="59.5" y2="79.4"/>
<line class="st1" x1="39.7" y1="99" x2="39.7" y2="79.6"/>
<line class="st1" x1="59.5" y1="79.4" x2="79.4" y2="79.4"/>
<line class="st1" x1="59.5" y1="99" x2="59.5" y2="79.6"/>
<line class="st1" x1="79.4" y1="79.4" x2="99.2" y2="79.4"/>
<line class="st1" x1="79.4" y1="99" x2="79.4" y2="79.6"/>
<line class="st1" x1="99.2" y1="79.4" x2="119.1" y2="79.4"/>
<line class="st1" x1="99.2" y1="99" x2="99.2" y2="79.6"/>
<line class="st1" x1="119.1" y1="79.4" x2="139.1" y2="79.4"/>
<line class="st1" x1="119.1" y1="99" x2="119.1" y2="79.6"/>
<line class="st1" x1="138.9" y1="99" x2="138.9" y2="79.6"/>
<line class="st1" x1="-0.2" y1="99.2" x2="19.8" y2="99.2"/>
<line class="st1" x1="0" y1="118.8" x2="0" y2="99.5"/>
<line class="st1" x1="19.8" y1="99.2" x2="39.7" y2="99.2"/>
<line class="st1" x1="19.8" y1="118.8" x2="19.8" y2="99.5"/>
<line class="st1" x1="39.7" y1="99.2" x2="59.5" y2="99.2"/>
<line class="st1" x1="39.7" y1="118.8" x2="39.7" y2="99.5"/>
<line class="st1" x1="59.5" y1="99.2" x2="79.4" y2="99.2"/>
<line class="st1" x1="59.5" y1="118.8" x2="59.5" y2="99.5"/>
<line class="st1" x1="79.4" y1="99.2" x2="99.2" y2="99.2"/>
<line class="st1" x1="79.4" y1="118.8" x2="79.4" y2="99.5"/>
<line class="st1" x1="99.2" y1="99.2" x2="119.1" y2="99.2"/>
<line class="st1" x1="99.2" y1="118.8" x2="99.2" y2="99.5"/>
<line class="st1" x1="119.1" y1="99.2" x2="139.1" y2="99.2"/>
<line class="st1" x1="119.1" y1="118.8" x2="119.1" y2="99.5"/>
<line class="st1" x1="138.9" y1="118.8" x2="138.9" y2="99.5"/>
<line class="st1" x1="-0.2" y1="119.1" x2="19.8" y2="119.1"/>
<line class="st1" x1="0" y1="138.6" x2="0" y2="119.3"/>
<line class="st1" x1="19.8" y1="119.1" x2="39.7" y2="119.1"/>
<line class="st1" x1="19.8" y1="138.6" x2="19.8" y2="119.3"/>
<line class="st1" x1="39.7" y1="119.1" x2="59.5" y2="119.1"/>
<line class="st1" x1="39.7" y1="138.6" x2="39.7" y2="119.3"/>
<line class="st1" x1="59.5" y1="119.1" x2="79.4" y2="119.1"/>
<line class="st1" x1="59.5" y1="138.6" x2="59.5" y2="119.3"/>
<line class="st1" x1="79.4" y1="119.1" x2="99.2" y2="119.1"/>
<line class="st1" x1="79.4" y1="138.6" x2="79.4" y2="119.3"/>
<line class="st1" x1="99.2" y1="119.1" x2="119.1" y2="119.1"/>
<line class="st1" x1="99.2" y1="138.6" x2="99.2" y2="119.3"/>
<line class="st1" x1="119.1" y1="119.1" x2="139.1" y2="119.1"/>
<line class="st1" x1="119.1" y1="138.6" x2="119.1" y2="119.3"/>
<line class="st1" x1="138.9" y1="138.6" x2="138.9" y2="119.3"/>
<line class="st1" x1="-0.2" y1="138.9" x2="19.8" y2="138.9"/>
<line class="st1" x1="19.8" y1="138.9" x2="39.7" y2="138.9"/>
<line class="st1" x1="39.7" y1="138.9" x2="59.5" y2="138.9"/>
<line class="st1" x1="59.5" y1="138.9" x2="79.4" y2="138.9"/>
<line class="st1" x1="79.4" y1="138.9" x2="99.2" y2="138.9"/>
<line class="st1" x1="99.2" y1="138.9" x2="119.1" y2="138.9"/>
<line class="st1" x1="119.1" y1="138.9" x2="139.1" y2="138.9"/>
<g>
	<defs>
		<rect id="SVGID_1_" x="23.9" y="39.4" width="90.7" height="79.9"/>
	</defs>
	<clipPath id="SVGID_00000127038228158755672160000015808828523252504501_">
		<use xlink:href="#SVGID_1_"  style="overflow:visible;"/>
	</clipPath>
	<g style="clip-path:url(#SVGID_00000127038228158755672160000015808828523252504501_);">
		<defs>
			<rect id="SVGID_00000054959095704195688380000002315837316765498292_" x="23.9" y="39.4" width="90.7" height="79.9"/>
		</defs>
		<clipPath id="SVGID_00000030451061242543918860000000817361473313706154_">
			<use xlink:href="#SVGID_00000054959095704195688380000002315837316765498292_"  style="overflow:visible;"/>
		</clipPath>
		<g style="opacity:0.3;clip-path:url(#SVGID_00000030451061242543918860000000817361473313706154_);">
			<g>
				<defs>
					<rect id="SVGID_00000022522051023014455330000009359464608150388647_" x="14.9" y="32.4" width="108.7" height="87.9"/>
				</defs>
				<clipPath id="SVGID_00000014634100924288833850000010516261159212817589_">
					<use xlink:href="#SVGID_00000022522051023014455330000009359464608150388647_"  style="overflow:visible;"/>
				</clipPath>
				<polygon style="clip-path:url(#SVGID_00000014634100924288833850000010516261159212817589_);fill:#B547B8;" points="91.8,39.7 
					46.7,39.7 24.1,79.4 46.7,119.1 91.8,119.1 114.3,79.4 				"/>
			</g>
		</g>
		
			<polygon style="clip-path:url(#SVGID_00000030451061242543918860000000817361473313706154_);fill:none;stroke:#1F1E1C;stroke-width:0.5;stroke-linecap:round;stroke-linejoin:round;" points="
			91.8,39.7 46.7,39.7 24.1,79.4 46.7,119.1 91.8,119.1 114.3,79.4 		"/>
	</g>
</g>
<g>
</g>
<g>
</g>
<g>
</g>
<g>
</g>
<g>
</g>
<g>
</g>
<g>
</g>
<g>
</g>
<g>
</g>
<g>
</g>
<g>
</g>
<g>
</g>
<g>
</g>
<g>
</g>
<g>
</g>
</svg>
