<?xml version="1.0" encoding="utf-8"?>
<!-- Generator: Adobe Illustrator 25.4.1, SVG Export Plug-In . SVG Version: 6.00 Build 0)  -->
<svg version="1.1" id="Capa_1" xmlns="http://www.w3.org/2000/svg" xmlns:xlink="http://www.w3.org/1999/xlink" x="0px" y="0px"
	 viewBox="0 0 75.1 107.4" style="enable-background:new 0 0 75.1 107.4;" xml:space="preserve">
<style type="text/css">
	.st0{fill:#DCE5B2;}
	
		.st1{clip-path:url(#SVGID_00000033358813586342706920000005674868454442016694_);fill:none;stroke:#222220;stroke-width:0.5;stroke-linecap:round;stroke-linejoin:round;}
	.st2{clip-path:url(#SVGID_00000033358813586342706920000005674868454442016694_);fill:none;stroke:#222220;stroke-width:0.5;}
	.st3{clip-path:url(#SVGID_00000033358813586342706920000005674868454442016694_);fill:#FFFFFF;}
	.st4{clip-path:url(#SVGID_00000033358813586342706920000005674868454442016694_);}
	.st5{fill:#3E3E3D;}
	.st6{clip-path:url(#SVGID_00000033358813586342706920000005674868454442016694_);fill:none;stroke:#5C717F;stroke-width:1.2;}
</style>
<polygon class="st0" points="0.3,107.1 74.8,107.1 37.7,23.6 "/>
<g>
	<defs>
		<rect id="SVGID_1_" width="75.1" height="107.4"/>
	</defs>
	<clipPath id="SVGID_00000136372488707357371460000004108191548608044952_">
		<use xlink:href="#SVGID_1_"  style="overflow:visible;"/>
	</clipPath>
	
		<polygon style="clip-path:url(#SVGID_00000136372488707357371460000004108191548608044952_);fill:none;stroke:#222220;stroke-width:0.5;stroke-linecap:round;stroke-linejoin:round;" points="
		74.8,107.1 37.7,23.6 0.3,107.1 	"/>
	
		<line style="clip-path:url(#SVGID_00000136372488707357371460000004108191548608044952_);fill:none;stroke:#222220;stroke-width:0.5;" x1="37.6" y1="24.1" x2="56.3" y2="107.3"/>
	
		<line style="clip-path:url(#SVGID_00000136372488707357371460000004108191548608044952_);fill:none;stroke:#222220;stroke-width:0.5;" x1="37.9" y1="24.1" x2="17.8" y2="107.1"/>
	<path style="clip-path:url(#SVGID_00000136372488707357371460000004108191548608044952_);fill:#FFFFFF;" d="M10.4,0.6
		c-2.5,0-4.5,2-4.5,4.5V12c0,2.5,2,4.5,4.5,4.5h53.2c2.5,0,4.5-2,4.5-4.5V5.1c0-2.5-2-4.5-4.5-4.5H10.4z"/>
	<g style="clip-path:url(#SVGID_00000136372488707357371460000004108191548608044952_);">
		<path class="st5" d="M17.6,12.7c-0.1-0.1-0.1-0.2-0.1-0.3V4.8c0-0.1,0-0.3,0.1-0.3c0.1-0.1,0.2-0.1,0.4-0.1h2.3
			c1.4,0,2.4,0.4,3.1,1.1c0.7,0.7,1.1,1.8,1.1,3.1c0,1.4-0.4,2.4-1.1,3.1c-0.7,0.7-1.8,1.1-3.1,1.1H18
			C17.8,12.8,17.7,12.8,17.6,12.7z M20.2,12c2.2,0,3.3-1.1,3.3-3.4c0-2.3-1.1-3.4-3.3-3.4h-1.8V12H20.2z"/>
		<path class="st5" d="M30.9,11.6c0.1,0.1,0.1,0.2,0.1,0.3c0,0.2-0.1,0.4-0.4,0.6c-0.3,0.2-0.6,0.3-0.9,0.4
			c-0.3,0.1-0.6,0.1-0.9,0.1c-0.9,0-1.6-0.3-2.1-0.8s-0.8-1.3-0.8-2.2c0-0.6,0.1-1.1,0.3-1.6s0.6-0.8,1-1.1c0.4-0.3,0.9-0.4,1.4-0.4
			c0.8,0,1.4,0.2,1.8,0.7c0.4,0.5,0.7,1.2,0.7,2c0,0.2,0,0.3-0.1,0.3c-0.1,0.1-0.2,0.1-0.3,0.1h-3.9c0.1,1.4,0.7,2.1,2,2.1
			c0.3,0,0.6,0,0.8-0.1c0.2-0.1,0.5-0.2,0.7-0.3c0.2-0.1,0.3-0.2,0.4-0.2C30.8,11.5,30.9,11.5,30.9,11.6z M27.4,8.1
			c-0.3,0.3-0.5,0.8-0.5,1.4h3.4c0-0.6-0.2-1-0.4-1.4c-0.3-0.3-0.7-0.5-1.2-0.5C28.1,7.6,27.7,7.8,27.4,8.1z"/>
		<path class="st5" d="M35.7,12.8c-0.1-0.1-0.1-0.2-0.1-0.4V4.8c0-0.2,0-0.3,0.1-0.4c0.1-0.1,0.2-0.1,0.4-0.1c0.1,0,0.2,0,0.3,0.1
			s0.1,0.2,0.1,0.4v7.6c0,0.2,0,0.3-0.1,0.4s-0.2,0.1-0.3,0.1C35.9,12.9,35.8,12.8,35.7,12.8z"/>
		<path class="st5" d="M43,9.1v3.3c0,0.1,0,0.3-0.1,0.3s-0.2,0.1-0.3,0.1c-0.1,0-0.3,0-0.3-0.1S42,12.5,42,12.4v-0.6
			c-0.2,0.3-0.4,0.6-0.7,0.8c-0.3,0.2-0.7,0.3-1.1,0.3c-0.4,0-0.7-0.1-1-0.2c-0.3-0.2-0.6-0.4-0.8-0.6c-0.2-0.3-0.3-0.6-0.3-0.9
			c0-0.4,0.1-0.8,0.3-1c0.2-0.2,0.6-0.4,1.1-0.5c0.5-0.1,1.2-0.2,2.1-0.2H42V9c0-0.5-0.1-0.8-0.3-1.1c-0.2-0.2-0.5-0.3-1-0.3
			c-0.5,0-1.1,0.1-1.7,0.4c-0.2,0.1-0.4,0.2-0.5,0.2c-0.1,0-0.2,0-0.2-0.1c-0.1-0.1-0.1-0.2-0.1-0.3s0-0.2,0.1-0.3s0.2-0.2,0.3-0.3
			c0.3-0.2,0.6-0.3,1-0.4c0.4-0.1,0.7-0.1,1.1-0.1C42.2,6.8,43,7.6,43,9.1z M41.6,11.7c0.3-0.3,0.5-0.7,0.5-1.3v-0.3h-0.2
			c-0.7,0-1.2,0-1.6,0.1c-0.4,0.1-0.6,0.2-0.8,0.3c-0.2,0.1-0.2,0.3-0.2,0.6c0,0.3,0.1,0.6,0.3,0.8c0.2,0.2,0.5,0.3,0.9,0.3
			C40.9,12.1,41.2,12,41.6,11.7z"/>
		<path class="st5" d="M49.8,4.4c0.1,0.1,0.1,0.2,0.1,0.3v7.6c0,0.1,0,0.3-0.1,0.3c-0.1,0.1-0.2,0.1-0.4,0.1c-0.2,0-0.3,0-0.4-0.1
			S49,12.5,49,12.4v-0.6c-0.2,0.4-0.4,0.7-0.8,0.9s-0.7,0.3-1.2,0.3c-0.5,0-1-0.1-1.4-0.4c-0.4-0.3-0.7-0.6-0.9-1.1s-0.3-1-0.3-1.6
			c0-0.6,0.1-1.1,0.3-1.6s0.5-0.8,0.9-1.1C46,7,46.5,6.8,47,6.8c0.5,0,0.9,0.1,1.2,0.3C48.5,7.3,48.8,7.6,49,8V4.8
			c0-0.1,0-0.3,0.1-0.3s0.2-0.1,0.4-0.1C49.6,4.3,49.7,4.3,49.8,4.4z M48.5,11.5c0.3-0.4,0.5-0.9,0.5-1.7s-0.2-1.3-0.5-1.6
			c-0.3-0.4-0.7-0.6-1.3-0.6c-0.6,0-1,0.2-1.3,0.6c-0.3,0.4-0.5,0.9-0.5,1.6c0,0.7,0.2,1.3,0.5,1.7c0.3,0.4,0.8,0.6,1.3,0.6
			C47.7,12.1,48.2,11.9,48.5,11.5z"/>
		<path class="st5" d="M52.7,12.5c-0.4-0.2-0.7-0.6-1-1.1c-0.2-0.5-0.3-1-0.3-1.6c0-0.6,0.1-1.1,0.3-1.6c0.2-0.5,0.6-0.8,1-1.1
			s0.9-0.4,1.5-0.4s1,0.1,1.5,0.4s0.8,0.6,1,1.1c0.2,0.5,0.3,1,0.3,1.6c0,0.6-0.1,1.1-0.3,1.6c-0.2,0.5-0.6,0.8-1,1.1
			s-0.9,0.4-1.5,0.4S53.1,12.8,52.7,12.5z M55.5,11.5c0.3-0.4,0.5-0.9,0.5-1.7c0-0.7-0.2-1.3-0.5-1.6c-0.3-0.4-0.8-0.6-1.3-0.6
			s-1,0.2-1.3,0.6c-0.3,0.4-0.5,0.9-0.5,1.6c0,0.7,0.2,1.3,0.5,1.7s0.8,0.6,1.3,0.6S55.2,11.9,55.5,11.5z"/>
	</g>
	
		<path style="clip-path:url(#SVGID_00000136372488707357371460000004108191548608044952_);fill:none;stroke:#5C717F;stroke-width:1.2;" d="
		M10.4,0.6c-2.5,0-4.5,2-4.5,4.5V12c0,2.5,2,4.5,4.5,4.5h53.2c2.5,0,4.5-2,4.5-4.5V5.1c0-2.5-2-4.5-4.5-4.5H10.4z"/>
</g>
<g>
</g>
<g>
</g>
<g>
</g>
<g>
</g>
<g>
</g>
<g>
</g>
<g>
</g>
<g>
</g>
<g>
</g>
<g>
</g>
<g>
</g>
<g>
</g>
<g>
</g>
<g>
</g>
<g>
</g>
</svg>
