<svg id="Capa_1" data-name="Capa 1" xmlns="http://www.w3.org/2000/svg" viewBox="0 0 346.39 207.51"><defs><style>.cls-1{fill:#cabeda;}.cls-2,.cls-4{fill:none;stroke:#1d1d1b;stroke-linejoin:round;stroke-width:0.5px;}.cls-3{fill:#8f72a8;}.cls-4{stroke-linecap:round;}.cls-5{fill:#0095d4;}.cls-6{fill:#a58fbc;}</style></defs><title>mat</title><polygon class="cls-1" points="0.18 103.6 38.52 76.76 115.2 76.76 76.86 103.6 0.18 103.6"/><polyline class="cls-2" points="0.27 103.83 38.62 76.89 115.32 76.89"/><rect class="cls-3" x="0.25" y="103.73" width="76.78" height="76.78"/><rect class="cls-4" x="0.25" y="103.73" width="76.78" height="76.78"/><polygon class="cls-5" points="115.37 153.65 76.93 180.51 76.93 103.76 115.37 76.89 115.37 153.65"/><polygon class="cls-4" points="115.37 153.65 76.93 180.51 76.93 103.76 115.37 76.89 115.37 153.65"/><polygon class="cls-1" points="38.9 130.34 77.24 103.5 153.91 103.5 115.58 130.34 38.9 130.34"/><polyline class="cls-2" points="38.99 130.57 77.34 103.64 154.04 103.64"/><rect class="cls-3" x="38.97" y="130.48" width="76.78" height="76.78"/><rect class="cls-4" x="38.97" y="130.48" width="76.78" height="76.78"/><polygon class="cls-5" points="154.09 180.39 115.65 207.25 115.65 130.5 154.09 103.64 154.09 180.39"/><polygon class="cls-4" points="154.09 180.39 115.65 207.25 115.65 130.5 154.09 103.64 154.09 180.39"/><polygon class="cls-1" points="115.78 0.11 77.44 26.95 154.12 26.95 192.46 0.11 115.78 0.11"/><polyline class="cls-2" points="77.54 27.18 115.88 0.25 192.58 0.25"/><rect class="cls-3" x="77.51" y="27.09" width="76.78" height="76.78"/><rect class="cls-4" x="77.51" y="27.09" width="76.78" height="76.78"/><polygon class="cls-5" points="154.19 27.11 154.19 103.87 192.63 77 192.63 0.25 154.19 27.11"/><polygon class="cls-4" points="192.63 77 154.19 103.87 154.19 27.11 192.63 0.25 192.63 77"/><polygon class="cls-1" points="115.61 130.34 153.95 103.5 230.63 103.5 192.29 130.34 115.61 130.34"/><polyline class="cls-2" points="115.7 130.57 154.05 103.64 230.75 103.64"/><rect class="cls-3" x="115.68" y="130.48" width="76.78" height="76.78"/><rect class="cls-4" x="115.68" y="130.48" width="76.78" height="76.78"/><polygon class="cls-6" points="230.8 180.39 192.36 207.25 192.36 130.5 230.8 103.64 230.8 180.39"/><polygon class="cls-4" points="230.8 180.39 192.36 207.25 192.36 130.5 230.8 103.64 230.8 180.39"/><polygon class="cls-1" points="192.49 0.11 154.15 26.95 230.83 26.95 269.17 0.11 192.49 0.11"/><polyline class="cls-2" points="154.25 27.18 192.59 0.25 269.29 0.25"/><rect class="cls-3" x="154.23" y="27.09" width="76.78" height="76.78"/><rect class="cls-4" x="154.23" y="27.09" width="76.78" height="76.78"/><polygon class="cls-6" points="230.9 27.11 230.9 103.87 269.34 77 269.34 0.25 230.9 27.11"/><polygon class="cls-4" points="269.34 77 230.9 103.87 230.9 27.11 269.34 0.25 269.34 77"/><polygon class="cls-1" points="230.95 103.6 269.29 76.76 345.97 76.76 307.63 103.6 230.95 103.6"/><polyline class="cls-2" points="231.05 103.83 269.4 76.89 346.09 76.89"/><rect class="cls-3" x="231.03" y="103.73" width="76.78" height="76.78"/><rect class="cls-4" x="231.03" y="103.73" width="76.78" height="76.78"/><polygon class="cls-6" points="346.14 153.65 307.7 180.51 307.7 103.76 346.14 76.89 346.14 153.65"/><polygon class="cls-4" points="346.14 153.65 307.7 180.51 307.7 103.76 346.14 76.89 346.14 153.65"/></svg>