<svg id="Capa_1" data-name="Capa 1" xmlns="http://www.w3.org/2000/svg" xmlns:xlink="http://www.w3.org/1999/xlink" viewBox="0 0 756.43 402.71"><defs><style>.cls-1,.cls-13,.cls-14,.cls-18,.cls-24,.cls-25,.cls-29,.cls-30,.cls-33,.cls-5{fill:none;}.cls-2{clip-path:url(#clip-path);}.cls-3{fill:#e2e5e9;}.cls-4{fill:#fff;}.cls-33,.cls-5{stroke:#517280;}.cls-5{stroke-miterlimit:10;}.cls-13,.cls-14,.cls-18,.cls-24,.cls-25,.cls-5{stroke-width:0.5px;}.cls-6{font-size:21.7px;fill:#1d1d1b;}.cls-31,.cls-6{font-family:Malva-Light, Malva;font-weight:300;}.cls-7{letter-spacing:0em;}.cls-8{letter-spacing:-0.01em;}.cls-9{letter-spacing:0em;}.cls-10{letter-spacing:-0.01em;}.cls-11{letter-spacing:0em;}.cls-12{opacity:0.5;}.cls-13,.cls-14,.cls-18,.cls-24,.cls-25{stroke:#1d1d1b;}.cls-13{stroke-dasharray:1.43 0.93;}.cls-15{clip-path:url(#clip-path-2);}.cls-16{fill:#e083b4;}.cls-17{clip-path:url(#clip-path-4);}.cls-18,.cls-30{stroke-linecap:round;stroke-linejoin:round;}.cls-19{opacity:0.7;}.cls-20{clip-path:url(#clip-path-5);}.cls-21{clip-path:url(#clip-path-6);}.cls-22{fill:url(#Degradado_sin_nombre_2);}.cls-23{fill:#d9e39a;}.cls-24{stroke-dasharray:1.51 1.01;}.cls-25{stroke-dasharray:1.51 1.01;}.cls-26{clip-path:url(#clip-path-7);}.cls-27{fill:#ffcd44;}.cls-28{fill:#e20613;}.cls-29{stroke:#e20613;stroke-width:0.4px;}.cls-30{stroke:#868686;}.cls-31{font-size:20.03px;fill:#3c3c3b;}.cls-32{letter-spacing:-0.01em;}.cls-33{stroke-width:1.5px;}</style><clipPath id="clip-path"><rect class="cls-1" x="0.25" y="0.25" width="586.75" height="402.21" rx="9.46"/></clipPath><clipPath id="clip-path-2"><path class="cls-1" d="M33.06,70.8c0,6.6,13.91,11.94,31.07,11.94S95.2,77.4,95.2,70.8,81.29,58.87,64.13,58.87,33.06,64.21,33.06,70.8"/></clipPath><clipPath id="clip-path-4"><rect class="cls-1" x="17.61" y="58.55" width="93.03" height="98.1"/></clipPath><clipPath id="clip-path-5"><rect class="cls-1" x="11.49" y="175.71" width="105.28" height="88.59"/></clipPath><clipPath id="clip-path-6"><path class="cls-1" d="M64.13,262.21A37.2,37.2,0,1,0,26.93,225a37.19,37.19,0,0,0,37.2,37.2"/></clipPath><radialGradient id="Degradado_sin_nombre_2" cx="-4856.13" cy="985.36" r="1.67" gradientTransform="matrix(22.54, 0, 0, -22.54, 109499.13, 22430.45)" gradientUnits="userSpaceOnUse"><stop offset="0" stop-color="#d8e5b0"/><stop offset="0.25" stop-color="#d8e5b0"/><stop offset="0.77" stop-color="#aec90b"/><stop offset="1" stop-color="#76b72a"/></radialGradient><clipPath id="clip-path-7"><rect class="cls-1" x="13.45" y="283.75" width="101.36" height="109.11"/></clipPath></defs><title>mat</title><g class="cls-2"><path class="cls-3" d="M440.31.25H591.73V47.57H440.31ZM288.89.25H440.31V47.57H288.89ZM128,.25H288.89V47.57H128Z"/><path class="cls-4" d="M440.31,284.16H591.73v118.3H440.31Zm-151.42,0H440.31v118.3H288.89Zm-160.88,0H288.89v118.3H128Zm-127.76,0H128v118.3H.25ZM440.31,165.87H591.73V284.16H440.31Zm-151.42,0H440.31V284.16H288.89Zm-160.88,0H288.89V284.16H128Zm-127.76,0H128V284.16H.25ZM440.31,47.57H591.73v118.3H440.31Zm-151.42,0H440.31v118.3H288.89ZM128,47.57H288.89v118.3H128ZM.25,47.57H128v118.3H.25Z"/><line class="cls-5" x1="128.01" y1="47.15" x2="128.01" y2="0.25"/><line class="cls-5" x1="288.89" y1="47.15" x2="288.89" y2="0.25"/><line class="cls-5" x1="440.31" y1="47.15" x2="440.31" y2="0.25"/><line class="cls-5" x1="0.25" y1="47.57" x2="128.01" y2="47.57"/><line class="cls-5" x1="128.01" y1="47.57" x2="288.89" y2="47.57"/><line class="cls-5" x1="128.01" y1="165.45" x2="128.01" y2="47.99"/><line class="cls-5" x1="288.89" y1="47.57" x2="440.31" y2="47.57"/><line class="cls-5" x1="288.89" y1="165.45" x2="288.89" y2="47.99"/><line class="cls-5" x1="440.31" y1="47.57" x2="591.73" y2="47.57"/><line class="cls-5" x1="440.31" y1="165.45" x2="440.31" y2="47.99"/><line class="cls-5" x1="0.25" y1="165.86" x2="128.01" y2="165.86"/><line class="cls-5" x1="128.01" y1="165.86" x2="288.89" y2="165.86"/><line class="cls-5" x1="128.01" y1="283.74" x2="128.01" y2="166.28"/><line class="cls-5" x1="288.89" y1="165.86" x2="440.31" y2="165.86"/><line class="cls-5" x1="288.89" y1="283.74" x2="288.89" y2="166.28"/><line class="cls-5" x1="440.31" y1="165.86" x2="591.73" y2="165.86"/><line class="cls-5" x1="440.31" y1="283.74" x2="440.31" y2="166.28"/><line class="cls-5" x1="0.25" y1="284.16" x2="128.01" y2="284.16"/><line class="cls-5" x1="128.01" y1="284.16" x2="288.89" y2="284.16"/><line class="cls-5" x1="128.01" y1="402.46" x2="128.01" y2="284.58"/><line class="cls-5" x1="288.89" y1="284.16" x2="440.31" y2="284.16"/><line class="cls-5" x1="288.89" y1="402.46" x2="288.89" y2="284.58"/><line class="cls-5" x1="440.31" y1="284.16" x2="591.73" y2="284.16"/><line class="cls-5" x1="440.31" y1="402.46" x2="440.31" y2="284.58"/><text class="cls-6" transform="translate(133.31 32.05)"><tspan class="cls-7">D</tspan><tspan x="15.82" y="0">esde el f</tspan><tspan class="cls-8" x="97.63" y="0">r</tspan><tspan x="105.36" y="0">e</tspan><tspan class="cls-9" x="116.92" y="0">n</tspan><tspan class="cls-10" x="129.55" y="0">t</tspan><tspan x="138.6" y="0">e</tspan></text><text class="cls-6" transform="translate(298.59 32.05)"><tspan class="cls-7">D</tspan><tspan x="15.82" y="0">esde el lado</tspan></text><text class="cls-6" transform="translate(456.81 32.05)"><tspan class="cls-7">D</tspan><tspan x="15.82" y="0">esde a</tspan><tspan class="cls-11" x="78.58" y="0">r</tspan><tspan class="cls-7" x="86.58" y="0">r</tspan><tspan x="94.61" y="0">iba</tspan></text><path class="cls-13" d="M94.46,140c-3-5.1-14.42-9-28.36-9.3"/><path class="cls-13" d="M61.38,130.74c-14.21.48-25.68,4.63-27.93,10"/><path class="cls-14" d="M33.21,141.45a4.71,4.71,0,0,0-.15,1.18M65.32,130.7H62.94M95.2,142.63a4.71,4.71,0,0,0-.15-1.18"/></g><g class="cls-15"><rect class="cls-16" x="29.37" y="58.45" width="92.06" height="34.61"/></g><g class="cls-2"><ellipse class="cls-14" cx="64.13" cy="70.81" rx="31.07" ry="11.94"/><path class="cls-14" d="M95.12,71.32c0-.21.08-.83.08-.62,0,5.77-13.91,12.19-31.07,12.19s-31.07-5-31.07-12.19c0-.21,0,.41.08.62h-.08v71.37h0s0,.05,0,.07c0,6.52,13.92,11.8,31.08,11.8s31.07-5.28,31.07-11.8c0,0,0,0,0-.07h0V71.32Z"/><rect class="cls-16" x="177.99" y="58.27" width="60.92" height="96.89"/><rect class="cls-18" x="177.99" y="58.27" width="60.92" height="96.89"/><rect class="cls-16" x="334.14" y="58.27" width="60.92" height="96.89"/><rect class="cls-18" x="334.14" y="58.27" width="60.92" height="96.89"/><path class="cls-16" d="M516,143.92a37.2,37.2,0,1,0-37.2-37.2,37.2,37.2,0,0,0,37.2,37.2"/><path class="cls-18" d="M516,143.92a37.2,37.2,0,1,0-37.2-37.2A37.2,37.2,0,0,0,516,143.92Z"/><g class="cls-19"><g class="cls-20"><g class="cls-21"><rect class="cls-22" x="26.93" y="187.81" width="74.4" height="74.4"/></g></g></g><path class="cls-14" d="M64.13,262.21A37.2,37.2,0,1,0,26.93,225,37.19,37.19,0,0,0,64.13,262.21Z"/><path class="cls-23" d="M208.45,262.21a37.2,37.2,0,1,0-37.2-37.2,37.19,37.19,0,0,0,37.2,37.2"/><path class="cls-14" d="M208.45,262.21a37.2,37.2,0,1,0-37.2-37.2A37.19,37.19,0,0,0,208.45,262.21Z"/><path class="cls-23" d="M364.6,262.21A37.2,37.2,0,1,0,327.4,225a37.19,37.19,0,0,0,37.2,37.2"/><path class="cls-14" d="M364.6,262.21A37.2,37.2,0,1,0,327.4,225,37.19,37.19,0,0,0,364.6,262.21Z"/><path class="cls-23" d="M516,262.21a37.2,37.2,0,1,0-37.2-37.2,37.19,37.19,0,0,0,37.2,37.2"/><path class="cls-14" d="M516,262.21a37.2,37.2,0,1,0-37.2-37.2A37.19,37.19,0,0,0,516,262.21Z"/><path class="cls-24" d="M98,379.5c-4.09-3.48-16.63-6.07-31.72-6.29"/><path class="cls-25" d="M61.19,373.22c-15.83.25-28,2.54-31.39,6.87"/><path class="cls-14" d="M29.33,380.79A4,4,0,0,0,28.9,382m36.49-8.77H62.87M99.37,382a2.48,2.48,0,0,0-.33-1.21"/><path class="cls-14" d="M64.14,390.77c19.46,0,35.3-3.85,35.22-9.14-.08-.41-35.22-85.11-35.22-85.11L28.9,381.83S29.93,390.77,64.14,390.77Z"/><polygon class="cls-27" points="208.75 297.15 169.12 390.13 247.79 390.13 208.75 297.15"/><polygon class="cls-14" points="208.75 297.15 169.12 390.13 247.79 390.13 208.75 297.15"/><polygon class="cls-27" points="364.9 297.15 325.27 390.13 403.94 390.13 364.9 297.15"/><polygon class="cls-14" points="364.9 297.15 325.27 390.13 403.94 390.13 364.9 297.15"/><path class="cls-27" d="M516,380.51a37.2,37.2,0,1,0-37.2-37.2,37.2,37.2,0,0,0,37.2,37.2"/><path class="cls-14" d="M516,380.51a37.2,37.2,0,1,0-37.2-37.2A37.2,37.2,0,0,0,516,380.51Z"/><path class="cls-28" d="M516,346.05a2.75,2.75,0,1,0-2.74-2.74,2.75,2.75,0,0,0,2.74,2.74"/><path class="cls-29" d="M516,346.05a2.75,2.75,0,1,0-2.74-2.74A2.75,2.75,0,0,0,516,346.05Z"/></g><rect class="cls-5" x="0.25" y="0.25" width="586.75" height="402.21" rx="9.46"/><line class="cls-30" x1="645.02" y1="344.26" x2="518" y2="344.26"/><polyline class="cls-30" points="524.68 350.47 518 344.25 524.68 338.04"/><rect class="cls-4" x="645.39" y="327.35" width="110.29" height="33.26" rx="9.46"/><text class="cls-31" transform="translate(664.17 350.72)"><tspan class="cls-32">C</tspan><tspan x="12.12" y="0">úspide</tspan></text><rect class="cls-33" x="645.39" y="327.35" width="110.29" height="33.26" rx="9.46"/></svg>